UbuntuSans-CondensedItalic.ufo
<glyph name="numbersign" format="2">
  <advance width="512"/>
  <unicode hex="0023"/>
  <outline>
    <contour>
      <point x="24" y="0" type="line"/>
      <point x="82" y="0" type="line"/>
      <point x="153" y="188" type="line"/>
      <point x="282" y="188" type="line"/>
      <point x="211" y="0" type="line"/>
      <point x="270" y="0" type="line"/>
      <point x="341" y="188" type="line"/>
      <point x="460" y="188" type="line"/>
      <point x="472" y="240" type="line"/>
      <point x="361" y="240" type="line"/>
      <point x="440" y="452" type="line"/>
      <point x="523" y="452" type="line"/>
      <point x="535" y="506" type="line"/>
      <point x="460" y="506" type="line"/>
      <point x="532" y="693" type="line"/>
      <point x="473" y="693" type="line"/>
      <point x="401" y="506" type="line"/>
      <point x="273" y="506" type="line"/>
      <point x="344" y="693" type="line"/>
      <point x="285" y="693" type="line"/>
      <point x="214" y="506" type="line"/>
      <point x="93" y="506" type="line"/>
      <point x="80" y="452" type="line"/>
      <point x="194" y="452" type="line"/>
      <point x="115" y="240" type="line"/>
      <point x="29" y="240" type="line"/>
      <point x="17" y="188" type="line"/>
      <point x="94" y="188" type="line"/>
    </contour>
    <contour>
      <point x="173" y="240" type="line"/>
      <point x="253" y="452" type="line"/>
      <point x="381" y="452" type="line"/>
      <point x="302" y="240" type="line"/>
    </contour>
  </outline>
</glyph>
<glyph name="dollar" format="2">
  <advance width="420"/>
  <unicode hex="0024"/>
  <outline>
    <contour>
      <point x="92" y="-109" type="line"/>
      <point x="157" y="-109" type="line"/>
      <point x="188" y="22" type="line"/>
      <point x="286" y="40"/>
      <point x="353" y="114"/>
      <point x="353" y="213" type="curve" smooth="yes"/>
      <point x="353" y="284"/>
      <point x="328" y="319"/>
      <point x="270" y="367" type="curve" smooth="yes"/>
      <point x="213" y="413"/>
      <point x="186" y="441"/>
      <point x="186" y="490" type="curve" smooth="yes"/>
      <point x="186" y="558"/>
      <point x="237" y="601"/>
      <point x="312" y="601" type="curve" smooth="yes"/>
      <point x="346" y="601"/>
      <point x="383" y="593"/>
      <point x="411" y="580" type="curve"/>
      <point x="432" y="636" type="line"/>
      <point x="407" y="649"/>
      <point x="380" y="657"/>
      <point x="348" y="659" type="curve"/>
      <point x="376" y="776" type="line"/>
      <point x="311" y="776" type="line"/>
      <point x="282" y="656" type="line"/>
      <point x="185" y="642"/>
      <point x="118" y="573"/>
      <point x="118" y="480" type="curve" smooth="yes"/>
      <point x="118" y="408"/>
      <point x="149" y="374"/>
      <point x="208" y="327" type="curve" smooth="yes"/>
      <point x="261" y="284"/>
      <point x="283" y="255"/>
      <point x="283" y="203" type="curve" smooth="yes"/>
      <point x="283" y="128"/>
      <point x="230" y="78"/>
      <point x="148" y="78" type="curve" smooth="yes"/>
      <point x="111" y="78"/>
      <point x="62" y="88"/>
      <point x="25" y="108" type="curve"/>
      <point x="3" y="48" type="line"/>
      <point x="40" y="31"/>
      <point x="86" y="21"/>
      <point x="122" y="19" type="curve"/>
    </contour>
  </outline>
</glyph>
<glyph name="percent" format="2">
  <advance width="661"/>
  <unicode hex="0025"/>
  <outline>
    <contour>
      <point x="103" y="0" type="line"/>
      <point x="165" y="0" type="line"/>
      <point x="597" y="693" type="line"/>
      <point x="535" y="693" type="line"/>
    </contour>
    <contour>
      <point x="434" y="-12" type="curve" smooth="yes"/>
      <point x="530" y="-12"/>
      <point x="600" y="123"/>
      <point x="600" y="253" type="curve" smooth="yes"/>
      <point x="600" y="314"/>
      <point x="571" y="347"/>
      <point x="518" y="347" type="curve" smooth="yes"/>
      <point x="423" y="347"/>
      <point x="353" y="214"/>
      <point x="353" y="84" type="curve" smooth="yes"/>
      <point x="353" y="21"/>
      <point x="381" y="-12"/>
    </contour>
    <contour>
      <point x="439" y="37" type="curve" smooth="yes"/>
      <point x="419" y="37"/>
      <point x="409" y="53"/>
      <point x="409" y="87" type="curve" smooth="yes"/>
      <point x="409" y="175"/>
      <point x="458" y="298"/>
      <point x="513" y="298" type="curve" smooth="yes"/>
      <point x="535" y="298"/>
      <point x="544" y="283"/>
      <point x="544" y="249" type="curve" smooth="yes"/>
      <point x="544" y="162"/>
      <point x="493" y="37"/>
    </contour>
    <contour>
      <point x="184" y="349" type="curve" smooth="yes"/>
      <point x="280" y="349"/>
      <point x="351" y="484"/>
      <point x="351" y="615" type="curve" smooth="yes"/>
      <point x="351" y="675"/>
      <point x="321" y="708"/>
      <point x="268" y="708" type="curve" smooth="yes"/>
      <point x="173" y="708"/>
      <point x="102" y="575"/>
      <point x="102" y="444" type="curve" smooth="yes"/>
      <point x="102" y="382"/>
      <point x="131" y="349"/>
    </contour>
    <contour>
      <point x="189" y="398" type="curve" smooth="yes"/>
      <point x="169" y="398"/>
      <point x="159" y="413"/>
      <point x="159" y="447" type="curve" smooth="yes"/>
      <point x="159" y="536"/>
      <point x="208" y="659"/>
      <point x="263" y="659" type="curve" smooth="yes"/>
      <point x="285" y="659"/>
      <point x="294" y="644"/>
      <point x="294" y="611" type="curve" smooth="yes"/>
      <point x="294" y="522"/>
      <point x="244" y="398"/>
    </contour>
  </outline>
</glyph>
<glyph name="one" format="2">
  <advance width="420"/>
  <unicode hex="0031"/>
  <outline>
    <contour>
      <point x="153" y="0" type="line"/>
      <point x="223" y="0" type="line"/>
      <point x="389" y="693" type="line"/>
      <point x="336" y="693" type="line"/>
      <point x="285" y="628"/>
      <point x="218" y="585"/>
      <point x="157" y="557" type="curve"/>
      <point x="179" y="504" type="line"/>
      <point x="214" y="519"/>
      <point x="260" y="547"/>
      <point x="292" y="582" type="curve"/>
    </contour>
  </outline>
</glyph>
<glyph name="three" format="2">
  <advance width="420"/>
  <unicode hex="0033"/>
  <outline>
    <contour>
      <point x="122" y="-15" type="curve" smooth="yes"/>
      <point x="250" y="-15"/>
      <point x="346" y="94"/>
      <point x="346" y="229" type="curve" smooth="yes"/>
      <point x="346" y="293"/>
      <point x="324" y="339"/>
      <point x="269" y="369" type="curve"/>
      <point x="371" y="411"/>
      <point x="408" y="496"/>
      <point x="408" y="574" type="curve" smooth="yes"/>
      <point x="408" y="657"/>
      <point x="362" y="706"/>
      <point x="278" y="706" type="curve" smooth="yes"/>
      <point x="228" y="706"/>
      <point x="172" y="690"/>
      <point x="135" y="662" type="curve"/>
      <point x="157" y="612" type="line"/>
      <point x="189" y="633"/>
      <point x="225" y="646"/>
      <point x="257" y="646" type="curve" smooth="yes"/>
      <point x="310" y="646"/>
      <point x="336" y="612"/>
      <point x="336" y="558" type="curve" smooth="yes"/>
      <point x="336" y="490"/>
      <point x="290" y="399"/>
      <point x="182" y="399" type="curve" smooth="yes"/>
      <point x="150" y="399" type="line"/>
      <point x="137" y="337" type="line"/>
      <point x="169" y="337" type="line" smooth="yes"/>
      <point x="237" y="337"/>
      <point x="276" y="299"/>
      <point x="276" y="226" type="curve" smooth="yes"/>
      <point x="276" y="121"/>
      <point x="204" y="47"/>
      <point x="127" y="47" type="curve" smooth="yes"/>
      <point x="89" y="47"/>
      <point x="56" y="56"/>
      <point x="26" y="74" type="curve"/>
      <point x="-4" y="17" type="line"/>
      <point x="29" y="-4"/>
      <point x="73" y="-15"/>
    </contour>
  </outline>
</glyph>
<glyph name="eight" format="2">
  <advance width="420"/>
  <unicode hex="0038"/>
  <outline>
    <contour>
      <point x="155" y="-11" type="curve" smooth="yes"/>
      <point x="264" y="-11"/>
      <point x="354" y="78"/>
      <point x="354" y="205" type="curve" smooth="yes"/>
      <point x="354" y="265"/>
      <point x="325" y="305"/>
      <point x="285" y="348" type="curve"/>
      <point x="366" y="406"/>
      <point x="424" y="489"/>
      <point x="424" y="580" type="curve" smooth="yes"/>
      <point x="424" y="664"/>
      <point x="373" y="706"/>
      <point x="301" y="706" type="curve" smooth="yes"/>
      <point x="211" y="706"/>
      <point x="120" y="634"/>
      <point x="120" y="502" type="curve" smooth="yes"/>
      <point x="120" y="447"/>
      <point x="142" y="407"/>
      <point x="174" y="369" type="curve"/>
      <point x="81" y="314"/>
      <point x="23" y="240"/>
      <point x="23" y="133" type="curve" smooth="yes"/>
      <point x="23" y="49"/>
      <point x="71" y="-11"/>
    </contour>
    <contour>
      <point x="171" y="45" type="curve" smooth="yes"/>
      <point x="122" y="45"/>
      <point x="94" y="82"/>
      <point x="94" y="138" type="curve" smooth="yes"/>
      <point x="94" y="224"/>
      <point x="135" y="280"/>
      <point x="207" y="334" type="curve"/>
      <point x="248" y="290"/>
      <point x="282" y="250"/>
      <point x="282" y="191" type="curve" smooth="yes"/>
      <point x="282" y="100"/>
      <point x="225" y="45"/>
    </contour>
    <contour>
      <point x="253" y="382" type="curve"/>
      <point x="217" y="422"/>
      <point x="189" y="460"/>
      <point x="189" y="516" type="curve" smooth="yes"/>
      <point x="189" y="611"/>
      <point x="246" y="650"/>
      <point x="291" y="650" type="curve" smooth="yes"/>
      <point x="329" y="650"/>
      <point x="355" y="627"/>
      <point x="355" y="572" type="curve" smooth="yes"/>
      <point x="355" y="495"/>
      <point x="317" y="434"/>
    </contour>
  </outline>
</glyph>
<glyph name="nine" format="2">
  <advance width="420"/>
  <unicode hex="0039"/>
  <outline>
    <contour>
      <point x="16" y="-4" type="curve" smooth="yes"/>
      <point x="310" y="-2"/>
      <point x="414" y="344"/>
      <point x="414" y="535" type="curve" smooth="yes"/>
      <point x="414" y="648"/>
      <point x="369" y="706"/>
      <point x="296" y="706" type="curve" smooth="yes"/>
      <point x="179" y="706"/>
      <point x="91" y="560"/>
      <point x="91" y="406" type="curve" smooth="yes"/>
      <point x="91" y="317"/>
      <point x="134" y="267"/>
      <point x="203" y="267" type="curve" smooth="yes"/>
      <point x="237" y="267"/>
      <point x="268" y="274"/>
      <point x="298" y="291" type="curve"/>
      <point x="250" y="160"/>
      <point x="161" y="56"/>
      <point x="17" y="53" type="curve"/>
      <point x="8" y="-4" type="line"/>
      <point x="10" y="-4"/>
      <point x="13" y="-4"/>
    </contour>
    <contour>
      <point x="231" y="325" type="curve" smooth="yes"/>
      <point x="188" y="325"/>
      <point x="163" y="356"/>
      <point x="163" y="419" type="curve" smooth="yes"/>
      <point x="163" y="536"/>
      <point x="218" y="644"/>
      <point x="287" y="644" type="curve" smooth="yes"/>
      <point x="327" y="644"/>
      <point x="348" y="611"/>
      <point x="348" y="542" type="curve" smooth="yes"/>
      <point x="348" y="484"/>
      <point x="339" y="419"/>
      <point x="321" y="355" type="curve"/>
      <point x="291" y="334"/>
      <point x="262" y="325"/>
    </contour>
  </outline>
</glyph>
<glyph name="question" format="2">
  <advance width="318"/>
  <unicode hex="003F"/>
  <outline>
    <contour>
      <point x="83" y="196" type="curve"/>
      <point x="147" y="196" type="line"/>
      <point x="147" y="301"/>
      <point x="205" y="350"/>
      <point x="262" y="404" type="curve" smooth="yes"/>
      <point x="312" y="451"/>
      <point x="361" y="505"/>
      <point x="361" y="589" type="curve" smooth="yes"/>
      <point x="361" y="655"/>
      <point x="319" y="706"/>
      <point x="239" y="706" type="curve" smooth="yes"/>
      <point x="190" y="706"/>
      <point x="149" y="695"/>
      <point x="112" y="672" type="curve"/>
      <point x="128" y="618" type="line"/>
      <point x="157" y="634"/>
      <point x="185" y="644"/>
      <point x="218" y="644" type="curve" smooth="yes"/>
      <point x="261" y="644"/>
      <point x="288" y="620"/>
      <point x="288" y="575" type="curve" smooth="yes"/>
      <point x="288" y="517"/>
      <point x="249" y="470"/>
      <point x="205" y="429" type="curve" smooth="yes"/>
      <point x="155" y="381"/>
      <point x="83" y="320"/>
    </contour>
    <contour>
      <point x="85" y="-8" type="curve" smooth="yes"/>
      <point x="113" y="-8"/>
      <point x="140" y="18"/>
      <point x="140" y="52" type="curve" smooth="yes"/>
      <point x="140" y="78"/>
      <point x="121" y="96"/>
      <point x="95" y="96" type="curve" smooth="yes"/>
      <point x="65" y="96"/>
      <point x="40" y="67"/>
      <point x="40" y="35" type="curve" smooth="yes"/>
      <point x="40" y="11"/>
      <point x="59" y="-8"/>
    </contour>
  </outline>
</glyph>
<glyph name="at" format="2">
  <advance width="809"/>
  <unicode hex="0040"/>
  <outline>
    <contour>
      <point x="339" y="-152" type="curve" smooth="yes"/>
      <point x="391" y="-152"/>
      <point x="442" y="-146"/>
      <point x="472" y="-133" type="curve"/>
      <point x="474" y="-81" type="line"/>
      <point x="440" y="-92"/>
      <point x="395" y="-99"/>
      <point x="350" y="-99" type="curve" smooth="yes"/>
      <point x="203" y="-99"/>
      <point x="127" y="-1"/>
      <point x="127" y="179" type="curve" smooth="yes"/>
      <point x="127" y="444"/>
      <point x="296" y="653"/>
      <point x="484" y="653" type="curve" smooth="yes"/>
      <point x="628" y="653"/>
      <point x="696" y="571"/>
      <point x="696" y="413" type="curve" smooth="yes"/>
      <point x="696" y="234"/>
      <point x="626" y="108"/>
      <point x="564" y="108" type="curve" smooth="yes"/>
      <point x="539" y="108"/>
      <point x="517" y="124"/>
      <point x="517" y="165" type="curve" smooth="yes"/>
      <point x="517" y="178"/>
      <point x="520" y="194"/>
      <point x="525" y="215" type="curve" smooth="yes"/>
      <point x="589" y="482" type="line"/>
      <point x="561" y="495"/>
      <point x="513" y="503"/>
      <point x="482" y="503" type="curve" smooth="yes"/>
      <point x="351" y="503"/>
      <point x="249" y="359"/>
      <point x="249" y="184" type="curve" smooth="yes"/>
      <point x="249" y="102"/>
      <point x="286" y="53"/>
      <point x="357" y="53" type="curve" smooth="yes"/>
      <point x="396" y="53"/>
      <point x="433" y="71"/>
      <point x="466" y="102" type="curve"/>
      <point x="486" y="66"/>
      <point x="522" y="55"/>
      <point x="553" y="55" type="curve" smooth="yes"/>
      <point x="669" y="55"/>
      <point x="756" y="219"/>
      <point x="756" y="422" type="curve" smooth="yes"/>
      <point x="756" y="606"/>
      <point x="662" y="707"/>
      <point x="494" y="707" type="curve" smooth="yes"/>
      <point x="261" y="707"/>
      <point x="65" y="472"/>
      <point x="65" y="165" type="curve" smooth="yes"/>
      <point x="65" y="-45"/>
      <point x="171" y="-152"/>
    </contour>
    <contour>
      <point x="375" y="109" type="curve" smooth="yes"/>
      <point x="332" y="109"/>
      <point x="313" y="133"/>
      <point x="313" y="187" type="curve" smooth="yes"/>
      <point x="313" y="325"/>
      <point x="386" y="449"/>
      <point x="466" y="449" type="curve" smooth="yes"/>
      <point x="481" y="449"/>
      <point x="494" y="448"/>
      <point x="515" y="440" type="curve"/>
      <point x="463" y="222" type="line" smooth="yes"/>
      <point x="456" y="194"/>
      <point x="454" y="171"/>
      <point x="456" y="150" type="curve"/>
      <point x="430" y="123"/>
      <point x="400" y="109"/>
    </contour>
  </outline>
</glyph>
<glyph name="A" format="2">
  <advance width="477"/>
  <unicode hex="0041"/>
  <anchor x="170" y="0" name="bottom"/>
  <anchor x="306" y="10" name="ogonek"/>
  <anchor x="328" y="677" name="top"/>
  <outline>
    <contour>
      <point x="-39" y="0" type="curve"/>
      <point x="32" y="0" type="line"/>
      <point x="51" y="54"/>
      <point x="77" y="116"/>
      <point x="106" y="181" type="curve"/>
      <point x="327" y="181" type="line"/>
      <point x="326" y="116"/>
      <point x="323" y="56"/>
      <point x="320" y="0" type="curve"/>
      <point x="393" y="0" type="line"/>
      <point x="404" y="235"/>
      <point x="394" y="469"/>
      <point x="374" y="693" type="curve"/>
      <point x="298" y="693" type="line"/>
      <point x="181" y="491"/>
      <point x="51" y="234"/>
    </contour>
    <contour>
      <point x="133" y="242" type="line"/>
      <point x="186" y="361"/>
      <point x="251" y="490"/>
      <point x="316" y="608" type="curve"/>
      <point x="325" y="477"/>
      <point x="327" y="355"/>
      <point x="328" y="242" type="curve"/>
    </contour>
  </outline>
</glyph>
<glyph name="B" format="2">
  <advance width="507"/>
  <unicode hex="0042"/>
  <outline>
    <contour>
      <point x="163" y="-5" type="curve" smooth="yes"/>
      <point x="348" y="-5"/>
      <point x="440" y="93"/>
      <point x="440" y="224" type="curve" smooth="yes"/>
      <point x="440" y="284"/>
      <point x="411" y="333"/>
      <point x="345" y="359" type="curve"/>
      <point x="464" y="395"/>
      <point x="499" y="486"/>
      <point x="499" y="563" type="curve" smooth="yes"/>
      <point x="499" y="652"/>
      <point x="438" y="699"/>
      <point x="319" y="699" type="curve" smooth="yes"/>
      <point x="277" y="699"/>
      <point x="231" y="693"/>
      <point x="183" y="683" type="curve"/>
      <point x="22" y="11" type="line"/>
      <point x="66" y="0"/>
      <point x="116" y="-5"/>
    </contour>
    <contour>
      <point x="178" y="56" type="curve" smooth="yes"/>
      <point x="156" y="56"/>
      <point x="128" y="59"/>
      <point x="106" y="63" type="curve"/>
      <point x="170" y="330" type="line"/>
      <point x="240" y="330" type="line" smooth="yes"/>
      <point x="322" y="330"/>
      <point x="365" y="291"/>
      <point x="365" y="220" type="curve" smooth="yes"/>
      <point x="365" y="116"/>
      <point x="301" y="56"/>
    </contour>
    <contour>
      <point x="185" y="389" type="line"/>
      <point x="243" y="632" type="line"/>
      <point x="262" y="636"/>
      <point x="287" y="638"/>
      <point x="309" y="638" type="curve" smooth="yes"/>
      <point x="388" y="638"/>
      <point x="425" y="613"/>
      <point x="425" y="551" type="curve" smooth="yes"/>
      <point x="425" y="476"/>
      <point x="384" y="389"/>
      <point x="256" y="389" type="curve" smooth="yes"/>
    </contour>
  </outline>
</glyph>
<glyph name="J" format="2">
  <advance width="366"/>
  <unicode hex="004A"/>
  <anchor x="57" y="0" name="bottom"/>
  <anchor x="355" y="677" name="top"/>
  <outline>
    <contour>
      <point x="72" y="-10" type="curve" smooth="yes"/>
      <point x="177" y="-10"/>
      <point x="236" y="37"/>
      <point x="271" y="183" type="curve" smooth="yes"/>
      <point x="394" y="693" type="line"/>
      <point x="322" y="693" type="line"/>
      <point x="199" y="183" type="line" smooth="yes"/>
      <point x="177" y="93"/>
      <point x="145" y="53"/>
      <point x="83" y="53" type="curve" smooth="yes"/>
      <point x="51" y="53"/>
      <point x="20" y="63"/>
      <point x="-5" y="81" type="curve"/>
      <point x="-39" y="24" type="line"/>
      <point x="-5" y="3"/>
      <point x="35" y="-10"/>
    </contour>
  </outline>
</glyph>
<glyph name="S" format="2">
  <advance width="386"/>
  <unicode hex="0053"/>
  <anchor x="146" y="0" name="bottom"/>
  <anchor x="295" y="677" name="top"/>
  <outline>
    <contour>
      <point x="119" y="-11" type="curve" smooth="yes"/>
      <point x="250" y="-11"/>
      <point x="339" y="81"/>
      <point x="339" y="209" type="curve" smooth="yes"/>
      <point x="339" y="286"/>
      <point x="314" y="327"/>
      <point x="254" y="376" type="curve" smooth="yes"/>
      <point x="195" y="425"/>
      <point x="172" y="456"/>
      <point x="172" y="507" type="curve" smooth="yes"/>
      <point x="172" y="590"/>
      <point x="223" y="642"/>
      <point x="299" y="642" type="curve" smooth="yes"/>
      <point x="332" y="642"/>
      <point x="370" y="633"/>
      <point x="398" y="620" type="curve"/>
      <point x="421" y="679" type="line"/>
      <point x="388" y="695"/>
      <point x="353" y="704"/>
      <point x="307" y="704" type="curve" smooth="yes"/>
      <point x="188" y="704"/>
      <point x="99" y="617"/>
      <point x="99" y="496" type="curve" smooth="yes"/>
      <point x="99" y="426"/>
      <point x="127" y="389"/>
      <point x="192" y="334" type="curve" smooth="yes"/>
      <point x="243" y="293"/>
      <point x="266" y="258"/>
      <point x="266" y="200" type="curve" smooth="yes"/>
      <point x="266" y="110"/>
      <point x="212" y="51"/>
      <point x="130" y="51" type="curve" smooth="yes"/>
      <point x="92" y="51"/>
      <point x="44" y="62"/>
      <point x="5" y="83" type="curve"/>
      <point x="-18" y="20" type="line"/>
      <point x="23" y="1"/>
      <point x="74" y="-11"/>
    </contour>
  </outline>
</glyph>
<glyph name="V" format="2">
  <advance width="463"/>
  <unicode hex="0056"/>
  <outline>
    <contour>
      <point x="136" y="0" type="curve"/>
      <point x="212" y="0" type="line"/>
      <point x="340" y="229"/>
      <point x="453" y="459"/>
      <point x="543" y="693" type="curve"/>
      <point x="471" y="693" type="line"/>
      <point x="411" y="527"/>
      <point x="318" y="323"/>
      <point x="195" y="85" type="curve"/>
      <point x="181" y="328"/>
      <point x="185" y="527"/>
      <point x="197" y="693" type="curve"/>
      <point x="124" y="693" type="line"/>
      <point x="110" y="458"/>
      <point x="117" y="231"/>
    </contour>
  </outline>
</glyph>
<glyph name="Y" format="2">
  <advance width="450"/>
  <unicode hex="0059"/>
  <anchor x="162" y="0" name="bottom"/>
  <anchor x="315" y="677" name="top"/>
  <anchor x="61" y="693" name="topleft"/>
  <outline>
    <contour>
      <point x="127" y="0" type="line"/>
      <point x="198" y="0" type="line"/>
      <point x="264" y="270" type="line"/>
      <point x="354" y="393"/>
      <point x="456" y="554"/>
      <point x="532" y="693" type="curve"/>
      <point x="457" y="693" type="line"/>
      <point x="404" y="589"/>
      <point x="336" y="473"/>
      <point x="242" y="341" type="curve"/>
      <point x="217" y="474"/>
      <point x="203" y="588"/>
      <point x="198" y="693" type="curve"/>
      <point x="123" y="693" type="line"/>
      <point x="134" y="552"/>
      <point x="162" y="392"/>
      <point x="191" y="268" type="curve"/>
    </contour>
  </outline>
</glyph>
<glyph name="bracketright" format="2">
  <advance width="263"/>
  <unicode hex="005D"/>
  <outline>
    <contour>
      <point x="-85" y="-185" type="line"/>
      <point x="75" y="-185" type="line"/>
      <point x="307" y="783" type="line"/>
      <point x="147" y="783" type="line"/>
      <point x="134" y="729" type="line"/>
      <point x="230" y="729" type="line"/>
      <point x="24" y="-130" type="line"/>
      <point x="-72" y="-130" type="line"/>
    </contour>
  </outline>
</glyph>
<glyph name="b" format="2">
  <advance width="452"/>
  <unicode hex="0062"/>
  <outline>
    <contour>
      <point x="139" y="-10" type="curve" smooth="yes"/>
      <point x="294" y="-10"/>
      <point x="415" y="164"/>
      <point x="416" y="375" type="curve" smooth="yes"/>
      <point x="417" y="475"/>
      <point x="380" y="534"/>
      <point x="297" y="534" type="curve" smooth="yes"/>
      <point x="268" y="534"/>
      <point x="236" y="524"/>
      <point x="203" y="499" type="curve"/>
      <point x="270" y="776" type="line"/>
      <point x="198" y="764" type="line"/>
      <point x="18" y="17" type="line"/>
      <point x="52" y="0"/>
      <point x="102" y="-10"/>
    </contour>
    <contour>
      <point x="157" y="49" type="curve" smooth="yes"/>
      <point x="135" y="49"/>
      <point x="114" y="53"/>
      <point x="98" y="60" type="curve"/>
      <point x="186" y="430" type="line"/>
      <point x="216" y="458"/>
      <point x="250" y="474"/>
      <point x="278" y="474" type="curve" smooth="yes"/>
      <point x="327" y="474"/>
      <point x="346" y="441"/>
      <point x="346" y="371" type="curve" smooth="yes"/>
      <point x="346" y="203"/>
      <point x="255" y="49"/>
    </contour>
  </outline>
</glyph>
<glyph name="e" format="2">
  <advance width="401"/>
  <unicode hex="0065"/>
  <anchor x="150" y="0" name="bottom"/>
  <anchor x="238" y="10" name="ogonek"/>
  <anchor x="276" y="522" name="top"/>
  <outline>
    <contour>
      <point x="176" y="-11" type="curve" smooth="yes"/>
      <point x="226" y="-11"/>
      <point x="271" y="5"/>
      <point x="304" y="28" type="curve"/>
      <point x="297" y="83" type="line"/>
      <point x="269" y="62"/>
      <point x="230" y="48"/>
      <point x="196" y="48" type="curve" smooth="yes"/>
      <point x="134" y="48"/>
      <point x="108" y="73"/>
      <point x="108" y="162" type="curve" smooth="yes"/>
      <point x="108" y="179"/>
      <point x="109" y="197"/>
      <point x="111" y="213" type="curve"/>
      <point x="278" y="221"/>
      <point x="387" y="289"/>
      <point x="390" y="420" type="curve" smooth="yes"/>
      <point x="391" y="490"/>
      <point x="349" y="535"/>
      <point x="282" y="535" type="curve" smooth="yes"/>
      <point x="141" y="535"/>
      <point x="39" y="356"/>
      <point x="39" y="156" type="curve" smooth="yes"/>
      <point x="39" y="48"/>
      <point x="77" y="-11"/>
    </contour>
    <contour>
      <point x="117" y="266" type="curve"/>
      <point x="139" y="389"/>
      <point x="202" y="477"/>
      <point x="270" y="477" type="curve" smooth="yes"/>
      <point x="304" y="477"/>
      <point x="325" y="453"/>
      <point x="325" y="415" type="curve" smooth="yes"/>
      <point x="325" y="336"/>
      <point x="254" y="273"/>
    </contour>
  </outline>
</glyph>
<glyph name="h" format="2">
  <advance width="465"/>
  <unicode hex="0068"/>
  <anchor x="107" y="0" name="bottom"/>
  <anchor x="200" y="388" name="center"/>
  <anchor x="228" y="776" name="top"/>
  <outline>
    <contour>
      <point x="15" y="0" type="line"/>
      <point x="84" y="0" type="line"/>
      <point x="194" y="461" type="line"/>
      <point x="218" y="469"/>
      <point x="246" y="475"/>
      <point x="268" y="475" type="curve" smooth="yes"/>
      <point x="321" y="475"/>
      <point x="346" y="450"/>
      <point x="346" y="393" type="curve" smooth="yes"/>
      <point x="346" y="370"/>
      <point x="342" y="343"/>
      <point x="334" y="310" type="curve" smooth="yes"/>
      <point x="260" y="0" type="line"/>
      <point x="329" y="0" type="line"/>
      <point x="404" y="317" type="line" smooth="yes"/>
      <point x="412" y="349"/>
      <point x="416" y="377"/>
      <point x="416" y="402" type="curve" smooth="yes"/>
      <point x="416" y="489"/>
      <point x="371" y="533"/>
      <point x="288" y="533" type="curve" smooth="yes"/>
      <point x="264" y="533"/>
      <point x="236" y="527"/>
      <point x="208" y="518" type="curve"/>
      <point x="270" y="776" type="line"/>
      <point x="198" y="764" type="line"/>
    </contour>
  </outline>
</glyph>
<glyph name="m" format="2">
  <advance width="677"/>
  <unicode hex="006D"/>
  <outline>
    <contour>
      <point x="15" y="0" type="line"/>
      <point x="84" y="0" type="line"/>
      <point x="194" y="462" type="line"/>
      <point x="215" y="469"/>
      <point x="239" y="474"/>
      <point x="258" y="474" type="curve" smooth="yes"/>
      <point x="311" y="474"/>
      <point x="333" y="449"/>
      <point x="333" y="401" type="curve" smooth="yes"/>
      <point x="333" y="381"/>
      <point x="330" y="358"/>
      <point x="323" y="332" type="curve" smooth="yes"/>
      <point x="243" y="0" type="line"/>
      <point x="312" y="0" type="line"/>
      <point x="394" y="338" type="line" smooth="yes"/>
      <point x="400" y="363"/>
      <point x="403" y="384"/>
      <point x="403" y="404" type="curve" smooth="yes"/>
      <point x="403" y="414"/>
      <point x="402" y="424"/>
      <point x="401" y="432" type="curve"/>
      <point x="428" y="458"/>
      <point x="459" y="474"/>
      <point x="494" y="474" type="curve" smooth="yes"/>
      <point x="536" y="474"/>
      <point x="559" y="449"/>
      <point x="559" y="396" type="curve" smooth="yes"/>
      <point x="559" y="374"/>
      <point x="556" y="348"/>
      <point x="548" y="317" type="curve" smooth="yes"/>
      <point x="472" y="0" type="line"/>
      <point x="541" y="0" type="line"/>
      <point x="619" y="324" type="line" smooth="yes"/>
      <point x="627" y="357"/>
      <point x="630" y="385"/>
      <point x="630" y="408" type="curve" smooth="yes"/>
      <point x="630" y="493"/>
      <point x="586" y="532"/>
      <point x="508" y="532" type="curve" smooth="yes"/>
      <point x="467" y="532"/>
      <point x="418" y="515"/>
      <point x="379" y="485" type="curve"/>
      <point x="358" y="515"/>
      <point x="322" y="532"/>
      <point x="269" y="532" type="curve" smooth="yes"/>
      <point x="228" y="532"/>
      <point x="180" y="522"/>
      <point x="137" y="507" type="curve"/>
    </contour>
  </outline>
</glyph>
<glyph name="q" format="2">
  <advance width="448"/>
  <unicode hex="0071"/>
  <outline>
    <contour>
      <point x="193" y="-185" type="line"/>
      <point x="263" y="-185" type="line"/>
      <point x="429" y="508" type="line"/>
      <point x="396" y="523"/>
      <point x="344" y="533"/>
      <point x="309" y="533" type="curve" smooth="yes"/>
      <point x="156" y="533"/>
      <point x="37" y="360"/>
      <point x="35" y="148" type="curve" smooth="yes"/>
      <point x="34" y="48"/>
      <point x="71" y="-11"/>
      <point x="153" y="-11" type="curve" smooth="yes"/>
      <point x="183" y="-11"/>
      <point x="215" y="2"/>
      <point x="243" y="20" type="curve"/>
    </contour>
    <contour>
      <point x="171" y="50" type="curve" smooth="yes"/>
      <point x="123" y="50"/>
      <point x="105" y="82"/>
      <point x="105" y="153" type="curve" smooth="yes"/>
      <point x="105" y="321"/>
      <point x="195" y="474"/>
      <point x="290" y="474" type="curve" smooth="yes"/>
      <point x="312" y="474"/>
      <point x="332" y="471"/>
      <point x="349" y="463" type="curve"/>
      <point x="259" y="86" type="line"/>
      <point x="231" y="63"/>
      <point x="199" y="50"/>
    </contour>
  </outline>
</glyph>
<glyph name="r" format="2">
  <advance width="308"/>
  <unicode hex="0072"/>
  <anchor x="51" y="0" name="bottom"/>
  <anchor x="244" y="522" name="top"/>
  <outline>
    <contour>
      <point x="15" y="0" type="line"/>
      <point x="84" y="0" type="line"/>
      <point x="193" y="458" type="line"/>
      <point x="218" y="467"/>
      <point x="243" y="473"/>
      <point x="269" y="473" type="curve" smooth="yes"/>
      <point x="290" y="473"/>
      <point x="310" y="470"/>
      <point x="327" y="464" type="curve"/>
      <point x="346" y="523" type="line"/>
      <point x="327" y="529"/>
      <point x="303" y="532"/>
      <point x="274" y="532" type="curve" smooth="yes"/>
      <point x="230" y="532"/>
      <point x="183" y="521"/>
      <point x="135" y="500" type="curve"/>
    </contour>
  </outline>
</glyph>
<glyph name="w" format="2">
  <advance width="593"/>
  <unicode hex="0077"/>
  <anchor x="250" y="0" name="bottom"/>
  <anchor x="341" y="522" name="top"/>
  <outline>
    <contour>
      <point x="91" y="0" type="curve"/>
      <point x="162" y="0" type="line"/>
      <point x="212" y="81"/>
      <point x="268" y="213"/>
      <point x="326" y="379" type="curve"/>
      <point x="323" y="214"/>
      <point x="328" y="95"/>
      <point x="342" y="0" type="curve"/>
      <point x="412" y="0" type="line"/>
      <point x="485" y="126"/>
      <point x="585" y="359"/>
      <point x="626" y="522" type="curve"/>
      <point x="560" y="522" type="line"/>
      <point x="529" y="404"/>
      <point x="474" y="251"/>
      <point x="386" y="71" type="curve"/>
      <point x="374" y="259"/>
      <point x="376" y="396"/>
      <point x="388" y="522" type="curve"/>
      <point x="320" y="522" type="line"/>
      <point x="288" y="404"/>
      <point x="233" y="256"/>
      <point x="145" y="74" type="curve"/>
      <point x="134" y="259"/>
      <point x="134" y="396"/>
      <point x="147" y="522" type="curve"/>
      <point x="79" y="522" type="line"/>
      <point x="64" y="343"/>
      <point x="71" y="136"/>
    </contour>
  </outline>
</glyph>
<glyph name="z" format="2">
  <advance width="334"/>
  <unicode hex="007A"/>
  <anchor x="100" y="0" name="bottom"/>
  <anchor x="163" y="261" name="center"/>
  <anchor x="226" y="522" name="top"/>
  <outline>
    <contour>
      <point x="-25" y="0" type="line"/>
      <point x="253" y="0" type="line"/>
      <point x="267" y="59" type="line"/>
      <point x="63" y="59" type="line"/>
      <point x="145" y="198"/>
      <point x="257" y="355"/>
      <point x="351" y="468" type="curve"/>
      <point x="363" y="522" type="line"/>
      <point x="102" y="522" type="line"/>
      <point x="88" y="463" type="line"/>
      <point x="273" y="463" type="line"/>
      <point x="162" y="328"/>
      <point x="60" y="177"/>
      <point x="-14" y="51" type="curve"/>
    </contour>
  </outline>
</glyph>
<glyph name="braceleft" format="2">
  <advance width="268"/>
  <unicode hex="007B"/>
  <outline>
    <contour>
      <point x="134" y="-185" type="curve"/>
      <point x="147" y="-128" type="line"/>
      <point x="100" y="-128"/>
      <point x="80" y="-108"/>
      <point x="97" y="-40" type="curve" smooth="yes"/>
      <point x="144" y="158" type="line" smooth="yes"/>
      <point x="159" y="225"/>
      <point x="153" y="268"/>
      <point x="111" y="297" type="curve"/>
      <point x="167" y="324"/>
      <point x="195" y="371"/>
      <point x="212" y="440" type="curve" smooth="yes"/>
      <point x="260" y="643" type="line" smooth="yes"/>
      <point x="275" y="704"/>
      <point x="301" y="726"/>
      <point x="352" y="726" type="curve"/>
      <point x="366" y="783" type="line"/>
      <point x="267" y="783"/>
      <point x="220" y="743"/>
      <point x="196" y="644" type="curve" smooth="yes"/>
      <point x="149" y="449" type="line" smooth="yes"/>
      <point x="130" y="371"/>
      <point x="102" y="331"/>
      <point x="56" y="327" type="curve"/>
      <point x="42" y="271" type="line"/>
      <point x="82" y="266"/>
      <point x="97" y="226"/>
      <point x="78" y="148" type="curve" smooth="yes"/>
      <point x="32" y="-40" type="line" smooth="yes"/>
      <point x="7" y="-145"/>
      <point x="51" y="-185"/>
    </contour>
  </outline>
</glyph>
<glyph name="braceright" format="2">
  <advance width="268"/>
  <unicode hex="007D"/>
  <outline>
    <contour>
      <point x="-80" y="-185" type="line"/>
      <point x="19" y="-185"/>
      <point x="67" y="-145"/>
      <point x="90" y="-46" type="curve" smooth="yes"/>
      <point x="137" y="149" type="line" smooth="yes"/>
      <point x="156" y="227"/>
      <point x="185" y="267"/>
      <point x="230" y="272" type="curve"/>
      <point x="244" y="327" type="line"/>
      <point x="204" y="332"/>
      <point x="189" y="372"/>
      <point x="208" y="450" type="curve" smooth="yes"/>
      <point x="254" y="638" type="line" smooth="yes"/>
      <point x="279" y="744"/>
      <point x="235" y="783"/>
      <point x="152" y="783" type="curve"/>
      <point x="139" y="727" type="line"/>
      <point x="187" y="727"/>
      <point x="206" y="707"/>
      <point x="190" y="638" type="curve" smooth="yes"/>
      <point x="143" y="441" type="line" smooth="yes"/>
      <point x="127" y="373"/>
      <point x="134" y="331"/>
      <point x="175" y="301" type="curve"/>
      <point x="120" y="274"/>
      <point x="92" y="228"/>
      <point x="74" y="158" type="curve" smooth="yes"/>
      <point x="26" y="-45" type="line" smooth="yes"/>
      <point x="12" y="-105"/>
      <point x="-15" y="-128"/>
      <point x="-66" y="-128" type="curve"/>
    </contour>
  </outline>
</glyph>
<glyph name="asciitilde" format="2">
  <advance width="420"/>
  <unicode hex="007E"/>
  <outline>
    <contour>
      <point x="280" y="227" type="curve" smooth="yes"/>
      <point x="333" y="227"/>
      <point x="381" y="267"/>
      <point x="412" y="355" type="curve"/>
      <point x="363" y="370" type="line"/>
      <point x="338" y="300"/>
      <point x="307" y="292"/>
      <point x="290" y="292" type="curve" smooth="yes"/>
      <point x="246" y="292"/>
      <point x="221" y="372"/>
      <point x="157" y="372" type="curve" smooth="yes"/>
      <point x="104" y="372"/>
      <point x="55" y="332"/>
      <point x="26" y="244" type="curve"/>
      <point x="74" y="229" type="line"/>
      <point x="98" y="299"/>
      <point x="129" y="307"/>
      <point x="147" y="307" type="curve" smooth="yes"/>
      <point x="190" y="307"/>
      <point x="217" y="227"/>
    </contour>
  </outline>
</glyph>
<glyph name="currency" format="2">
  <advance width="420"/>
  <unicode hex="00A4"/>
  <outline>
    <contour>
      <point x="99" y="115" type="line"/>
      <point x="152" y="185" type="line"/>
      <point x="173" y="168"/>
      <point x="201" y="158"/>
      <point x="231" y="158" type="curve" smooth="yes"/>
      <point x="261" y="158"/>
      <point x="288" y="168"/>
      <point x="310" y="184" type="curve"/>
      <point x="362" y="115" type="line"/>
      <point x="409" y="153" type="line"/>
      <point x="352" y="228" type="line"/>
      <point x="371" y="259"/>
      <point x="382" y="298"/>
      <point x="382" y="347" type="curve" smooth="yes"/>
      <point x="382" y="396"/>
      <point x="370" y="437"/>
      <point x="351" y="468" type="curve"/>
      <point x="409" y="544" type="line"/>
      <point x="362" y="582" type="line"/>
      <point x="309" y="511" type="line"/>
      <point x="287" y="527"/>
      <point x="261" y="536"/>
      <point x="231" y="536" type="curve" smooth="yes"/>
      <point x="202" y="536"/>
      <point x="174" y="527"/>
      <point x="153" y="511" type="curve"/>
      <point x="99" y="582" type="line"/>
      <point x="53" y="544" type="line"/>
      <point x="111" y="467" type="line"/>
      <point x="92" y="436"/>
      <point x="81" y="396"/>
      <point x="81" y="347" type="curve" smooth="yes"/>
      <point x="81" y="299"/>
      <point x="92" y="259"/>
      <point x="110" y="229" type="curve"/>
      <point x="53" y="153" type="line"/>
    </contour>
    <contour>
      <point x="231" y="215" type="curve" smooth="yes"/>
      <point x="179" y="215"/>
      <point x="142" y="258"/>
      <point x="142" y="347" type="curve" smooth="yes"/>
      <point x="142" y="438"/>
      <point x="179" y="480"/>
      <point x="231" y="480" type="curve" smooth="yes"/>
      <point x="284" y="480"/>
      <point x="320" y="438"/>
      <point x="320" y="347" type="curve" smooth="yes"/>
      <point x="320" y="258"/>
      <point x="284" y="215"/>
    </contour>
  </outline>
</glyph>
<glyph name="brokenbar" format="2">
  <advance width="248"/>
  <unicode hex="00A6"/>
  <outline>
    <contour>
      <point x="125" y="404" type="line"/>
      <point x="191" y="404" type="line"/>
      <point x="282" y="783" type="line"/>
      <point x="216" y="783" type="line"/>
    </contour>
    <contour>
      <point x="-16" y="-185" type="line"/>
      <point x="50" y="-185" type="line"/>
      <point x="141" y="194" type="line"/>
      <point x="74" y="194" type="line"/>
    </contour>
  </outline>
</glyph>
<glyph name="ordfeminine" format="2">
  <advance width="338"/>
  <unicode hex="00AA"/>
  <outline>
    <contour>
      <point x="181" y="324" type="curve" smooth="yes"/>
      <point x="209" y="324"/>
      <point x="239" y="339"/>
      <point x="262" y="357" type="curve"/>
      <point x="263" y="345"/>
      <point x="266" y="337"/>
      <point x="269" y="325" type="curve"/>
      <point x="323" y="333" type="line"/>
      <point x="314" y="366"/>
      <point x="308" y="397"/>
      <point x="324" y="458" type="curve" smooth="yes"/>
      <point x="378" y="681" type="line"/>
      <point x="354" y="694"/>
      <point x="315" y="700"/>
      <point x="288" y="700" type="curve" smooth="yes"/>
      <point x="181" y="700"/>
      <point x="97" y="580"/>
      <point x="97" y="434" type="curve" smooth="yes"/>
      <point x="97" y="365"/>
      <point x="121" y="324"/>
    </contour>
    <contour>
      <point x="196" y="373" type="curve" smooth="yes"/>
      <point x="167" y="373"/>
      <point x="155" y="394"/>
      <point x="155" y="438" type="curve" smooth="yes"/>
      <point x="155" y="550"/>
      <point x="214" y="651"/>
      <point x="274" y="651" type="curve" smooth="yes"/>
      <point x="287" y="651"/>
      <point x="300" y="649"/>
      <point x="310" y="644" type="curve"/>
      <point x="268" y="472" type="line" smooth="yes"/>
      <point x="262" y="441"/>
      <point x="258" y="420"/>
      <point x="257" y="404" type="curve"/>
      <point x="237" y="384"/>
      <point x="216" y="373"/>
    </contour>
  </outline>
</glyph>
<glyph name="plusminus" format="2">
  <advance width="420"/>
  <unicode hex="00B1"/>
  <outline>
    <contour>
      <point x="151" y="139" type="line"/>
      <point x="212" y="139" type="line"/>
      <point x="249" y="290" type="line"/>
      <point x="385" y="290" type="line"/>
      <point x="400" y="349" type="line"/>
      <point x="263" y="349" type="line"/>
      <point x="298" y="499" type="line"/>
      <point x="237" y="499" type="line"/>
      <point x="201" y="349" type="line"/>
      <point x="62" y="349" type="line"/>
      <point x="49" y="290" type="line"/>
      <point x="186" y="290" type="line"/>
    </contour>
    <contour>
      <point x="-20" y="6" type="line"/>
      <point x="317" y="6" type="line"/>
      <point x="332" y="65" type="line"/>
      <point x="-5" y="65" type="line"/>
    </contour>
  </outline>
</glyph>
<glyph name="micro" format="2">
  <advance width="469"/>
  <unicode hex="00B5"/>
  <outline>
    <contour>
      <point x="-33" y="-185" type="line"/>
      <point x="34" y="-185" type="line"/>
      <point x="68" y="-37" type="line" smooth="yes"/>
      <point x="75" y="-9"/>
      <point x="79" y="19"/>
      <point x="82" y="41" type="curve"/>
      <point x="97" y="4"/>
      <point x="130" y="-10"/>
      <point x="177" y="-10" type="curve" smooth="yes"/>
      <point x="217" y="-9"/>
      <point x="258" y="12"/>
      <point x="291" y="38" type="curve"/>
      <point x="294" y="22"/>
      <point x="299" y="9"/>
      <point x="304" y="-7" type="curve"/>
      <point x="368" y="4" type="line"/>
      <point x="353" y="52"/>
      <point x="345" y="97"/>
      <point x="366" y="184" type="curve" smooth="yes"/>
      <point x="447" y="522" type="line"/>
      <point x="378" y="522" type="line"/>
      <point x="301" y="201" type="line" smooth="yes"/>
      <point x="290" y="157"/>
      <point x="284" y="125"/>
      <point x="282" y="98" type="curve"/>
      <point x="254" y="69"/>
      <point x="220" y="49"/>
      <point x="190" y="49" type="curve" smooth="yes"/>
      <point x="121" y="49"/>
      <point x="105" y="104"/>
      <point x="128" y="205" type="curve" smooth="yes"/>
      <point x="205" y="522" type="line"/>
      <point x="136" y="522" type="line"/>
    </contour>
  </outline>
</glyph>
<glyph name="multiply" format="2">
  <advance width="420"/>
  <unicode hex="00D7"/>
  <outline>
    <contour>
      <point x="82" y="153" type="line"/>
      <point x="212" y="258" type="line"/>
      <point x="297" y="147" type="line"/>
      <point x="346" y="185" type="line"/>
      <point x="261" y="297" type="line"/>
      <point x="395" y="405" type="line"/>
      <point x="358" y="451" type="line"/>
      <point x="225" y="344" type="line"/>
      <point x="142" y="454" type="line"/>
      <point x="93" y="415" type="line"/>
      <point x="177" y="305" type="line"/>
      <point x="45" y="199" type="line"/>
    </contour>
  </outline>
</glyph>
<glyph name="Oslash" format="2">
  <advance width="584"/>
  <unicode hex="00D8"/>
  <anchor x="390" y="677" name="top"/>
  <outline>
    <contour>
      <point x="54" y="-34" type="line"/>
      <point x="115" y="46" type="line"/>
      <point x="143" y="9"/>
      <point x="184" y="-10"/>
      <point x="239" y="-10" type="curve" smooth="yes"/>
      <point x="419" y="-10"/>
      <point x="556" y="230"/>
      <point x="556" y="488" type="curve" smooth="yes"/>
      <point x="556" y="532"/>
      <point x="551" y="569"/>
      <point x="540" y="600" type="curve"/>
      <point x="615" y="698" type="line"/>
      <point x="571" y="725" type="line"/>
      <point x="512" y="647" type="line"/>
      <point x="485" y="685"/>
      <point x="443" y="704"/>
      <point x="387" y="704" type="curve" smooth="yes"/>
      <point x="207" y="704"/>
      <point x="70" y="467"/>
      <point x="70" y="209" type="curve" smooth="yes"/>
      <point x="70" y="164"/>
      <point x="76" y="125"/>
      <point x="87" y="92" type="curve"/>
      <point x="12" y="-6" type="line"/>
    </contour>
    <contour>
      <point x="247" y="52" type="curve" smooth="yes"/>
      <point x="205" y="52"/>
      <point x="176" y="70"/>
      <point x="161" y="105" type="curve"/>
      <point x="476" y="518" type="line"/>
      <point x="479" y="503"/>
      <point x="480" y="487"/>
      <point x="480" y="468" type="curve" smooth="yes"/>
      <point x="475" y="262"/>
      <point x="373" y="52"/>
    </contour>
    <contour>
      <point x="150" y="173" type="line"/>
      <point x="146" y="189"/>
      <point x="145" y="208"/>
      <point x="145" y="229" type="curve" smooth="yes"/>
      <point x="149" y="431"/>
      <point x="251" y="642"/>
      <point x="379" y="642" type="curve" smooth="yes"/>
      <point x="421" y="642"/>
      <point x="449" y="623"/>
      <point x="465" y="587" type="curve"/>
    </contour>
  </outline>
</glyph>
<glyph name="ccedilla" format="2">
  <advance width="354"/>
  <unicode hex="00E7"/>
  <outline>
    <contour>
      <point x="99" y="-194" type="curve" smooth="yes"/>
      <point x="165" y="-194"/>
      <point x="211" y="-156"/>
      <point x="211" y="-102" type="curve" smooth="yes"/>
      <point x="211" y="-78"/>
      <point x="199" y="-56"/>
      <point x="168" y="-39" type="curve"/>
      <point x="175" y="-28"/>
      <point x="181" y="-19"/>
      <point x="186" y="-11" type="curve"/>
      <point x="218" y="-8"/>
      <point x="246" y="0"/>
      <point x="273" y="17" type="curve"/>
      <point x="267" y="73" type="line"/>
      <point x="245" y="59"/>
      <point x="217" y="49"/>
      <point x="191" y="49" type="curve" smooth="yes"/>
      <point x="132" y="49"/>
      <point x="110" y="82"/>
      <point x="110" y="165" type="curve" smooth="yes"/>
      <point x="110" y="340"/>
      <point x="185" y="474"/>
      <point x="285" y="474" type="curve" smooth="yes"/>
      <point x="308" y="474"/>
      <point x="330" y="470"/>
      <point x="351" y="459" type="curve"/>
      <point x="374" y="519" type="line"/>
      <point x="348" y="530"/>
      <point x="318" y="535"/>
      <point x="288" y="535" type="curve" smooth="yes"/>
      <point x="146" y="535"/>
      <point x="40" y="371"/>
      <point x="40" y="156" type="curve" smooth="yes"/>
      <point x="40" y="57"/>
      <point x="70" y="5"/>
      <point x="137" y="-8" type="curve"/>
      <point x="128" y="-23"/>
      <point x="116" y="-41"/>
      <point x="106" y="-59" type="curve"/>
      <point x="140" y="-69"/>
      <point x="154" y="-84"/>
      <point x="154" y="-104" type="curve" smooth="yes"/>
      <point x="154" y="-131"/>
      <point x="135" y="-146"/>
      <point x="105" y="-146" type="curve" smooth="yes"/>
      <point x="89" y="-146"/>
      <point x="69" y="-143"/>
      <point x="54" y="-138" type="curve"/>
      <point x="38" y="-184" type="line"/>
      <point x="57" y="-190"/>
      <point x="78" y="-194"/>
    </contour>
  </outline>
</glyph>
<glyph name="eth" format="2">
  <advance width="451"/>
  <unicode hex="00F0"/>
  <outline>
    <contour>
      <point x="155" y="-8" type="curve" smooth="yes"/>
      <point x="310" y="-8"/>
      <point x="414" y="203"/>
      <point x="414" y="468" type="curve" smooth="yes"/>
      <point x="414" y="529"/>
      <point x="405" y="585"/>
      <point x="386" y="636" type="curve"/>
      <point x="480" y="677" type="line"/>
      <point x="465" y="722" type="line"/>
      <point x="369" y="680" type="line"/>
      <point x="352" y="714"/>
      <point x="332" y="747"/>
      <point x="308" y="775" type="curve"/>
      <point x="249" y="743" type="line"/>
      <point x="272" y="714"/>
      <point x="291" y="683"/>
      <point x="305" y="652" type="curve"/>
      <point x="205" y="608" type="line"/>
      <point x="220" y="563" type="line"/>
      <point x="321" y="608" type="line"/>
      <point x="336" y="566"/>
      <point x="343" y="523"/>
      <point x="343" y="474" type="curve" smooth="yes"/>
      <point x="343" y="470"/>
      <point x="343" y="465"/>
      <point x="343" y="461" type="curve"/>
      <point x="323" y="476"/>
      <point x="298" y="485"/>
      <point x="271" y="485" type="curve" smooth="yes"/>
      <point x="134" y="485"/>
      <point x="27" y="329"/>
      <point x="27" y="144" type="curve" smooth="yes"/>
      <point x="27" y="48"/>
      <point x="75" y="-8"/>
    </contour>
    <contour>
      <point x="164" y="53" type="curve" smooth="yes"/>
      <point x="122" y="53"/>
      <point x="100" y="84"/>
      <point x="100" y="148" type="curve" smooth="yes"/>
      <point x="100" y="292"/>
      <point x="171" y="429"/>
      <point x="268" y="429" type="curve" smooth="yes"/>
      <point x="295" y="429"/>
      <point x="320" y="419"/>
      <point x="337" y="400" type="curve"/>
      <point x="321" y="201"/>
      <point x="248" y="53"/>
    </contour>
  </outline>
</glyph>
<glyph name="divide" format="2">
  <advance width="420"/>
  <unicode hex="00F7"/>
  <outline>
    <contour>
      <point x="43" y="271" type="line"/>
      <point x="380" y="271" type="line"/>
      <point x="394" y="329" type="line"/>
      <point x="57" y="329" type="line"/>
    </contour>
    <contour>
      <point x="181" y="105" type="curve" smooth="yes"/>
      <point x="208" y="105"/>
      <point x="230" y="126"/>
      <point x="230" y="159" type="curve" smooth="yes"/>
      <point x="230" y="180"/>
      <point x="212" y="198"/>
      <point x="188" y="198" type="curve" smooth="yes"/>
      <point x="157" y="198"/>
      <point x="138" y="172"/>
      <point x="138" y="143" type="curve" smooth="yes"/>
      <point x="138" y="122"/>
      <point x="156" y="105"/>
    </contour>
    <contour>
      <point x="250" y="403" type="curve" smooth="yes"/>
      <point x="278" y="403"/>
      <point x="299" y="426"/>
      <point x="299" y="458" type="curve" smooth="yes"/>
      <point x="299" y="480"/>
      <point x="282" y="497"/>
      <point x="257" y="497" type="curve" smooth="yes"/>
      <point x="227" y="497"/>
      <point x="208" y="471"/>
      <point x="208" y="442" type="curve" smooth="yes"/>
      <point x="208" y="420"/>
      <point x="225" y="403"/>
    </contour>
  </outline>
</glyph>
<glyph name="oslash" format="2">
  <advance width="439"/>
  <unicode hex="00F8"/>
  <anchor x="279" y="522" name="top"/>
  <outline>
    <contour>
      <point x="23" y="-27" type="line"/>
      <point x="72" y="35" type="line"/>
      <point x="92" y="6"/>
      <point x="123" y="-10"/>
      <point x="165" y="-10" type="curve" smooth="yes"/>
      <point x="300" y="-10"/>
      <point x="399" y="177"/>
      <point x="399" y="378" type="curve" smooth="yes"/>
      <point x="399" y="403"/>
      <point x="396" y="426"/>
      <point x="391" y="446" type="curve"/>
      <point x="453" y="523" type="line"/>
      <point x="415" y="551" type="line"/>
      <point x="366" y="488" type="line"/>
      <point x="346" y="518"/>
      <point x="315" y="534"/>
      <point x="273" y="534" type="curve" smooth="yes"/>
      <point x="137" y="534"/>
      <point x="38" y="349"/>
      <point x="38" y="149" type="curve" smooth="yes"/>
      <point x="38" y="122"/>
      <point x="41" y="99"/>
      <point x="47" y="78" type="curve"/>
      <point x="-14" y="2" type="line"/>
    </contour>
    <contour>
      <point x="171" y="46" type="curve" smooth="yes"/>
      <point x="139" y="46"/>
      <point x="120" y="59"/>
      <point x="111" y="89" type="curve"/>
      <point x="333" y="377" type="line"/>
      <point x="334" y="371"/>
      <point x="334" y="365"/>
      <point x="334" y="358" type="curve" smooth="yes"/>
      <point x="329" y="198"/>
      <point x="260" y="46"/>
    </contour>
    <contour>
      <point x="106" y="151" type="line"/>
      <point x="105" y="156"/>
      <point x="105" y="163"/>
      <point x="105" y="171" type="curve" smooth="yes"/>
      <point x="110" y="328"/>
      <point x="179" y="477"/>
      <point x="268" y="477" type="curve" smooth="yes"/>
      <point x="298" y="477"/>
      <point x="317" y="464"/>
      <point x="326" y="437" type="curve"/>
    </contour>
  </outline>
</glyph>
<glyph name="Hbar" format="2">
  <advance width="562"/>
  <unicode hex="0126"/>
  <outline>
    <contour>
      <point x="25" y="0" type="line"/>
      <point x="97" y="0" type="line"/>
      <point x="176" y="330" type="line"/>
      <point x="418" y="330" type="line"/>
      <point x="339" y="0" type="line"/>
      <point x="411" y="0" type="line"/>
      <point x="536" y="526" type="line"/>
      <point x="603" y="526" type="line"/>
      <point x="616" y="580" type="line"/>
      <point x="549" y="580" type="line"/>
      <point x="577" y="693" type="line"/>
      <point x="505" y="693" type="line"/>
      <point x="478" y="580" type="line"/>
      <point x="236" y="580" type="line"/>
      <point x="263" y="693" type="line"/>
      <point x="191" y="693" type="line"/>
      <point x="163" y="580" type="line"/>
      <point x="98" y="580" type="line"/>
      <point x="85" y="526" type="line"/>
      <point x="151" y="526" type="line"/>
    </contour>
    <contour>
      <point x="191" y="393" type="line"/>
      <point x="223" y="526" type="line"/>
      <point x="464" y="526" type="line"/>
      <point x="434" y="393" type="line"/>
    </contour>
  </outline>
</glyph>
<glyph name="hbar" format="2">
  <advance width="453"/>
  <unicode hex="0127"/>
  <outline>
    <contour>
      <point x="15" y="0" type="line"/>
      <point x="84" y="0" type="line"/>
      <point x="194" y="461" type="line"/>
      <point x="218" y="469"/>
      <point x="246" y="475"/>
      <point x="268" y="475" type="curve" smooth="yes"/>
      <point x="321" y="475"/>
      <point x="346" y="451"/>
      <point x="346" y="393" type="curve" smooth="yes"/>
      <point x="346" y="371"/>
      <point x="342" y="344"/>
      <point x="334" y="310" type="curve" smooth="yes"/>
      <point x="260" y="0" type="line"/>
      <point x="329" y="0" type="line"/>
      <point x="404" y="317" type="line" smooth="yes"/>
      <point x="412" y="349"/>
      <point x="416" y="379"/>
      <point x="416" y="404" type="curve" smooth="yes"/>
      <point x="416" y="491"/>
      <point x="370" y="533"/>
      <point x="288" y="533" type="curve" smooth="yes"/>
      <point x="264" y="533"/>
      <point x="236" y="527"/>
      <point x="208" y="518" type="curve"/>
      <point x="234" y="629" type="line"/>
      <point x="348" y="629" type="line"/>
      <point x="360" y="680" type="line"/>
      <point x="247" y="680" type="line"/>
      <point x="270" y="776" type="line"/>
      <point x="198" y="764" type="line"/>
      <point x="179" y="680" type="line"/>
      <point x="111" y="680" type="line"/>
      <point x="98" y="629" type="line"/>
      <point x="167" y="629" type="line"/>
    </contour>
  </outline>
</glyph>
<glyph name="Iogonek" format="2">
  <advance width="236"/>
  <unicode hex="012E"/>
  <outline>
    <contour>
      <point x="11" y="-194" type="curve" smooth="yes"/>
      <point x="29" y="-194"/>
      <point x="50" y="-191"/>
      <point x="68" y="-184" type="curve"/>
      <point x="74" y="-135" type="line"/>
      <point x="57" y="-140"/>
      <point x="46" y="-141"/>
      <point x="35" y="-141" type="curve" smooth="yes"/>
      <point x="16" y="-141"/>
      <point x="6" y="-130"/>
      <point x="6" y="-110" type="curve" smooth="yes"/>
      <point x="6" y="-74"/>
      <point x="33" y="-38"/>
      <point x="92" y="0" type="curve"/>
      <point x="258" y="693" type="line"/>
      <point x="187" y="693" type="line"/>
      <point x="21" y="1" type="line"/>
      <point x="31" y="1" type="line"/>
      <point x="-28" y="-40"/>
      <point x="-57" y="-82"/>
      <point x="-57" y="-129" type="curve" smooth="yes"/>
      <point x="-57" y="-169"/>
      <point x="-31" y="-194"/>
    </contour>
  </outline>
</glyph>
<glyph name="iogonek" format="2">
  <advance width="224"/>
  <unicode hex="012F"/>
  <outline>
    <contour>
      <point x="2" y="-194" type="curve" smooth="yes"/>
      <point x="20" y="-194"/>
      <point x="41" y="-191"/>
      <point x="60" y="-184" type="curve"/>
      <point x="65" y="-135" type="line"/>
      <point x="48" y="-140"/>
      <point x="37" y="-141"/>
      <point x="26" y="-141" type="curve" smooth="yes"/>
      <point x="7" y="-141"/>
      <point x="-3" y="-130"/>
      <point x="-3" y="-110" type="curve" smooth="yes"/>
      <point x="-3" y="-74"/>
      <point x="25" y="-39"/>
      <point x="84" y="0" type="curve"/>
      <point x="209" y="522" type="line"/>
      <point x="140" y="522" type="line"/>
      <point x="16" y="2" type="line"/>
      <point x="25" y="2" type="line"/>
      <point x="-36" y="-39"/>
      <point x="-66" y="-82"/>
      <point x="-66" y="-129" type="curve" smooth="yes"/>
      <point x="-66" y="-169"/>
      <point x="-40" y="-194"/>
    </contour>
    <contour>
      <point x="205" y="622" type="curve" smooth="yes"/>
      <point x="233" y="622"/>
      <point x="259" y="647"/>
      <point x="259" y="680" type="curve" smooth="yes"/>
      <point x="259" y="704"/>
      <point x="240" y="721"/>
      <point x="217" y="721" type="curve" smooth="yes"/>
      <point x="187" y="721"/>
      <point x="163" y="694"/>
      <point x="163" y="663" type="curve" smooth="yes"/>
      <point x="163" y="639"/>
      <point x="180" y="622"/>
    </contour>
  </outline>
</glyph>
<glyph name="kgreenlandic" format="2">
  <advance width="413"/>
  <unicode hex="0138"/>
  <outline>
    <contour>
      <point x="15" y="0" type="line"/>
      <point x="84" y="0" type="line"/>
      <point x="145" y="254" type="line"/>
      <point x="188" y="201"/>
      <point x="235" y="115"/>
      <point x="269" y="0" type="curve"/>
      <point x="340" y="0" type="line"/>
      <point x="320" y="84"/>
      <point x="273" y="194"/>
      <point x="210" y="278" type="curve"/>
      <point x="279" y="343"/>
      <point x="391" y="461"/>
      <point x="429" y="522" type="curve"/>
      <point x="355" y="522" type="line"/>
      <point x="323" y="472"/>
      <point x="227" y="365"/>
      <point x="155" y="299" type="curve"/>
      <point x="210" y="522" type="line"/>
      <point x="141" y="522" type="line"/>
    </contour>
  </outline>
</glyph>
<glyph name="oe" format="2">
  <advance width="670"/>
  <unicode hex="0153"/>
  <outline>
    <contour>
      <point x="165" y="-10" type="curve" smooth="yes"/>
      <point x="225" y="-10"/>
      <point x="280" y="32"/>
      <point x="318" y="98" type="curve"/>
      <point x="331" y="22"/>
      <point x="371" y="-11"/>
      <point x="445" y="-11" type="curve" smooth="yes"/>
      <point x="494" y="-11"/>
      <point x="540" y="5"/>
      <point x="573" y="28" type="curve"/>
      <point x="566" y="83" type="line"/>
      <point x="537" y="62"/>
      <point x="498" y="48"/>
      <point x="464" y="48" type="curve" smooth="yes"/>
      <point x="402" y="48"/>
      <point x="376" y="73"/>
      <point x="376" y="162" type="curve" smooth="yes"/>
      <point x="376" y="178"/>
      <point x="377" y="198"/>
      <point x="380" y="213" type="curve"/>
      <point x="546" y="221"/>
      <point x="655" y="289"/>
      <point x="658" y="420" type="curve" smooth="yes"/>
      <point x="659" y="490"/>
      <point x="617" y="535"/>
      <point x="550" y="535" type="curve" smooth="yes"/>
      <point x="485" y="535"/>
      <point x="428" y="493"/>
      <point x="386" y="426" type="curve"/>
      <point x="374" y="496"/>
      <point x="336" y="534"/>
      <point x="273" y="534" type="curve" smooth="yes"/>
      <point x="137" y="534"/>
      <point x="38" y="349"/>
      <point x="38" y="149" type="curve" smooth="yes"/>
      <point x="38" y="47"/>
      <point x="81" y="-10"/>
    </contour>
    <contour>
      <point x="172" y="49" type="curve" smooth="yes"/>
      <point x="126" y="49"/>
      <point x="109" y="80"/>
      <point x="109" y="148" type="curve" smooth="yes"/>
      <point x="109" y="296"/>
      <point x="176" y="474"/>
      <point x="265" y="474" type="curve" smooth="yes"/>
      <point x="310" y="474"/>
      <point x="328" y="444"/>
      <point x="328" y="379" type="curve" smooth="yes"/>
      <point x="328" y="227"/>
      <point x="261" y="49"/>
    </contour>
    <contour>
      <point x="385" y="266" type="curve"/>
      <point x="408" y="389"/>
      <point x="470" y="477"/>
      <point x="539" y="477" type="curve" smooth="yes"/>
      <point x="572" y="477"/>
      <point x="593" y="453"/>
      <point x="593" y="415" type="curve" smooth="yes"/>
      <point x="593" y="336"/>
      <point x="522" y="273"/>
    </contour>
  </outline>
</glyph>
<glyph name="Tcedilla" format="2">
  <advance width="420"/>
  <unicode hex="0162"/>
  <outline>
    <contour>
      <point x="81" y="-194" type="curve" smooth="yes"/>
      <point x="147" y="-194"/>
      <point x="193" y="-156"/>
      <point x="193" y="-102" type="curve" smooth="yes"/>
      <point x="193" y="-78"/>
      <point x="181" y="-56"/>
      <point x="150" y="-39" type="curve"/>
      <point x="161" y="-23"/>
      <point x="168" y="-11"/>
      <point x="176" y="0" type="curve" smooth="yes"/>
      <point x="182" y="0" type="line"/>
      <point x="335" y="631" type="line"/>
      <point x="486" y="631" type="line"/>
      <point x="501" y="693" type="line"/>
      <point x="126" y="693" type="line"/>
      <point x="111" y="631" type="line"/>
      <point x="263" y="631" type="line"/>
      <point x="111" y="0" type="line"/>
      <point x="126" y="0" type="line"/>
      <point x="114" y="-17"/>
      <point x="102" y="-38"/>
      <point x="88" y="-59" type="curve"/>
      <point x="123" y="-69"/>
      <point x="137" y="-84"/>
      <point x="137" y="-104" type="curve" smooth="yes"/>
      <point x="137" y="-131"/>
      <point x="117" y="-146"/>
      <point x="87" y="-146" type="curve" smooth="yes"/>
      <point x="71" y="-146"/>
      <point x="51" y="-143"/>
      <point x="36" y="-138" type="curve"/>
      <point x="21" y="-184" type="line"/>
      <point x="39" y="-190"/>
      <point x="60" y="-194"/>
    </contour>
  </outline>
</glyph>
<glyph name="tcedilla" format="2">
  <advance width="313"/>
  <unicode hex="0163"/>
  <outline>
    <contour>
      <point x="78" y="-194" type="curve" smooth="yes"/>
      <point x="143" y="-194"/>
      <point x="189" y="-156"/>
      <point x="189" y="-102" type="curve" smooth="yes"/>
      <point x="189" y="-78"/>
      <point x="178" y="-56"/>
      <point x="147" y="-39" type="curve"/>
      <point x="153" y="-28"/>
      <point x="159" y="-19"/>
      <point x="164" y="-11" type="curve"/>
      <point x="193" y="-10"/>
      <point x="221" y="-4"/>
      <point x="245" y="7" type="curve"/>
      <point x="238" y="64" type="line"/>
      <point x="216" y="54"/>
      <point x="191" y="48"/>
      <point x="169" y="48" type="curve" smooth="yes"/>
      <point x="113" y="48"/>
      <point x="97" y="86"/>
      <point x="117" y="167" type="curve" smooth="yes"/>
      <point x="188" y="464" type="line"/>
      <point x="324" y="464" type="line"/>
      <point x="338" y="522" type="line"/>
      <point x="202" y="522" type="line"/>
      <point x="240" y="681" type="line"/>
      <point x="169" y="669" type="line"/>
      <point x="49" y="169" type="line" smooth="yes"/>
      <point x="24" y="68"/>
      <point x="44" y="5"/>
      <point x="116" y="-8" type="curve"/>
      <point x="105" y="-24"/>
      <point x="94" y="-42"/>
      <point x="84" y="-59" type="curve"/>
      <point x="118" y="-69"/>
      <point x="132" y="-84"/>
      <point x="132" y="-104" type="curve" smooth="yes"/>
      <point x="132" y="-131"/>
      <point x="113" y="-146"/>
      <point x="83" y="-146" type="curve" smooth="yes"/>
      <point x="67" y="-146"/>
      <point x="47" y="-143"/>
      <point x="33" y="-138" type="curve"/>
      <point x="16" y="-184" type="line"/>
      <point x="35" y="-190"/>
      <point x="56" y="-194"/>
    </contour>
  </outline>
</glyph>
<glyph name="tbar" format="2">
  <advance width="313"/>
  <unicode hex="0167"/>
  <outline>
    <contour>
      <point x="152" y="-12" type="curve" smooth="yes"/>
      <point x="185" y="-12"/>
      <point x="218" y="-5"/>
      <point x="245" y="7" type="curve"/>
      <point x="238" y="64" type="line"/>
      <point x="216" y="54"/>
      <point x="191" y="48"/>
      <point x="169" y="48" type="curve" smooth="yes"/>
      <point x="113" y="48"/>
      <point x="97" y="86"/>
      <point x="117" y="167" type="curve" smooth="yes"/>
      <point x="136" y="249" type="line"/>
      <point x="267" y="249" type="line"/>
      <point x="279" y="299" type="line"/>
      <point x="148" y="299" type="line"/>
      <point x="188" y="464" type="line"/>
      <point x="324" y="464" type="line"/>
      <point x="338" y="522" type="line"/>
      <point x="202" y="522" type="line"/>
      <point x="240" y="681" type="line"/>
      <point x="169" y="669" type="line"/>
      <point x="49" y="169" type="line" smooth="yes"/>
      <point x="20" y="52"/>
      <point x="51" y="-12"/>
    </contour>
  </outline>
</glyph>
<glyph name="uogonek" format="2">
  <advance width="463"/>
  <unicode hex="0173"/>
  <outline>
    <contour>
      <point x="273" y="-194" type="curve" smooth="yes"/>
      <point x="292" y="-194"/>
      <point x="312" y="-191"/>
      <point x="331" y="-184" type="curve"/>
      <point x="336" y="-135" type="line"/>
      <point x="319" y="-140"/>
      <point x="308" y="-141"/>
      <point x="298" y="-141" type="curve" smooth="yes"/>
      <point x="278" y="-141"/>
      <point x="268" y="-130"/>
      <point x="268" y="-110" type="curve" smooth="yes"/>
      <point x="268" y="-73"/>
      <point x="299" y="-35"/>
      <point x="362" y="4" type="curve"/>
      <point x="355" y="31"/>
      <point x="348" y="57"/>
      <point x="348" y="90" type="curve" smooth="yes"/>
      <point x="348" y="115"/>
      <point x="352" y="147"/>
      <point x="361" y="184" type="curve" smooth="yes"/>
      <point x="442" y="522" type="line"/>
      <point x="373" y="522" type="line"/>
      <point x="295" y="201" type="line" smooth="yes"/>
      <point x="285" y="157"/>
      <point x="279" y="125"/>
      <point x="278" y="98" type="curve"/>
      <point x="248" y="69"/>
      <point x="216" y="49"/>
      <point x="185" y="49" type="curve" smooth="yes"/>
      <point x="115" y="49"/>
      <point x="98" y="100"/>
      <point x="126" y="213" type="curve" smooth="yes"/>
      <point x="201" y="522" type="line"/>
      <point x="131" y="522" type="line"/>
      <point x="55" y="206" type="line" smooth="yes"/>
      <point x="21" y="63"/>
      <point x="65" y="-10"/>
      <point x="164" y="-10" type="curve" smooth="yes"/>
      <point x="207" y="-10"/>
      <point x="250" y="12"/>
      <point x="286" y="40" type="curve"/>
      <point x="288" y="26"/>
      <point x="291" y="14"/>
      <point x="296" y="1" type="curve"/>
      <point x="235" y="-40"/>
      <point x="205" y="-81"/>
      <point x="205" y="-129" type="curve" smooth="yes"/>
      <point x="205" y="-169"/>
      <point x="231" y="-194"/>
    </contour>
  </outline>
</glyph>
<glyph name="bstroke" format="2">
  <advance width="449"/>
  <unicode hex="0180"/>
  <outline>
    <contour>
      <point x="135" y="-10" type="curve" smooth="yes"/>
      <point x="290" y="-10"/>
      <point x="411" y="160"/>
      <point x="411" y="368" type="curve" smooth="yes"/>
      <point x="411" y="468"/>
      <point x="375" y="526"/>
      <point x="292" y="526" type="curve" smooth="yes"/>
      <point x="264" y="526"/>
      <point x="231" y="517"/>
      <point x="199" y="492" type="curve"/>
      <point x="231" y="629" type="line"/>
      <point x="353" y="629" type="line"/>
      <point x="365" y="679" type="line"/>
      <point x="244" y="679" type="line"/>
      <point x="266" y="776" type="line"/>
      <point x="195" y="764" type="line"/>
      <point x="175" y="679" type="line"/>
      <point x="106" y="679" type="line"/>
      <point x="94" y="629" type="line"/>
      <point x="163" y="629" type="line"/>
      <point x="16" y="17" type="line"/>
      <point x="49" y="0"/>
      <point x="100" y="-10"/>
    </contour>
    <contour>
      <point x="155" y="49" type="curve" smooth="yes"/>
      <point x="133" y="49"/>
      <point x="112" y="53"/>
      <point x="95" y="60" type="curve"/>
      <point x="182" y="424" type="line"/>
      <point x="212" y="452"/>
      <point x="246" y="466"/>
      <point x="274" y="466" type="curve" smooth="yes"/>
      <point x="322" y="466"/>
      <point x="341" y="434"/>
      <point x="341" y="363" type="curve" smooth="yes"/>
      <point x="341" y="199"/>
      <point x="252" y="49"/>
    </contour>
  </outline>
</glyph>
<glyph name="tonesix" format="2">
  <advance width="482"/>
  <unicode hex="0185"/>
  <outline>
    <contour>
      <point x="157" y="-7" type="curve" smooth="yes"/>
      <point x="321" y="-7"/>
      <point x="434" y="111"/>
      <point x="434" y="262" type="curve" smooth="yes"/>
      <point x="434" y="370"/>
      <point x="370" y="430"/>
      <point x="255" y="430" type="curve" smooth="yes"/>
      <point x="235" y="430"/>
      <point x="215" y="429"/>
      <point x="194" y="427" type="curve"/>
      <point x="260" y="698" type="line"/>
      <point x="213" y="686"/>
      <point x="165" y="665"/>
      <point x="125" y="641" type="curve"/>
      <point x="157" y="566" type="line"/>
      <point x="24" y="7" type="line"/>
      <point x="66" y="-3"/>
      <point x="117" y="-7"/>
    </contour>
    <contour>
      <point x="168" y="56" type="curve" smooth="yes"/>
      <point x="149" y="56"/>
      <point x="125" y="57"/>
      <point x="107" y="62" type="curve"/>
      <point x="179" y="363" type="line"/>
      <point x="200" y="366"/>
      <point x="220" y="367"/>
      <point x="240" y="367" type="curve" smooth="yes"/>
      <point x="322" y="367"/>
      <point x="358" y="328"/>
      <point x="358" y="264" type="curve" smooth="yes"/>
      <point x="358" y="156"/>
      <point x="289" y="56"/>
    </contour>
  </outline>
</glyph>
<glyph name="Chook" format="2">
  <advance width="492"/>
  <unicode hex="0187"/>
  <outline>
    <contour>
      <point x="245" y="-10" type="curve" smooth="yes"/>
      <point x="299" y="-10"/>
      <point x="346" y="3"/>
      <point x="392" y="31" type="curve"/>
      <point x="385" y="94" type="line"/>
      <point x="345" y="66"/>
      <point x="304" y="52"/>
      <point x="265" y="52" type="curve" smooth="yes"/>
      <point x="186" y="52"/>
      <point x="143" y="100"/>
      <point x="143" y="206" type="curve" smooth="yes"/>
      <point x="143" y="459"/>
      <point x="265" y="642"/>
      <point x="408" y="642" type="curve" smooth="yes"/>
      <point x="438" y="642"/>
      <point x="472" y="635"/>
      <point x="498" y="621" type="curve"/>
      <point x="516" y="657" type="line" smooth="yes"/>
      <point x="540" y="708"/>
      <point x="562" y="723"/>
      <point x="593" y="723" type="curve" smooth="yes"/>
      <point x="604" y="723"/>
      <point x="617" y="720"/>
      <point x="627" y="713" type="curve"/>
      <point x="650" y="772" type="line"/>
      <point x="635" y="779"/>
      <point x="622" y="782"/>
      <point x="603" y="782" type="curve" smooth="yes"/>
      <point x="552" y="782"/>
      <point x="516" y="756"/>
      <point x="483" y="695" type="curve"/>
      <point x="461" y="701"/>
      <point x="438" y="704"/>
      <point x="410" y="704" type="curve" smooth="yes"/>
      <point x="212" y="704"/>
      <point x="68" y="480"/>
      <point x="68" y="206" type="curve" smooth="yes"/>
      <point x="68" y="68"/>
      <point x="127" y="-10"/>
    </contour>
  </outline>
</glyph>
<glyph name="deltaturned" format="2">
  <advance width="440"/>
  <unicode hex="018D"/>
  <outline>
    <contour>
      <point x="117" y="-186" type="curve" smooth="yes"/>
      <point x="227" y="-186"/>
      <point x="291" y="-126"/>
      <point x="291" y="-47" type="curve" smooth="yes"/>
      <point x="291" y="-3"/>
      <point x="265" y="22"/>
      <point x="232" y="48" type="curve"/>
      <point x="358" y="121"/>
      <point x="414" y="249"/>
      <point x="414" y="371" type="curve" smooth="yes"/>
      <point x="414" y="471"/>
      <point x="368" y="534"/>
      <point x="279" y="534" type="curve" smooth="yes"/>
      <point x="147" y="534"/>
      <point x="44" y="395"/>
      <point x="44" y="225" type="curve" smooth="yes"/>
      <point x="44" y="28"/>
      <point x="221" y="33"/>
      <point x="221" y="-55" type="curve" smooth="yes"/>
      <point x="221" y="-101"/>
      <point x="182" y="-128"/>
      <point x="127" y="-128" type="curve" smooth="yes"/>
      <point x="91" y="-128"/>
      <point x="55" y="-120"/>
      <point x="24" y="-107" type="curve"/>
      <point x="1" y="-164" type="line"/>
      <point x="30" y="-177"/>
      <point x="73" y="-186"/>
    </contour>
    <contour>
      <point x="191" y="84" type="curve"/>
      <point x="153" y="115"/>
      <point x="115" y="153"/>
      <point x="115" y="231" type="curve" smooth="yes"/>
      <point x="115" y="368"/>
      <point x="184" y="473"/>
      <point x="266" y="473" type="curve" smooth="yes"/>
      <point x="317" y="473"/>
      <point x="343" y="433"/>
      <point x="343" y="364" type="curve" smooth="yes"/>
      <point x="343" y="263"/>
      <point x="295" y="143"/>
    </contour>
  </outline>
</glyph>
<glyph name="florin" format="2">
  <advance width="330"/>
  <unicode hex="0192"/>
  <outline>
    <contour>
      <point x="-71" y="-189" type="curve" smooth="yes"/>
      <point x="13" y="-189"/>
      <point x="62" y="-142"/>
      <point x="85" y="-42" type="curve" smooth="yes"/>
      <point x="206" y="463" type="line"/>
      <point x="340" y="463" type="line"/>
      <point x="353" y="522" type="line"/>
      <point x="221" y="522" type="line"/>
      <point x="240" y="599" type="line" smooth="yes"/>
      <point x="262" y="691"/>
      <point x="300" y="717"/>
      <point x="347" y="717" type="curve" smooth="yes"/>
      <point x="370" y="717"/>
      <point x="389" y="712"/>
      <point x="406" y="705" type="curve"/>
      <point x="430" y="763" type="line"/>
      <point x="411" y="771"/>
      <point x="385" y="776"/>
      <point x="352" y="776" type="curve" smooth="yes"/>
      <point x="275" y="776"/>
      <point x="203" y="738"/>
      <point x="169" y="597" type="curve" smooth="yes"/>
      <point x="14" y="-42" type="line" smooth="yes"/>
      <point x="-1" y="-105"/>
      <point x="-20" y="-127"/>
      <point x="-60" y="-127" type="curve" smooth="yes"/>
      <point x="-76" y="-127"/>
      <point x="-92" y="-124"/>
      <point x="-104" y="-120" type="curve"/>
      <point x="-127" y="-179" type="line"/>
      <point x="-110" y="-185"/>
      <point x="-90" y="-189"/>
    </contour>
  </outline>
</glyph>
<glyph name="Ghook" format="2">
  <advance width="521"/>
  <unicode hex="0193"/>
  <outline>
    <contour>
      <point x="252" y="-10" type="curve" smooth="yes"/>
      <point x="316" y="-10"/>
      <point x="363" y="4"/>
      <point x="395" y="19" type="curve"/>
      <point x="471" y="336" type="line"/>
      <point x="399" y="336" type="line"/>
      <point x="334" y="66" type="line"/>
      <point x="310" y="56"/>
      <point x="290" y="52"/>
      <point x="261" y="52" type="curve" smooth="yes"/>
      <point x="177" y="52"/>
      <point x="141" y="102"/>
      <point x="141" y="209" type="curve" smooth="yes"/>
      <point x="141" y="450"/>
      <point x="263" y="642"/>
      <point x="409" y="642" type="curve" smooth="yes"/>
      <point x="449" y="642"/>
      <point x="486" y="632"/>
      <point x="513" y="616" type="curve"/>
      <point x="531" y="657" type="line" smooth="yes"/>
      <point x="556" y="709"/>
      <point x="578" y="723"/>
      <point x="609" y="723" type="curve" smooth="yes"/>
      <point x="621" y="723"/>
      <point x="633" y="720"/>
      <point x="642" y="713" type="curve"/>
      <point x="665" y="772" type="line"/>
      <point x="652" y="779"/>
      <point x="638" y="782"/>
      <point x="618" y="782" type="curve" smooth="yes"/>
      <point x="565" y="782"/>
      <point x="532" y="754"/>
      <point x="498" y="693" type="curve"/>
      <point x="474" y="700"/>
      <point x="451" y="704"/>
      <point x="422" y="704" type="curve" smooth="yes"/>
      <point x="218" y="704"/>
      <point x="67" y="485"/>
      <point x="67" y="204" type="curve" smooth="yes"/>
      <point x="67" y="64"/>
      <point x="128" y="-10"/>
    </contour>
  </outline>
</glyph>
<glyph name="Gamma-latin" format="2">
  <advance width="475"/>
  <unicode hex="0194"/>
  <outline>
    <contour>
      <point x="146" y="-185" type="curve" smooth="yes"/>
      <point x="241" y="-185"/>
      <point x="295" y="-96"/>
      <point x="295" y="11" type="curve" smooth="yes"/>
      <point x="295" y="45"/>
      <point x="289" y="80"/>
      <point x="281" y="122" type="curve" smooth="yes"/>
      <point x="266" y="197" type="line"/>
      <point x="366" y="340"/>
      <point x="472" y="501"/>
      <point x="561" y="693" type="curve"/>
      <point x="487" y="693" type="line"/>
      <point x="414" y="534"/>
      <point x="329" y="393"/>
      <point x="247" y="269" type="curve"/>
      <point x="224" y="416"/>
      <point x="207" y="552"/>
      <point x="194" y="693" type="curve"/>
      <point x="121" y="693" type="line"/>
      <point x="139" y="531"/>
      <point x="163" y="373"/>
      <point x="195" y="201" type="curve"/>
      <point x="138" y="124" type="line" smooth="yes"/>
      <point x="77" y="40"/>
      <point x="50" y="-23"/>
      <point x="50" y="-85" type="curve" smooth="yes"/>
      <point x="50" y="-147"/>
      <point x="90" y="-185"/>
    </contour>
    <contour>
      <point x="156" y="-126" type="curve" smooth="yes"/>
      <point x="130" y="-126"/>
      <point x="112" y="-106"/>
      <point x="112" y="-72" type="curve" smooth="yes"/>
      <point x="112" y="-24"/>
      <point x="133" y="24"/>
      <point x="182" y="94" type="curve" smooth="yes"/>
      <point x="218" y="143" type="line"/>
      <point x="226" y="99" type="line" smooth="yes"/>
      <point x="230" y="71"/>
      <point x="235" y="44"/>
      <point x="235" y="18" type="curve" smooth="yes"/>
      <point x="235" y="-61"/>
      <point x="204" y="-126"/>
    </contour>
  </outline>
</glyph>
<glyph name="Istroke" format="2">
  <advance width="256"/>
  <unicode hex="0197"/>
  <outline>
    <contour>
      <point x="29" y="0" type="line"/>
      <point x="101" y="0" type="line"/>
      <point x="182" y="337" type="line"/>
      <point x="258" y="337" type="line"/>
      <point x="271" y="392" type="line"/>
      <point x="195" y="392" type="line"/>
      <point x="267" y="693" type="line"/>
      <point x="195" y="693" type="line"/>
      <point x="123" y="392" type="line"/>
      <point x="47" y="392" type="line"/>
      <point x="35" y="337" type="line"/>
      <point x="110" y="337" type="line"/>
    </contour>
  </outline>
</glyph>
<glyph name="khook" format="2">
  <advance width="410"/>
  <unicode hex="0199"/>
  <outline>
    <contour>
      <point x="13" y="0" type="line"/>
      <point x="82" y="0" type="line"/>
      <point x="143" y="254" type="line"/>
      <point x="186" y="201"/>
      <point x="232" y="115"/>
      <point x="266" y="0" type="curve"/>
      <point x="337" y="0" type="line"/>
      <point x="316" y="84"/>
      <point x="271" y="194"/>
      <point x="208" y="278" type="curve"/>
      <point x="277" y="343"/>
      <point x="388" y="461"/>
      <point x="425" y="522" type="curve"/>
      <point x="351" y="522" type="line"/>
      <point x="320" y="472"/>
      <point x="225" y="365"/>
      <point x="153" y="299" type="curve"/>
      <point x="236" y="641" type="line" smooth="yes"/>
      <point x="249" y="696"/>
      <point x="267" y="718"/>
      <point x="303" y="718" type="curve" smooth="yes"/>
      <point x="313" y="718"/>
      <point x="324" y="716"/>
      <point x="335" y="713" type="curve"/>
      <point x="356" y="768" type="line"/>
      <point x="342" y="774"/>
      <point x="324" y="776"/>
      <point x="309" y="776" type="curve" smooth="yes"/>
      <point x="235" y="776"/>
      <point x="190" y="738"/>
      <point x="167" y="639" type="curve" smooth="yes"/>
    </contour>
  </outline>
</glyph>
<glyph name="lbar" format="2">
  <advance width="248"/>
  <unicode hex="019A"/>
  <outline>
    <contour>
      <point x="158" y="-11" type="curve"/>
      <point x="172" y="47" type="line"/>
      <point x="126" y="54"/>
      <point x="112" y="81"/>
      <point x="112" y="117" type="curve" smooth="yes"/>
      <point x="112" y="143"/>
      <point x="120" y="171"/>
      <point x="125" y="195" type="curve" smooth="yes"/>
      <point x="169" y="377" type="line"/>
      <point x="235" y="377" type="line"/>
      <point x="248" y="426" type="line"/>
      <point x="181" y="426" type="line"/>
      <point x="264" y="776" type="line"/>
      <point x="193" y="764" type="line"/>
      <point x="111" y="426" type="line"/>
      <point x="55" y="426" type="line"/>
      <point x="44" y="377" type="line"/>
      <point x="100" y="377" type="line"/>
      <point x="53" y="185" type="line" smooth="yes"/>
      <point x="47" y="158"/>
      <point x="42" y="130"/>
      <point x="42" y="103" type="curve" smooth="yes"/>
      <point x="42" y="42"/>
      <point x="73" y="-1"/>
    </contour>
  </outline>
</glyph>
<glyph name="ohorn" format="2">
  <advance width="447"/>
  <unicode hex="01A1"/>
  <outline>
    <contour>
      <point x="165" y="-10" type="curve" smooth="yes"/>
      <point x="300" y="-10"/>
      <point x="399" y="177"/>
      <point x="399" y="378" type="curve" smooth="yes"/>
      <point x="399" y="400"/>
      <point x="397" y="421"/>
      <point x="393" y="437" type="curve"/>
      <point x="460" y="488"/>
      <point x="496" y="542"/>
      <point x="502" y="625" type="curve"/>
      <point x="438" y="625" type="line"/>
      <point x="432" y="568"/>
      <point x="412" y="521"/>
      <point x="369" y="485" type="curve"/>
      <point x="349" y="515"/>
      <point x="317" y="534"/>
      <point x="273" y="534" type="curve" smooth="yes"/>
      <point x="137" y="534"/>
      <point x="38" y="349"/>
      <point x="38" y="149" type="curve" smooth="yes"/>
      <point x="38" y="47"/>
      <point x="81" y="-10"/>
    </contour>
    <contour>
      <point x="172" y="49" type="curve" smooth="yes"/>
      <point x="126" y="49"/>
      <point x="109" y="80"/>
      <point x="109" y="148" type="curve" smooth="yes"/>
      <point x="109" y="296"/>
      <point x="176" y="474"/>
      <point x="265" y="474" type="curve" smooth="yes"/>
      <point x="310" y="474"/>
      <point x="328" y="444"/>
      <point x="328" y="379" type="curve" smooth="yes"/>
      <point x="328" y="227"/>
      <point x="261" y="49"/>
    </contour>
  </outline>
</glyph>
<glyph name="Phook" format="2">
  <advance width="526"/>
  <unicode hex="01A4"/>
  <outline>
    <contour>
      <point x="76" y="0" type="line"/>
      <point x="148" y="0" type="line"/>
      <point x="211" y="265" type="line"/>
      <point x="260" y="265" type="line" smooth="yes"/>
      <point x="437" y="265"/>
      <point x="554" y="381"/>
      <point x="554" y="540" type="curve" smooth="yes"/>
      <point x="554" y="646"/>
      <point x="488" y="699"/>
      <point x="367" y="699" type="curve" smooth="yes"/>
      <point x="134" y="699"/>
      <point x="72" y="601"/>
      <point x="69" y="488" type="curve"/>
      <point x="128" y="494" type="line"/>
      <point x="131" y="561"/>
      <point x="159" y="608"/>
      <point x="227" y="626" type="curve"/>
    </contour>
    <contour>
      <point x="227" y="327" type="line"/>
      <point x="299" y="629" type="line"/>
      <point x="329" y="635"/>
      <point x="350" y="636"/>
      <point x="365" y="636" type="curve" smooth="yes"/>
      <point x="438" y="636"/>
      <point x="481" y="607"/>
      <point x="481" y="531" type="curve" smooth="yes"/>
      <point x="481" y="412"/>
      <point x="407" y="327"/>
      <point x="274" y="327" type="curve" smooth="yes"/>
    </contour>
  </outline>
</glyph>
<glyph name="phook" format="2">
  <advance width="451"/>
  <unicode hex="01A5"/>
  <outline>
    <contour>
      <point x="-29" y="-185" type="line"/>
      <point x="40" y="-185" type="line"/>
      <point x="84" y="0" type="line"/>
      <point x="106" y="-7"/>
      <point x="130" y="-11"/>
      <point x="149" y="-11" type="curve" smooth="yes"/>
      <point x="289" y="-11"/>
      <point x="414" y="162"/>
      <point x="414" y="375" type="curve" smooth="yes"/>
      <point x="414" y="478"/>
      <point x="371" y="533"/>
      <point x="272" y="533" type="curve"/>
      <point x="256" y="533"/>
      <point x="234" y="531"/>
      <point x="210" y="524" type="curve"/>
      <point x="240" y="645" type="line" smooth="yes"/>
      <point x="252" y="699"/>
      <point x="274" y="718"/>
      <point x="307" y="718" type="curve" smooth="yes"/>
      <point x="317" y="718"/>
      <point x="331" y="716"/>
      <point x="341" y="713" type="curve"/>
      <point x="361" y="768" type="line"/>
      <point x="346" y="774"/>
      <point x="329" y="776"/>
      <point x="313" y="776" type="curve" smooth="yes"/>
      <point x="239" y="776"/>
      <point x="194" y="741"/>
      <point x="170" y="645" type="curve" smooth="yes"/>
    </contour>
    <contour>
      <point x="158" y="49" type="curve" smooth="yes"/>
      <point x="138" y="49"/>
      <point x="116" y="51"/>
      <point x="99" y="59" type="curve"/>
      <point x="195" y="460" type="line"/>
      <point x="215" y="469"/>
      <point x="242" y="474"/>
      <point x="266" y="474" type="curve" smooth="yes"/>
      <point x="319" y="474"/>
      <point x="344" y="441"/>
      <point x="344" y="370" type="curve" smooth="yes"/>
      <point x="344" y="200"/>
      <point x="253" y="49"/>
    </contour>
  </outline>
</glyph>
<glyph name="Yr" format="2">
  <advance width="510"/>
  <unicode hex="01A6"/>
  <outline>
    <contour>
      <point x="341" y="-108" type="curve"/>
      <point x="415" y="-108" type="line"/>
      <point x="392" y="56"/>
      <point x="369" y="187"/>
      <point x="329" y="297" type="curve"/>
      <point x="443" y="348"/>
      <point x="494" y="438"/>
      <point x="494" y="544" type="curve" smooth="yes"/>
      <point x="494" y="644"/>
      <point x="435" y="699"/>
      <point x="323" y="699" type="curve" smooth="yes"/>
      <point x="304" y="699"/>
      <point x="280" y="697"/>
      <point x="261" y="695" type="curve"/>
      <point x="280" y="777" type="line"/>
      <point x="206" y="777" type="line"/>
      <point x="20" y="0" type="line"/>
      <point x="92" y="0" type="line"/>
      <point x="158" y="274" type="line"/>
      <point x="218" y="274" type="line" smooth="yes"/>
      <point x="229" y="274"/>
      <point x="241" y="275"/>
      <point x="261" y="277" type="curve"/>
      <point x="300" y="168"/>
      <point x="325" y="17"/>
    </contour>
    <contour>
      <point x="173" y="335" type="line"/>
      <point x="244" y="630" type="line"/>
      <point x="264" y="634"/>
      <point x="290" y="637"/>
      <point x="311" y="637" type="curve" smooth="yes"/>
      <point x="382" y="637"/>
      <point x="420" y="603"/>
      <point x="420" y="534" type="curve" smooth="yes"/>
      <point x="420" y="419"/>
      <point x="346" y="335"/>
      <point x="224" y="335" type="curve" smooth="yes"/>
    </contour>
  </outline>
</glyph>
<glyph name="Tonetwo" format="2">
  <advance width="389"/>
  <unicode hex="01A7"/>
  <outline>
    <contour>
      <point x="157" y="-11" type="curve" smooth="yes"/>
      <point x="206" y="-11"/>
      <point x="259" y="0"/>
      <point x="303" y="22" type="curve"/>
      <point x="295" y="84" type="line"/>
      <point x="256" y="63"/>
      <point x="216" y="51"/>
      <point x="174" y="51" type="curve" smooth="yes"/>
      <point x="113" y="51"/>
      <point x="79" y="84"/>
      <point x="79" y="140" type="curve" smooth="yes"/>
      <point x="79" y="238"/>
      <point x="149" y="285"/>
      <point x="239" y="337" type="curve" smooth="yes"/>
      <point x="334" y="392"/>
      <point x="414" y="454"/>
      <point x="414" y="570" type="curve" smooth="yes"/>
      <point x="414" y="651"/>
      <point x="359" y="704"/>
      <point x="268" y="704" type="curve" smooth="yes"/>
      <point x="222" y="704"/>
      <point x="173" y="694"/>
      <point x="133" y="676" type="curve"/>
      <point x="141" y="617" type="line"/>
      <point x="178" y="634"/>
      <point x="217" y="642"/>
      <point x="251" y="642" type="curve" smooth="yes"/>
      <point x="305" y="642"/>
      <point x="341" y="613"/>
      <point x="341" y="561" type="curve" smooth="yes"/>
      <point x="341" y="481"/>
      <point x="284" y="439"/>
      <point x="190" y="385" type="curve" smooth="yes"/>
      <point x="96" y="330"/>
      <point x="7" y="265"/>
      <point x="7" y="134" type="curve" smooth="yes"/>
      <point x="7" y="46"/>
      <point x="61" y="-11"/>
    </contour>
  </outline>
</glyph>
<glyph name="tpalatalhook" format="2">
  <advance width="313"/>
  <unicode hex="01AB"/>
  <outline>
    <contour>
      <point x="94" y="-187" type="curve" smooth="yes"/>
      <point x="209" y="-187"/>
      <point x="241" y="-30"/>
      <point x="241" y="65" type="curve"/>
      <point x="220" y="54"/>
      <point x="196" y="48"/>
      <point x="169" y="48" type="curve" smooth="yes"/>
      <point x="129" y="48"/>
      <point x="109" y="69"/>
      <point x="109" y="111" type="curve" smooth="yes"/>
      <point x="109" y="127"/>
      <point x="112" y="145"/>
      <point x="117" y="167" type="curve" smooth="yes"/>
      <point x="188" y="464" type="line"/>
      <point x="324" y="464" type="line"/>
      <point x="338" y="522" type="line"/>
      <point x="202" y="522" type="line"/>
      <point x="240" y="681" type="line"/>
      <point x="169" y="669" type="line"/>
      <point x="49" y="169" type="line" smooth="yes"/>
      <point x="42" y="142"/>
      <point x="39" y="118"/>
      <point x="39" y="96" type="curve" smooth="yes"/>
      <point x="39" y="29"/>
      <point x="72" y="-9"/>
      <point x="140" y="-12" type="curve" smooth="yes"/>
      <point x="152" y="-12"/>
      <point x="163" y="-10"/>
      <point x="172" y="-8" type="curve"/>
      <point x="163" y="-75"/>
      <point x="143" y="-133"/>
      <point x="98" y="-133" type="curve" smooth="yes"/>
      <point x="83" y="-133"/>
      <point x="68" y="-131"/>
      <point x="57" y="-126" type="curve"/>
      <point x="39" y="-177" type="line"/>
      <point x="54" y="-184"/>
      <point x="76" y="-187"/>
    </contour>
  </outline>
</glyph>
<glyph name="thook" format="2">
  <advance width="313"/>
  <unicode hex="01AD"/>
  <outline>
    <contour>
      <point x="152" y="-12" type="curve" smooth="yes"/>
      <point x="185" y="-12"/>
      <point x="218" y="-5"/>
      <point x="245" y="7" type="curve"/>
      <point x="238" y="64" type="line"/>
      <point x="216" y="54"/>
      <point x="191" y="48"/>
      <point x="169" y="48" type="curve" smooth="yes"/>
      <point x="129" y="48"/>
      <point x="109" y="69"/>
      <point x="109" y="111" type="curve" smooth="yes"/>
      <point x="109" y="127"/>
      <point x="112" y="145"/>
      <point x="117" y="167" type="curve" smooth="yes"/>
      <point x="188" y="464" type="line"/>
      <point x="324" y="464" type="line"/>
      <point x="338" y="522" type="line"/>
      <point x="202" y="522" type="line"/>
      <point x="221" y="602" type="line" smooth="yes"/>
      <point x="240" y="680"/>
      <point x="270" y="717"/>
      <point x="326" y="717" type="curve" smooth="yes"/>
      <point x="346" y="717"/>
      <point x="368" y="712"/>
      <point x="381" y="704" type="curve"/>
      <point x="404" y="761" type="line"/>
      <point x="388" y="769"/>
      <point x="359" y="776"/>
      <point x="330" y="776" type="curve" smooth="yes"/>
      <point x="238" y="776"/>
      <point x="180" y="716"/>
      <point x="152" y="598" type="curve" smooth="yes"/>
      <point x="49" y="169" type="line" smooth="yes"/>
      <point x="42" y="142"/>
      <point x="39" y="118"/>
      <point x="39" y="96" type="curve" smooth="yes"/>
      <point x="39" y="26"/>
      <point x="74" y="-12"/>
    </contour>
  </outline>
</glyph>
<glyph name="Upsilon-latin" format="2">
  <advance width="587"/>
  <unicode hex="01B1"/>
  <outline>
    <contour>
      <point x="238" y="-11" type="curve" smooth="yes"/>
      <point x="416" y="-11"/>
      <point x="549" y="227"/>
      <point x="549" y="435" type="curve" smooth="yes"/>
      <point x="549" y="515"/>
      <point x="530" y="582"/>
      <point x="499" y="632" type="curve"/>
      <point x="619" y="632" type="line"/>
      <point x="634" y="693" type="line"/>
      <point x="432" y="693" type="line"/>
      <point x="421" y="648" type="line"/>
      <point x="459" y="597"/>
      <point x="479" y="538"/>
      <point x="479" y="453" type="curve" smooth="yes"/>
      <point x="479" y="276"/>
      <point x="380" y="51"/>
      <point x="247" y="51" type="curve" smooth="yes"/>
      <point x="172" y="51"/>
      <point x="146" y="111"/>
      <point x="146" y="210" type="curve" smooth="yes"/>
      <point x="146" y="371"/>
      <point x="247" y="572"/>
      <point x="354" y="648" type="curve"/>
      <point x="366" y="693" type="line"/>
      <point x="160" y="693" type="line"/>
      <point x="144" y="632" type="line"/>
      <point x="259" y="632" type="line"/>
      <point x="146" y="519"/>
      <point x="72" y="352"/>
      <point x="72" y="203" type="curve" smooth="yes"/>
      <point x="72" y="71"/>
      <point x="123" y="-11"/>
    </contour>
  </outline>
</glyph>
<glyph name="yhook" format="2">
  <advance width="454"/>
  <unicode hex="01B4"/>
  <outline>
    <contour>
      <point x="-30" y="-188" type="curve" smooth="yes"/>
      <point x="50" y="-188"/>
      <point x="105" y="-135"/>
      <point x="190" y="5" type="curve" smooth="yes"/>
      <point x="258" y="117"/>
      <point x="322" y="258"/>
      <point x="374" y="398" type="curve" smooth="yes"/>
      <point x="396" y="456"/>
      <point x="417" y="473"/>
      <point x="443" y="473" type="curve" smooth="yes"/>
      <point x="458" y="473"/>
      <point x="469" y="468"/>
      <point x="478" y="461" type="curve"/>
      <point x="506" y="511" type="line"/>
      <point x="491" y="523"/>
      <point x="469" y="529"/>
      <point x="445" y="529" type="curve" smooth="yes"/>
      <point x="392" y="529"/>
      <point x="353" y="508"/>
      <point x="317" y="415" type="curve" smooth="yes"/>
      <point x="279" y="313"/>
      <point x="229" y="190"/>
      <point x="167" y="73" type="curve"/>
      <point x="145" y="230"/>
      <point x="137" y="395"/>
      <point x="147" y="522" type="curve"/>
      <point x="79" y="522" type="line"/>
      <point x="70" y="347"/>
      <point x="80" y="186"/>
      <point x="114" y="-4" type="curve"/>
      <point x="59" y="-93"/>
      <point x="12" y="-128"/>
      <point x="-28" y="-128" type="curve" smooth="yes"/>
      <point x="-42" y="-128"/>
      <point x="-57" y="-125"/>
      <point x="-70" y="-119" type="curve"/>
      <point x="-89" y="-175" type="line"/>
      <point x="-73" y="-184"/>
      <point x="-52" y="-188"/>
    </contour>
  </outline>
</glyph>
<glyph name="Ezh" format="2">
  <advance width="409"/>
  <unicode hex="01B7"/>
  <anchor x="118" y="0" name="bottom"/>
  <anchor x="286" y="677" name="top"/>
  <outline>
    <contour>
      <point x="103" y="-13" type="curve" smooth="yes"/>
      <point x="256" y="-13"/>
      <point x="350" y="107"/>
      <point x="350" y="238" type="curve" smooth="yes"/>
      <point x="350" y="314"/>
      <point x="313" y="375"/>
      <point x="216" y="389" type="curve"/>
      <point x="306" y="489"/>
      <point x="373" y="572"/>
      <point x="432" y="644" type="curve"/>
      <point x="444" y="693" type="line"/>
      <point x="144" y="693" type="line"/>
      <point x="129" y="631" type="line"/>
      <point x="348" y="631" type="line"/>
      <point x="286" y="556"/>
      <point x="211" y="462"/>
      <point x="137" y="381" type="curve"/>
      <point x="126" y="338" type="line"/>
      <point x="160" y="338" type="line" smooth="yes"/>
      <point x="241" y="338"/>
      <point x="278" y="299"/>
      <point x="278" y="229" type="curve" smooth="yes"/>
      <point x="278" y="128"/>
      <point x="206" y="49"/>
      <point x="110" y="49" type="curve" smooth="yes"/>
      <point x="65" y="49"/>
      <point x="31" y="58"/>
      <point x="-9" y="82" type="curve"/>
      <point x="-34" y="24" type="line"/>
      <point x="3" y="-1"/>
      <point x="50" y="-13"/>
    </contour>
  </outline>
</glyph>
<glyph name="Ezhreversed" format="2">
  <advance width="409"/>
  <unicode hex="01B8"/>
  <outline>
    <contour>
      <point x="182" y="-13" type="curve" smooth="yes"/>
      <point x="230" y="-13"/>
      <point x="282" y="-5"/>
      <point x="324" y="17" type="curve"/>
      <point x="322" y="75" type="line"/>
      <point x="278" y="55"/>
      <point x="240" y="49"/>
      <point x="197" y="49" type="curve" smooth="yes"/>
      <point x="140" y="49"/>
      <point x="95" y="81"/>
      <point x="95" y="156" type="curve" smooth="yes"/>
      <point x="95" y="256"/>
      <point x="152" y="338"/>
      <point x="283" y="338" type="curve" smooth="yes"/>
      <point x="316" y="338" type="line"/>
      <point x="325" y="381" type="line"/>
      <point x="289" y="463"/>
      <point x="255" y="555"/>
      <point x="228" y="631" type="curve"/>
      <point x="452" y="631" type="line"/>
      <point x="467" y="693" type="line"/>
      <point x="169" y="693" type="line"/>
      <point x="157" y="644" type="line"/>
      <point x="181" y="572"/>
      <point x="215" y="491"/>
      <point x="258" y="392" type="curve"/>
      <point x="97" y="374"/>
      <point x="22" y="267"/>
      <point x="22" y="147" type="curve" smooth="yes"/>
      <point x="22" y="47"/>
      <point x="82" y="-13"/>
    </contour>
  </outline>
</glyph>
<glyph name="ezhreversed" format="2">
  <advance width="335"/>
  <unicode hex="01B9"/>
  <outline>
    <contour>
      <point x="113" y="-187" type="curve" smooth="yes"/>
      <point x="154" y="-187"/>
      <point x="194" y="-179"/>
      <point x="230" y="-162" type="curve"/>
      <point x="227" y="-106" type="line"/>
      <point x="196" y="-120"/>
      <point x="165" y="-126"/>
      <point x="133" y="-126" type="curve" smooth="yes"/>
      <point x="83" y="-126"/>
      <point x="36" y="-100"/>
      <point x="36" y="-23" type="curve" smooth="yes"/>
      <point x="36" y="81"/>
      <point x="97" y="170"/>
      <point x="216" y="170" type="curve" smooth="yes"/>
      <point x="240" y="170" type="line"/>
      <point x="250" y="211" type="line"/>
      <point x="220" y="294"/>
      <point x="189" y="382"/>
      <point x="165" y="463" type="curve"/>
      <point x="360" y="463" type="line"/>
      <point x="374" y="522" type="line"/>
      <point x="112" y="522" type="line"/>
      <point x="98" y="469" type="line"/>
      <point x="122" y="398"/>
      <point x="150" y="316"/>
      <point x="183" y="222" type="curve"/>
      <point x="36" y="205"/>
      <point x="-34" y="88"/>
      <point x="-34" y="-29" type="curve" smooth="yes"/>
      <point x="-34" y="-131"/>
      <point x="29" y="-187"/>
    </contour>
  </outline>
</glyph>
<glyph name="ezhtail" format="2">
  <advance width="343"/>
  <unicode hex="01BA"/>
  <outline>
    <contour>
      <point x="-83" y="-188" type="curve"/>
      <point x="-24" y="-174" type="line"/>
      <point x="-27" y="-166"/>
      <point x="-28" y="-157"/>
      <point x="-28" y="-148" type="curve" smooth="yes"/>
      <point x="-28" y="-104"/>
      <point x="-12" y="-72"/>
      <point x="96" y="-38" type="curve" smooth="yes"/>
      <point x="223" y="1"/>
      <point x="271" y="72"/>
      <point x="271" y="164" type="curve" smooth="yes"/>
      <point x="271" y="228"/>
      <point x="230" y="263"/>
      <point x="156" y="277" type="curve"/>
      <point x="218" y="342"/>
      <point x="275" y="404"/>
      <point x="333" y="471" type="curve"/>
      <point x="345" y="522" type="line"/>
      <point x="76" y="522" type="line"/>
      <point x="61" y="464" type="line"/>
      <point x="256" y="464" type="line"/>
      <point x="208" y="408"/>
      <point x="145" y="336"/>
      <point x="88" y="278" type="curve"/>
      <point x="79" y="233" type="line"/>
      <point x="144" y="230"/>
      <point x="203" y="217"/>
      <point x="203" y="156" type="curve" smooth="yes"/>
      <point x="203" y="94"/>
      <point x="172" y="40"/>
      <point x="66" y="8" type="curve" smooth="yes"/>
      <point x="-48" y="-28"/>
      <point x="-88" y="-67"/>
      <point x="-88" y="-150" type="curve" smooth="yes"/>
      <point x="-88" y="-164"/>
      <point x="-87" y="-177"/>
    </contour>
  </outline>
</glyph>
<glyph name="twostroke" format="2">
  <advance width="430"/>
  <unicode hex="01BB"/>
  <outline>
    <contour>
      <point x="12" y="0" type="curve"/>
      <point x="314" y="0" type="line"/>
      <point x="329" y="62" type="line"/>
      <point x="97" y="62" type="line"/>
      <point x="118" y="141"/>
      <point x="173" y="224"/>
      <point x="251" y="301" type="curve" smooth="yes"/>
      <point x="275" y="325" type="line"/>
      <point x="386" y="325" type="line"/>
      <point x="400" y="382" type="line"/>
      <point x="325" y="382" type="line"/>
      <point x="377" y="446"/>
      <point x="405" y="507"/>
      <point x="405" y="571" type="curve" smooth="yes"/>
      <point x="405" y="656"/>
      <point x="359" y="707"/>
      <point x="278" y="707" type="curve" smooth="yes"/>
      <point x="219" y="707"/>
      <point x="167" y="688"/>
      <point x="124" y="651" type="curve"/>
      <point x="148" y="603" type="line"/>
      <point x="183" y="631"/>
      <point x="220" y="646"/>
      <point x="258" y="646" type="curve" smooth="yes"/>
      <point x="305" y="646"/>
      <point x="334" y="617"/>
      <point x="334" y="556" type="curve" smooth="yes"/>
      <point x="334" y="499"/>
      <point x="305" y="445"/>
      <point x="249" y="382" type="curve"/>
      <point x="100" y="382" type="line"/>
      <point x="86" y="325" type="line"/>
      <point x="197" y="325" type="line"/>
      <point x="178" y="306" type="line" smooth="yes"/>
      <point x="94" y="223"/>
      <point x="27" y="115"/>
    </contour>
  </outline>
</glyph>
<glyph name="glottalinvertedstroke" format="2">
  <advance width="342"/>
  <unicode hex="01BE"/>
  <outline>
    <contour>
      <point x="95" y="-11" type="curve"/>
      <point x="200" y="-11"/>
      <point x="277" y="60"/>
      <point x="277" y="160" type="curve" smooth="yes"/>
      <point x="277" y="216"/>
      <point x="260" y="242"/>
      <point x="207" y="286" type="curve" smooth="yes"/>
      <point x="166" y="319"/>
      <point x="147" y="340"/>
      <point x="147" y="372" type="curve" smooth="yes"/>
      <point x="147" y="380"/>
      <point x="148" y="388"/>
      <point x="150" y="397" type="curve" smooth="yes"/>
      <point x="166" y="464" type="line"/>
      <point x="302" y="464" type="line"/>
      <point x="316" y="522" type="line"/>
      <point x="180" y="522" type="line"/>
      <point x="218" y="681" type="line"/>
      <point x="146" y="669" type="line"/>
      <point x="79" y="393" type="line" smooth="yes"/>
      <point x="76" y="379"/>
      <point x="75" y="367"/>
      <point x="75" y="356" type="curve" smooth="yes"/>
      <point x="75" y="309"/>
      <point x="103" y="278"/>
      <point x="146" y="246" type="curve" smooth="yes"/>
      <point x="193" y="210"/>
      <point x="208" y="189"/>
      <point x="208" y="151" type="curve" smooth="yes"/>
      <point x="208" y="91"/>
      <point x="168" y="47"/>
      <point x="101" y="47" type="curve" smooth="yes"/>
      <point x="73" y="47"/>
      <point x="39" y="55"/>
      <point x="10" y="69" type="curve"/>
      <point x="-14" y="13" type="line"/>
      <point x="16" y="-2"/>
      <point x="56" y="-11"/>
    </contour>
  </outline>
</glyph>
<glyph name="oogonek" format="2">
  <advance width="438"/>
  <unicode hex="01EB"/>
  <anchor x="279" y="522" name="top"/>
  <outline>
    <contour>
      <point x="155" y="-194" type="curve" smooth="yes"/>
      <point x="173" y="-194"/>
      <point x="193" y="-191"/>
      <point x="213" y="-184" type="curve"/>
      <point x="218" y="-135" type="line"/>
      <point x="201" y="-140"/>
      <point x="190" y="-141"/>
      <point x="178" y="-141" type="curve" smooth="yes"/>
      <point x="159" y="-141"/>
      <point x="149" y="-130"/>
      <point x="149" y="-110" type="curve" smooth="yes"/>
      <point x="149" y="-73"/>
      <point x="175" y="-30"/>
      <point x="240" y="10" type="curve"/>
      <point x="337" y="67"/>
      <point x="399" y="216"/>
      <point x="399" y="378" type="curve" smooth="yes"/>
      <point x="399" y="477"/>
      <point x="355" y="534"/>
      <point x="273" y="534" type="curve" smooth="yes"/>
      <point x="137" y="534"/>
      <point x="38" y="349"/>
      <point x="38" y="149" type="curve" smooth="yes"/>
      <point x="38" y="52"/>
      <point x="76" y="-3"/>
      <point x="151" y="-9" type="curve" smooth="yes"/>
      <point x="152" y="-9"/>
      <point x="155" y="-9"/>
      <point x="157" y="-9" type="curve"/>
      <point x="111" y="-47"/>
      <point x="86" y="-87"/>
      <point x="86" y="-129" type="curve" smooth="yes"/>
      <point x="86" y="-169"/>
      <point x="112" y="-194"/>
    </contour>
    <contour>
      <point x="172" y="49" type="curve" smooth="yes"/>
      <point x="126" y="49"/>
      <point x="109" y="80"/>
      <point x="109" y="148" type="curve" smooth="yes"/>
      <point x="109" y="296"/>
      <point x="176" y="474"/>
      <point x="265" y="474" type="curve" smooth="yes"/>
      <point x="310" y="474"/>
      <point x="328" y="444"/>
      <point x="328" y="379" type="curve" smooth="yes"/>
      <point x="328" y="227"/>
      <point x="261" y="49"/>
    </contour>
  </outline>
</glyph>
<glyph name="Hwair" format="2">
  <advance width="807"/>
  <unicode hex="01F6"/>
  <outline>
    <contour>
      <point x="512" y="-10" type="curve" smooth="yes"/>
      <point x="624" y="-10"/>
      <point x="690" y="54"/>
      <point x="721" y="184" type="curve" smooth="yes"/>
      <point x="803" y="525" type="line"/>
      <point x="731" y="525" type="line"/>
      <point x="650" y="187" type="line" smooth="yes"/>
      <point x="628" y="94"/>
      <point x="589" y="54"/>
      <point x="521" y="54" type="curve" smooth="yes"/>
      <point x="467" y="54"/>
      <point x="442" y="75"/>
      <point x="442" y="124" type="curve" smooth="yes"/>
      <point x="442" y="141"/>
      <point x="445" y="162"/>
      <point x="451" y="186" type="curve" smooth="yes"/>
      <point x="573" y="693" type="line"/>
      <point x="501" y="693" type="line"/>
      <point x="430" y="393" type="line"/>
      <point x="186" y="393" type="line"/>
      <point x="258" y="693" type="line"/>
      <point x="186" y="693" type="line"/>
      <point x="20" y="0" type="line"/>
      <point x="92" y="0" type="line"/>
      <point x="171" y="330" type="line"/>
      <point x="414" y="330" type="line"/>
      <point x="380" y="188" type="line" smooth="yes"/>
      <point x="373" y="162"/>
      <point x="370" y="137"/>
      <point x="370" y="115" type="curve" smooth="yes"/>
      <point x="370" y="30"/>
      <point x="419" y="-10"/>
    </contour>
  </outline>
</glyph>
<glyph name="Wynn" format="2">
  <advance width="508"/>
  <unicode hex="01F7"/>
  <outline>
    <contour>
      <point x="-25" y="-185" type="line"/>
      <point x="46" y="-185" type="line"/>
      <point x="91" y="2" type="line"/>
      <point x="342" y="80"/>
      <point x="511" y="289"/>
      <point x="511" y="514" type="curve" smooth="yes"/>
      <point x="511" y="630"/>
      <point x="451" y="699"/>
      <point x="351" y="699" type="curve" smooth="yes"/>
      <point x="296" y="699"/>
      <point x="239" y="687"/>
      <point x="179" y="667" type="curve"/>
    </contour>
    <contour>
      <point x="108" y="73" type="curve"/>
      <point x="240" y="624" type="line"/>
      <point x="269" y="633"/>
      <point x="298" y="637"/>
      <point x="331" y="637" type="curve" smooth="yes"/>
      <point x="395" y="637"/>
      <point x="434" y="591"/>
      <point x="434" y="505" type="curve" smooth="yes"/>
      <point x="434" y="323"/>
      <point x="306" y="138"/>
    </contour>
  </outline>
</glyph>
<glyph name="Yogh" format="2">
  <advance width="409"/>
  <unicode hex="021C"/>
  <outline>
    <contour>
      <point x="-10" y="-185" type="curve" smooth="yes"/>
      <point x="188" y="-185"/>
      <point x="331" y="-44"/>
      <point x="331" y="144" type="curve" smooth="yes"/>
      <point x="331" y="212"/>
      <point x="300" y="268"/>
      <point x="243" y="296" type="curve"/>
      <point x="350" y="341"/>
      <point x="406" y="459"/>
      <point x="406" y="556" type="curve" smooth="yes"/>
      <point x="406" y="648"/>
      <point x="353" y="704"/>
      <point x="260" y="704" type="curve" smooth="yes"/>
      <point x="216" y="704"/>
      <point x="166" y="694"/>
      <point x="115" y="669" type="curve"/>
      <point x="124" y="612" type="line"/>
      <point x="164" y="633"/>
      <point x="202" y="641"/>
      <point x="237" y="641" type="curve" smooth="yes"/>
      <point x="301" y="641"/>
      <point x="332" y="607"/>
      <point x="332" y="546" type="curve" smooth="yes"/>
      <point x="332" y="434"/>
      <point x="253" y="328"/>
      <point x="151" y="328" type="curve" smooth="yes"/>
      <point x="107" y="328" type="line"/>
      <point x="92" y="266" type="line"/>
      <point x="138" y="266" type="line" smooth="yes"/>
      <point x="213" y="266"/>
      <point x="257" y="217"/>
      <point x="257" y="137" type="curve" smooth="yes"/>
      <point x="257" y="1"/>
      <point x="163" y="-120"/>
      <point x="-4" y="-120" type="curve" smooth="yes"/>
      <point x="-26" y="-120"/>
      <point x="-45" y="-119"/>
      <point x="-64" y="-116" type="curve"/>
      <point x="-81" y="-180" type="line"/>
      <point x="-57" y="-184"/>
      <point x="-31" y="-185"/>
    </contour>
  </outline>
</glyph>
<glyph name="yogh" format="2">
  <advance width="339"/>
  <unicode hex="021D"/>
  <outline>
    <contour>
      <point x="-91" y="-185" type="line"/>
      <point x="128" y="-185"/>
      <point x="255" y="-79"/>
      <point x="255" y="80" type="curve" smooth="yes"/>
      <point x="255" y="136"/>
      <point x="233" y="181"/>
      <point x="186" y="205" type="curve"/>
      <point x="283" y="250"/>
      <point x="311" y="339"/>
      <point x="311" y="404" type="curve" smooth="yes"/>
      <point x="311" y="482"/>
      <point x="268" y="533"/>
      <point x="182" y="533" type="curve" smooth="yes"/>
      <point x="143" y="533"/>
      <point x="102" y="520"/>
      <point x="62" y="503" type="curve"/>
      <point x="68" y="449" type="line"/>
      <point x="102" y="464"/>
      <point x="133" y="471"/>
      <point x="161" y="471" type="curve" smooth="yes"/>
      <point x="214" y="471"/>
      <point x="239" y="442"/>
      <point x="239" y="390" type="curve" smooth="yes"/>
      <point x="239" y="300"/>
      <point x="180" y="230"/>
      <point x="102" y="230" type="curve" smooth="yes"/>
      <point x="70" y="230" type="line"/>
      <point x="58" y="172" type="line"/>
      <point x="92" y="172" type="line" smooth="yes"/>
      <point x="153" y="172"/>
      <point x="184" y="139"/>
      <point x="184" y="79" type="curve" smooth="yes"/>
      <point x="184" y="-42"/>
      <point x="101" y="-123"/>
      <point x="-80" y="-126" type="curve"/>
    </contour>
  </outline>
</glyph>
<glyph name="Nlongrightleg" format="2">
  <advance width="528"/>
  <unicode hex="0220"/>
  <outline>
    <contour>
      <point x="271" y="-185" type="line"/>
      <point x="344" y="-185" type="line"/>
      <point x="500" y="464" type="line" smooth="yes"/>
      <point x="509" y="499"/>
      <point x="513" y="530"/>
      <point x="513" y="557" type="curve" smooth="yes"/>
      <point x="513" y="655"/>
      <point x="458" y="703"/>
      <point x="350" y="703" type="curve" smooth="yes"/>
      <point x="300" y="703"/>
      <point x="239" y="694"/>
      <point x="182" y="677" type="curve"/>
      <point x="19" y="0" type="line"/>
      <point x="91" y="0" type="line"/>
      <point x="242" y="628" type="line"/>
      <point x="271" y="636"/>
      <point x="305" y="641"/>
      <point x="335" y="641" type="curve" smooth="yes"/>
      <point x="408" y="641"/>
      <point x="440" y="613"/>
      <point x="440" y="548" type="curve" smooth="yes"/>
      <point x="440" y="524"/>
      <point x="435" y="495"/>
      <point x="426" y="459" type="curve" smooth="yes"/>
    </contour>
  </outline>
</glyph>
<glyph name="OU" format="2">
  <advance width="528"/>
  <unicode hex="0222"/>
  <outline>
    <contour>
      <point x="210" y="-10" type="curve"/>
      <point x="374" y="-10"/>
      <point x="464" y="99"/>
      <point x="464" y="240" type="curve" smooth="yes"/>
      <point x="464" y="294"/>
      <point x="450" y="349"/>
      <point x="388" y="378" type="curve"/>
      <point x="495" y="426"/>
      <point x="519" y="558"/>
      <point x="519" y="650" type="curve" smooth="yes"/>
      <point x="519" y="665"/>
      <point x="518" y="680"/>
      <point x="517" y="693" type="curve"/>
      <point x="451" y="693" type="line"/>
      <point x="449" y="568"/>
      <point x="432" y="410"/>
      <point x="298" y="410" type="curve" smooth="yes"/>
      <point x="250" y="410"/>
      <point x="214" y="427"/>
      <point x="214" y="492" type="curve" smooth="yes"/>
      <point x="214" y="538"/>
      <point x="232" y="600"/>
      <point x="277" y="693" type="curve"/>
      <point x="209" y="693" type="line"/>
      <point x="172" y="626"/>
      <point x="144" y="552"/>
      <point x="144" y="486" type="curve" smooth="yes"/>
      <point x="144" y="444"/>
      <point x="157" y="406"/>
      <point x="191" y="382" type="curve"/>
      <point x="76" y="338"/>
      <point x="30" y="233"/>
      <point x="30" y="151" type="curve" smooth="yes"/>
      <point x="30" y="49"/>
      <point x="100" y="-10"/>
    </contour>
    <contour>
      <point x="219" y="52" type="curve"/>
      <point x="146" y="52"/>
      <point x="104" y="90"/>
      <point x="104" y="159" type="curve" smooth="yes"/>
      <point x="104" y="250"/>
      <point x="162" y="344"/>
      <point x="281" y="344" type="curve" smooth="yes"/>
      <point x="359" y="344"/>
      <point x="390" y="301"/>
      <point x="390" y="233" type="curve" smooth="yes"/>
      <point x="390" y="150"/>
      <point x="342" y="52"/>
    </contour>
  </outline>
</glyph>
<glyph name="Zhook" format="2">
  <advance width="426"/>
  <unicode hex="0224"/>
  <outline>
    <contour>
      <point x="190" y="-187" type="curve" smooth="yes"/>
      <point x="272" y="-187"/>
      <point x="306" y="-94"/>
      <point x="326" y="-6" type="curve" smooth="yes"/>
      <point x="343" y="62" type="line"/>
      <point x="85" y="62" type="line"/>
      <point x="211" y="271"/>
      <point x="337" y="460"/>
      <point x="476" y="633" type="curve"/>
      <point x="490" y="693" type="line"/>
      <point x="166" y="693" type="line"/>
      <point x="152" y="631" type="line"/>
      <point x="394" y="631" type="line"/>
      <point x="233" y="422"/>
      <point x="109" y="235"/>
      <point x="-2" y="49" type="curve"/>
      <point x="-14" y="0" type="line"/>
      <point x="264" y="0" type="line"/>
      <point x="263" y="-3" type="line"/>
      <point x="249" y="-68"/>
      <point x="228" y="-131"/>
      <point x="190" y="-131" type="curve" smooth="yes"/>
      <point x="175" y="-131"/>
      <point x="165" y="-128"/>
      <point x="154" y="-124" type="curve"/>
      <point x="136" y="-177" type="line"/>
      <point x="152" y="-184"/>
      <point x="172" y="-187"/>
    </contour>
  </outline>
</glyph>
<glyph name="zhook" format="2">
  <advance width="335"/>
  <unicode hex="0225"/>
  <outline>
    <contour>
      <point x="114" y="-186" type="curve" smooth="yes"/>
      <point x="197" y="-186"/>
      <point x="232" y="-94"/>
      <point x="253" y="-6" type="curve" smooth="yes"/>
      <point x="267" y="59" type="line"/>
      <point x="63" y="59" type="line"/>
      <point x="145" y="198"/>
      <point x="257" y="355"/>
      <point x="351" y="468" type="curve"/>
      <point x="363" y="522" type="line"/>
      <point x="102" y="522" type="line"/>
      <point x="88" y="463" type="line"/>
      <point x="273" y="463" type="line"/>
      <point x="162" y="328"/>
      <point x="60" y="177"/>
      <point x="-14" y="51" type="curve"/>
      <point x="-25" y="0" type="line"/>
      <point x="194" y="0" type="line"/>
      <point x="193" y="-5" type="line"/>
      <point x="178" y="-72"/>
      <point x="156" y="-132"/>
      <point x="118" y="-132" type="curve" smooth="yes"/>
      <point x="102" y="-132"/>
      <point x="92" y="-130"/>
      <point x="79" y="-125" type="curve"/>
      <point x="64" y="-177" type="line"/>
      <point x="79" y="-182"/>
      <point x="96" y="-186"/>
    </contour>
  </outline>
</glyph>
<glyph name="ecedilla" format="2">
  <advance width="401"/>
  <unicode hex="0229"/>
  <outline>
    <contour>
      <point x="112" y="-194" type="curve" smooth="yes"/>
      <point x="177" y="-194"/>
      <point x="224" y="-156"/>
      <point x="224" y="-102" type="curve" smooth="yes"/>
      <point x="224" y="-78"/>
      <point x="213" y="-56"/>
      <point x="181" y="-39" type="curve"/>
      <point x="188" y="-28"/>
      <point x="195" y="-18"/>
      <point x="200" y="-9" type="curve"/>
      <point x="240" y="-6"/>
      <point x="277" y="9"/>
      <point x="304" y="28" type="curve"/>
      <point x="297" y="83" type="line"/>
      <point x="269" y="62"/>
      <point x="230" y="48"/>
      <point x="196" y="48" type="curve" smooth="yes"/>
      <point x="134" y="48"/>
      <point x="108" y="73"/>
      <point x="108" y="162" type="curve" smooth="yes"/>
      <point x="108" y="178"/>
      <point x="109" y="198"/>
      <point x="111" y="213" type="curve"/>
      <point x="278" y="221"/>
      <point x="387" y="289"/>
      <point x="390" y="420" type="curve" smooth="yes"/>
      <point x="391" y="490"/>
      <point x="349" y="535"/>
      <point x="282" y="535" type="curve" smooth="yes"/>
      <point x="141" y="535"/>
      <point x="39" y="356"/>
      <point x="39" y="156" type="curve" smooth="yes"/>
      <point x="39" y="57"/>
      <point x="71" y="1"/>
      <point x="150" y="-9" type="curve"/>
      <point x="140" y="-24"/>
      <point x="129" y="-42"/>
      <point x="119" y="-59" type="curve"/>
      <point x="153" y="-69"/>
      <point x="167" y="-84"/>
      <point x="167" y="-104" type="curve" smooth="yes"/>
      <point x="167" y="-131"/>
      <point x="148" y="-146"/>
      <point x="117" y="-146" type="curve" smooth="yes"/>
      <point x="102" y="-146"/>
      <point x="81" y="-143"/>
      <point x="68" y="-138" type="curve"/>
      <point x="51" y="-184" type="line"/>
      <point x="70" y="-190"/>
      <point x="91" y="-194"/>
    </contour>
    <contour>
      <point x="117" y="266" type="curve"/>
      <point x="139" y="389"/>
      <point x="202" y="477"/>
      <point x="270" y="477" type="curve" smooth="yes"/>
      <point x="304" y="477"/>
      <point x="325" y="453"/>
      <point x="325" y="415" type="curve" smooth="yes"/>
      <point x="325" y="336"/>
      <point x="254" y="273"/>
    </contour>
  </outline>
</glyph>
<glyph name="ncurl" format="2">
  <advance width="587"/>
  <unicode hex="0235"/>
  <outline>
    <contour>
      <point x="343" y="-180" type="curve" smooth="yes"/>
      <point x="431" y="-180"/>
      <point x="495" y="-93"/>
      <point x="495" y="8" type="curve" smooth="yes"/>
      <point x="495" y="67"/>
      <point x="466" y="103"/>
      <point x="416" y="103" type="curve" smooth="yes"/>
      <point x="389" y="103"/>
      <point x="368" y="94"/>
      <point x="347" y="76" type="curve"/>
      <point x="404" y="317" type="line" smooth="yes"/>
      <point x="412" y="350"/>
      <point x="416" y="379"/>
      <point x="416" y="405" type="curve" smooth="yes"/>
      <point x="416" y="491"/>
      <point x="371" y="532"/>
      <point x="276" y="532" type="curve" smooth="yes"/>
      <point x="233" y="532"/>
      <point x="182" y="522"/>
      <point x="137" y="507" type="curve"/>
      <point x="15" y="0" type="line"/>
      <point x="84" y="0" type="line"/>
      <point x="194" y="462" type="line"/>
      <point x="217" y="469"/>
      <point x="243" y="474"/>
      <point x="265" y="474" type="curve" smooth="yes"/>
      <point x="321" y="474"/>
      <point x="346" y="449"/>
      <point x="346" y="392" type="curve" smooth="yes"/>
      <point x="346" y="370"/>
      <point x="342" y="343"/>
      <point x="334" y="310" type="curve" smooth="yes"/>
      <point x="268" y="33" type="line" smooth="yes"/>
      <point x="264" y="20"/>
      <point x="261" y="8"/>
      <point x="258" y="-5" type="curve"/>
      <point x="150" y="-141" type="line"/>
      <point x="186" y="-170" type="line"/>
      <point x="253" y="-85" type="line"/>
      <point x="252" y="-92"/>
      <point x="251" y="-98"/>
      <point x="251" y="-103" type="curve" smooth="yes"/>
      <point x="259" y="-154"/>
      <point x="296" y="-180"/>
    </contour>
    <contour>
      <point x="354" y="-129" type="curve" smooth="yes"/>
      <point x="328" y="-129"/>
      <point x="313" y="-112"/>
      <point x="313" y="-73" type="curve" smooth="yes"/>
      <point x="313" y="-53"/>
      <point x="319" y="-28"/>
      <point x="326" y="2" type="curve"/>
      <point x="351" y="35"/>
      <point x="373" y="52"/>
      <point x="396" y="52" type="curve" smooth="yes"/>
      <point x="422" y="52"/>
      <point x="435" y="34"/>
      <point x="435" y="1" type="curve" smooth="yes"/>
      <point x="435" y="-71"/>
      <point x="399" y="-129"/>
    </contour>
  </outline>
</glyph>
<glyph name="qpdigraph" format="2">
  <advance width="677"/>
  <unicode hex="0239"/>
  <outline>
    <contour>
      <point x="193" y="-185" type="line"/>
      <point x="262" y="-185" type="line"/>
      <point x="307" y="0" type="line"/>
      <point x="328" y="-7"/>
      <point x="352" y="-11"/>
      <point x="372" y="-11" type="curve" smooth="yes"/>
      <point x="514" y="-11"/>
      <point x="641" y="164"/>
      <point x="641" y="376" type="curve" smooth="yes"/>
      <point x="641" y="479"/>
      <point x="598" y="533"/>
      <point x="501" y="533" type="curve" smooth="yes"/>
      <point x="474" y="533"/>
      <point x="435" y="528"/>
      <point x="399" y="514" type="curve"/>
      <point x="371" y="527"/>
      <point x="336" y="533"/>
      <point x="309" y="533" type="curve" smooth="yes"/>
      <point x="156" y="533"/>
      <point x="37" y="360"/>
      <point x="35" y="148" type="curve" smooth="yes"/>
      <point x="34" y="48"/>
      <point x="71" y="-11"/>
      <point x="153" y="-11" type="curve" smooth="yes"/>
      <point x="183" y="-11"/>
      <point x="215" y="1"/>
      <point x="243" y="19" type="curve"/>
    </contour>
    <contour>
      <point x="171" y="50" type="curve" smooth="yes"/>
      <point x="123" y="50"/>
      <point x="105" y="82"/>
      <point x="105" y="153" type="curve" smooth="yes"/>
      <point x="105" y="321"/>
      <point x="195" y="474"/>
      <point x="290" y="474" type="curve" smooth="yes"/>
      <point x="312" y="474"/>
      <point x="332" y="471"/>
      <point x="349" y="463" type="curve"/>
      <point x="258" y="85" type="line"/>
      <point x="231" y="63"/>
      <point x="199" y="50"/>
    </contour>
    <contour>
      <point x="380" y="49" type="curve"/>
      <point x="360" y="49"/>
      <point x="337" y="51"/>
      <point x="321" y="59" type="curve"/>
      <point x="416" y="455" type="line"/>
      <point x="438" y="467"/>
      <point x="473" y="474"/>
      <point x="496" y="474" type="curve" smooth="yes"/>
      <point x="547" y="474"/>
      <point x="570" y="441"/>
      <point x="570" y="371" type="curve" smooth="yes"/>
      <point x="570" y="202"/>
      <point x="478" y="49"/>
    </contour>
  </outline>
</glyph>
<glyph name="Astroke" format="2">
  <advance width="477"/>
  <unicode hex="023A"/>
  <outline>
    <contour>
      <point x="100" y="-106" type="line"/>
      <point x="231" y="181" type="line"/>
      <point x="329" y="181" type="line"/>
      <point x="328" y="116"/>
      <point x="327" y="56"/>
      <point x="323" y="0" type="curve"/>
      <point x="396" y="0" type="line"/>
      <point x="404" y="177"/>
      <point x="399" y="354"/>
      <point x="389" y="527" type="curve"/>
      <point x="495" y="759" type="line"/>
      <point x="458" y="774" type="line"/>
      <point x="383" y="611" type="line"/>
      <point x="375" y="693" type="line"/>
      <point x="299" y="693" type="line"/>
      <point x="182" y="491"/>
      <point x="51" y="234"/>
      <point x="-39" y="0" type="curve"/>
      <point x="30" y="0" type="line"/>
      <point x="51" y="54"/>
      <point x="76" y="116"/>
      <point x="105" y="181" type="curve"/>
      <point x="186" y="181" type="line"/>
      <point x="62" y="-90" type="line"/>
    </contour>
    <contour>
      <point x="253" y="242" type="line"/>
      <point x="331" y="413" type="line"/>
      <point x="334" y="353"/>
      <point x="333" y="297"/>
      <point x="334" y="242" type="curve"/>
    </contour>
    <contour>
      <point x="131" y="242" type="line"/>
      <point x="186" y="361"/>
      <point x="251" y="490"/>
      <point x="320" y="616" type="curve"/>
      <point x="323" y="576"/>
      <point x="325" y="534"/>
      <point x="327" y="494" type="curve"/>
      <point x="213" y="242" type="line"/>
    </contour>
  </outline>
</glyph>
<glyph name="cstroke" format="2">
  <advance width="354"/>
  <unicode hex="023C"/>
  <outline>
    <contour>
      <point x="78" y="-80" type="line"/>
      <point x="112" y="0" type="line"/>
      <point x="129" y="-8"/>
      <point x="147" y="-11"/>
      <point x="169" y="-11" type="curve" smooth="yes"/>
      <point x="208" y="-11"/>
      <point x="241" y="-2"/>
      <point x="273" y="16" type="curve"/>
      <point x="267" y="73" type="line"/>
      <point x="245" y="58"/>
      <point x="217" y="49"/>
      <point x="191" y="49" type="curve" smooth="yes"/>
      <point x="169" y="49"/>
      <point x="152" y="54"/>
      <point x="139" y="63" type="curve"/>
      <point x="318" y="472" type="line"/>
      <point x="331" y="470"/>
      <point x="343" y="466"/>
      <point x="355" y="460" type="curve"/>
      <point x="378" y="517" type="line"/>
      <point x="367" y="522"/>
      <point x="354" y="526"/>
      <point x="342" y="529" type="curve"/>
      <point x="374" y="604" type="line"/>
      <point x="341" y="617" type="line"/>
      <point x="305" y="534" type="line"/>
      <point x="299" y="535"/>
      <point x="293" y="535"/>
      <point x="288" y="535" type="curve" smooth="yes"/>
      <point x="146" y="535"/>
      <point x="40" y="371"/>
      <point x="40" y="156" type="curve" smooth="yes"/>
      <point x="40" y="93"/>
      <point x="54" y="48"/>
      <point x="82" y="21" type="curve"/>
      <point x="43" y="-66" type="line"/>
    </contour>
    <contour>
      <point x="116" y="100" type="line"/>
      <point x="110" y="116"/>
      <point x="107" y="136"/>
      <point x="107" y="165" type="curve" smooth="yes"/>
      <point x="107" y="330"/>
      <point x="180" y="465"/>
      <point x="275" y="474" type="curve" smooth="yes"/>
      <point x="276" y="474"/>
      <point x="277" y="474"/>
      <point x="279" y="474" type="curve"/>
    </contour>
  </outline>
</glyph>
<glyph name="sswashtail" format="2">
  <advance width="335"/>
  <unicode hex="023F"/>
  <outline>
    <contour>
      <point x="153" y="-189" type="curve" smooth="yes"/>
      <point x="167" y="-189"/>
      <point x="183" y="-186"/>
      <point x="195" y="-182" type="curve"/>
      <point x="198" y="-128" type="line"/>
      <point x="190" y="-131"/>
      <point x="181" y="-133"/>
      <point x="172" y="-133" type="curve" smooth="yes"/>
      <point x="151" y="-133"/>
      <point x="129" y="-115"/>
      <point x="108" y="-74" type="curve" smooth="yes"/>
      <point x="97" y="-54"/>
      <point x="84" y="-27"/>
      <point x="73" y="-8" type="curve"/>
      <point x="82" y="-9"/>
      <point x="93" y="-11"/>
      <point x="103" y="-11" type="curve" smooth="yes"/>
      <point x="203" y="-6"/>
      <point x="273" y="63"/>
      <point x="273" y="160" type="curve" smooth="yes"/>
      <point x="273" y="216"/>
      <point x="256" y="242"/>
      <point x="203" y="286" type="curve" smooth="yes"/>
      <point x="155" y="323"/>
      <point x="139" y="344"/>
      <point x="139" y="380" type="curve" smooth="yes"/>
      <point x="139" y="438"/>
      <point x="177" y="477"/>
      <point x="236" y="477" type="curve" smooth="yes"/>
      <point x="260" y="477"/>
      <point x="286" y="472"/>
      <point x="309" y="461" type="curve"/>
      <point x="332" y="517" type="line"/>
      <point x="312" y="527"/>
      <point x="281" y="535"/>
      <point x="244" y="535" type="curve" smooth="yes"/>
      <point x="142" y="535"/>
      <point x="70" y="463"/>
      <point x="70" y="368" type="curve" smooth="yes"/>
      <point x="70" y="312"/>
      <point x="90" y="286"/>
      <point x="141" y="246" type="curve" smooth="yes"/>
      <point x="188" y="210"/>
      <point x="203" y="189"/>
      <point x="203" y="151" type="curve" smooth="yes"/>
      <point x="203" y="91"/>
      <point x="163" y="47"/>
      <point x="97" y="47" type="curve" smooth="yes"/>
      <point x="69" y="47"/>
      <point x="35" y="55"/>
      <point x="5" y="69" type="curve"/>
      <point x="-19" y="13" type="line"/>
      <point x="-4" y="5"/>
      <point x="2" y="-2"/>
      <point x="11" y="-18" type="curve" smooth="yes"/>
      <point x="27" y="-46"/>
      <point x="36" y="-74"/>
      <point x="49" y="-101" type="curve" smooth="yes"/>
      <point x="80" y="-167"/>
      <point x="111" y="-189"/>
    </contour>
  </outline>
</glyph>
<glyph name="zswashtail" format="2">
  <advance width="334"/>
  <unicode hex="0240"/>
  <outline>
    <contour>
      <point x="219" y="-189" type="curve"/>
      <point x="234" y="-189"/>
      <point x="249" y="-186"/>
      <point x="259" y="-182" type="curve"/>
      <point x="264" y="-128" type="line"/>
      <point x="255" y="-131"/>
      <point x="247" y="-133"/>
      <point x="239" y="-133" type="curve" smooth="yes"/>
      <point x="211" y="-133"/>
      <point x="190" y="-111"/>
      <point x="163" y="-58" type="curve" smooth="yes"/>
      <point x="141" y="-14"/>
      <point x="119" y="41"/>
      <point x="53" y="46" type="curve"/>
      <point x="136" y="185"/>
      <point x="257" y="355"/>
      <point x="351" y="468" type="curve"/>
      <point x="363" y="522" type="line"/>
      <point x="102" y="522" type="line"/>
      <point x="88" y="463" type="line"/>
      <point x="273" y="463" type="line"/>
      <point x="162" y="328"/>
      <point x="60" y="177"/>
      <point x="-14" y="51" type="curve"/>
      <point x="-25" y="0" type="line"/>
      <point x="5" y="0" type="line" smooth="yes"/>
      <point x="63" y="0"/>
      <point x="80" y="-42"/>
      <point x="108" y="-93" type="curve" smooth="yes"/>
      <point x="146" y="-161"/>
      <point x="168" y="-189"/>
    </contour>
  </outline>
</glyph>
<glyph name="Glottalstop" format="2">
  <advance width="376"/>
  <unicode hex="0241"/>
  <outline>
    <contour>
      <point x="45" y="0" type="line"/>
      <point x="117" y="0" type="line"/>
      <point x="161" y="187" type="line" smooth="yes"/>
      <point x="184" y="283"/>
      <point x="231" y="315"/>
      <point x="293" y="361" type="curve" smooth="yes"/>
      <point x="361" y="414"/>
      <point x="417" y="476"/>
      <point x="417" y="572" type="curve" smooth="yes"/>
      <point x="417" y="648"/>
      <point x="365" y="704"/>
      <point x="272" y="704" type="curve" smooth="yes"/>
      <point x="219" y="704"/>
      <point x="164" y="691"/>
      <point x="108" y="663" type="curve"/>
      <point x="120" y="605" type="line"/>
      <point x="166" y="628"/>
      <point x="208" y="641"/>
      <point x="250" y="641" type="curve" smooth="yes"/>
      <point x="309" y="641"/>
      <point x="341" y="606"/>
      <point x="341" y="556" type="curve" smooth="yes"/>
      <point x="341" y="491"/>
      <point x="300" y="442"/>
      <point x="231" y="389" type="curve" smooth="yes"/>
      <point x="163" y="336"/>
      <point x="117" y="301"/>
      <point x="90" y="191" type="curve" smooth="yes"/>
    </contour>
  </outline>
</glyph>
<glyph name="Bstroke" format="2">
  <advance width="508"/>
  <unicode hex="0243"/>
  <outline>
    <contour>
      <point x="164" y="-5" type="curve" smooth="yes"/>
      <point x="349" y="-5"/>
      <point x="441" y="93"/>
      <point x="441" y="224" type="curve" smooth="yes"/>
      <point x="441" y="284"/>
      <point x="412" y="333"/>
      <point x="346" y="359" type="curve"/>
      <point x="465" y="395"/>
      <point x="500" y="486"/>
      <point x="500" y="563" type="curve" smooth="yes"/>
      <point x="500" y="652"/>
      <point x="439" y="699"/>
      <point x="320" y="699" type="curve" smooth="yes"/>
      <point x="278" y="699"/>
      <point x="232" y="693"/>
      <point x="184" y="683" type="curve"/>
      <point x="74" y="224" type="line"/>
      <point x="9" y="224" type="line"/>
      <point x="-4" y="173" type="line"/>
      <point x="62" y="173" type="line"/>
      <point x="23" y="11" type="line"/>
      <point x="67" y="0"/>
      <point x="117" y="-5"/>
    </contour>
    <contour>
      <point x="179" y="56" type="curve" smooth="yes"/>
      <point x="157" y="56"/>
      <point x="129" y="59"/>
      <point x="107" y="63" type="curve"/>
      <point x="134" y="173" type="line"/>
      <point x="238" y="173" type="line"/>
      <point x="250" y="224" type="line"/>
      <point x="146" y="224" type="line"/>
      <point x="171" y="330" type="line"/>
      <point x="241" y="330" type="line" smooth="yes"/>
      <point x="323" y="330"/>
      <point x="366" y="291"/>
      <point x="366" y="220" type="curve" smooth="yes"/>
      <point x="366" y="116"/>
      <point x="302" y="56"/>
    </contour>
    <contour>
      <point x="186" y="389" type="line"/>
      <point x="244" y="632" type="line"/>
      <point x="263" y="636"/>
      <point x="288" y="638"/>
      <point x="310" y="638" type="curve" smooth="yes"/>
      <point x="389" y="638"/>
      <point x="426" y="613"/>
      <point x="426" y="551" type="curve" smooth="yes"/>
      <point x="426" y="476"/>
      <point x="385" y="389"/>
      <point x="257" y="389" type="curve" smooth="yes"/>
    </contour>
  </outline>
</glyph>
<glyph name="Ubar" format="2">
  <advance width="532"/>
  <unicode hex="0244"/>
  <outline>
    <contour>
      <point x="215" y="-10" type="curve" smooth="yes"/>
      <point x="342" y="-10"/>
      <point x="408" y="66"/>
      <point x="444" y="214" type="curve" smooth="yes"/>
      <point x="476" y="351" type="line"/>
      <point x="536" y="351" type="line"/>
      <point x="548" y="405" type="line"/>
      <point x="490" y="405" type="line"/>
      <point x="558" y="693" type="line"/>
      <point x="486" y="693" type="line"/>
      <point x="418" y="405" type="line"/>
      <point x="183" y="405" type="line"/>
      <point x="253" y="693" type="line"/>
      <point x="181" y="693" type="line"/>
      <point x="111" y="405" type="line"/>
      <point x="51" y="405" type="line"/>
      <point x="39" y="351" type="line"/>
      <point x="99" y="351" type="line"/>
      <point x="66" y="218" type="line" smooth="yes"/>
      <point x="59" y="188"/>
      <point x="56" y="161"/>
      <point x="56" y="137" type="curve" smooth="yes"/>
      <point x="56" y="38"/>
      <point x="114" y="-10"/>
    </contour>
    <contour>
      <point x="225" y="54" type="curve" smooth="yes"/>
      <point x="162" y="54"/>
      <point x="128" y="84"/>
      <point x="128" y="148" type="curve" smooth="yes"/>
      <point x="128" y="167"/>
      <point x="131" y="189"/>
      <point x="137" y="214" type="curve" smooth="yes"/>
      <point x="170" y="351" type="line"/>
      <point x="404" y="351" type="line"/>
      <point x="371" y="213" type="line" smooth="yes"/>
      <point x="345" y="105"/>
      <point x="304" y="54"/>
    </contour>
  </outline>
</glyph>
<glyph name="Qhooktail" format="2">
  <advance width="584"/>
  <unicode hex="024A"/>
  <outline>
    <contour>
      <point x="457" y="-187" type="curve" smooth="yes"/>
      <point x="476" y="-187"/>
      <point x="497" y="-182"/>
      <point x="512" y="-175" type="curve"/>
      <point x="512" y="-118" type="line"/>
      <point x="500" y="-124"/>
      <point x="488" y="-127"/>
      <point x="475" y="-127" type="curve" smooth="yes"/>
      <point x="454" y="-127"/>
      <point x="441" y="-116"/>
      <point x="441" y="-88" type="curve" smooth="yes"/>
      <point x="441" y="-78"/>
      <point x="443" y="-65"/>
      <point x="447" y="-49" type="curve" smooth="yes"/>
      <point x="527" y="283" type="line" smooth="yes"/>
      <point x="542" y="348"/>
      <point x="556" y="417"/>
      <point x="556" y="488" type="curve" smooth="yes"/>
      <point x="556" y="626"/>
      <point x="501" y="704"/>
      <point x="387" y="704" type="curve" smooth="yes"/>
      <point x="207" y="704"/>
      <point x="70" y="467"/>
      <point x="70" y="209" type="curve" smooth="yes"/>
      <point x="70" y="69"/>
      <point x="125" y="-10"/>
      <point x="239" y="-10" type="curve" smooth="yes"/>
      <point x="308" y="-10"/>
      <point x="366" y="32"/>
      <point x="413" y="94" type="curve"/>
      <point x="380" y="-44" type="line" smooth="yes"/>
      <point x="375" y="-63"/>
      <point x="372" y="-81"/>
      <point x="372" y="-96" type="curve" smooth="yes"/>
      <point x="372" y="-157"/>
      <point x="406" y="-187"/>
    </contour>
    <contour>
      <point x="247" y="52" type="curve" smooth="yes"/>
      <point x="172" y="52"/>
      <point x="144" y="104"/>
      <point x="144" y="212" type="curve" smooth="yes"/>
      <point x="144" y="408"/>
      <point x="246" y="642"/>
      <point x="379" y="642" type="curve" smooth="yes"/>
      <point x="449" y="642"/>
      <point x="482" y="590"/>
      <point x="482" y="485" type="curve" smooth="yes"/>
      <point x="482" y="286"/>
      <point x="378" y="52"/>
    </contour>
  </outline>
</glyph>
<glyph name="Rstroke" format="2">
  <advance width="492"/>
  <unicode hex="024C"/>
  <outline>
    <contour>
      <point x="19" y="0" type="line"/>
      <point x="91" y="0" type="line"/>
      <point x="156" y="274" type="line"/>
      <point x="216" y="274" type="line" smooth="yes"/>
      <point x="227" y="274"/>
      <point x="240" y="275"/>
      <point x="259" y="277" type="curve"/>
      <point x="290" y="197"/>
      <point x="317" y="90"/>
      <point x="330" y="0" type="curve"/>
      <point x="405" y="0" type="line"/>
      <point x="384" y="121"/>
      <point x="358" y="215"/>
      <point x="326" y="299" type="curve"/>
      <point x="440" y="349"/>
      <point x="492" y="439"/>
      <point x="492" y="544" type="curve" smooth="yes"/>
      <point x="492" y="644"/>
      <point x="432" y="699"/>
      <point x="321" y="699" type="curve" smooth="yes"/>
      <point x="274" y="699"/>
      <point x="224" y="692"/>
      <point x="183" y="683" type="curve"/>
      <point x="99" y="335" type="line"/>
      <point x="35" y="335" type="line"/>
      <point x="22" y="274" type="line"/>
      <point x="84" y="274" type="line"/>
    </contour>
    <contour>
      <point x="171" y="335" type="line"/>
      <point x="242" y="630" type="line"/>
      <point x="263" y="634"/>
      <point x="288" y="637"/>
      <point x="309" y="637" type="curve" smooth="yes"/>
      <point x="381" y="637"/>
      <point x="418" y="603"/>
      <point x="418" y="534" type="curve" smooth="yes"/>
      <point x="418" y="419"/>
      <point x="344" y="335"/>
      <point x="223" y="335" type="curve" smooth="yes"/>
    </contour>
  </outline>
</glyph>
<glyph name="rstroke" format="2">
  <advance width="308"/>
  <unicode hex="024D"/>
  <outline>
    <contour>
      <point x="15" y="0" type="line"/>
      <point x="84" y="0" type="line"/>
      <point x="136" y="215" type="line"/>
      <point x="254" y="215" type="line"/>
      <point x="266" y="266" type="line"/>
      <point x="148" y="266" type="line"/>
      <point x="193" y="458" type="line"/>
      <point x="218" y="467"/>
      <point x="243" y="473"/>
      <point x="269" y="473" type="curve" smooth="yes"/>
      <point x="290" y="473"/>
      <point x="310" y="470"/>
      <point x="327" y="464" type="curve"/>
      <point x="346" y="523" type="line"/>
      <point x="327" y="529"/>
      <point x="303" y="532"/>
      <point x="274" y="532" type="curve" smooth="yes"/>
      <point x="230" y="532"/>
      <point x="183" y="521"/>
      <point x="135" y="500" type="curve"/>
      <point x="78" y="266" type="line"/>
      <point x="18" y="266" type="line"/>
      <point x="6" y="215" type="line"/>
      <point x="66" y="215" type="line"/>
    </contour>
  </outline>
</glyph>
<glyph name="Ystroke" format="2">
  <advance width="450"/>
  <unicode hex="024E"/>
  <outline>
    <contour>
      <point x="127" y="0" type="line"/>
      <point x="198" y="0" type="line"/>
      <point x="264" y="270" type="line"/>
      <point x="311" y="334"/>
      <point x="361" y="407"/>
      <point x="409" y="484" type="curve"/>
      <point x="485" y="484" type="line"/>
      <point x="497" y="534" type="line"/>
      <point x="440" y="534" type="line"/>
      <point x="472" y="588"/>
      <point x="504" y="641"/>
      <point x="532" y="693" type="curve"/>
      <point x="457" y="693" type="line"/>
      <point x="432" y="644"/>
      <point x="403" y="591"/>
      <point x="370" y="534" type="curve"/>
      <point x="211" y="534" type="line"/>
      <point x="204" y="591"/>
      <point x="200" y="644"/>
      <point x="198" y="693" type="curve"/>
      <point x="123" y="693" type="line"/>
      <point x="127" y="640"/>
      <point x="133" y="588"/>
      <point x="141" y="534" type="curve"/>
      <point x="82" y="534" type="line"/>
      <point x="70" y="484" type="line"/>
      <point x="149" y="484" type="line"/>
      <point x="161" y="407"/>
      <point x="176" y="332"/>
      <point x="191" y="268" type="curve"/>
    </contour>
    <contour>
      <point x="240" y="332" type="curve"/>
      <point x="230" y="385"/>
      <point x="221" y="435"/>
      <point x="216" y="484" type="curve"/>
      <point x="341" y="484" type="line"/>
      <point x="310" y="435"/>
      <point x="278" y="385"/>
    </contour>
  </outline>
</glyph>
<glyph name="ezh" format="2">
  <advance width="335"/>
  <unicode hex="0292"/>
  <anchor x="42" y="0" name="bottom"/>
  <anchor x="210" y="522" name="top"/>
  <outline>
    <contour>
      <point x="30" y="-187" type="curve"/>
      <point x="148" y="-187"/>
      <point x="258" y="-83"/>
      <point x="258" y="70" type="curve" smooth="yes"/>
      <point x="258" y="147"/>
      <point x="221" y="208"/>
      <point x="138" y="219" type="curve"/>
      <point x="215" y="314"/>
      <point x="279" y="398"/>
      <point x="334" y="469" type="curve"/>
      <point x="346" y="522" type="line"/>
      <point x="80" y="522" type="line"/>
      <point x="67" y="463" type="line"/>
      <point x="260" y="463" type="line"/>
      <point x="197" y="382"/>
      <point x="129" y="294"/>
      <point x="61" y="211" type="curve"/>
      <point x="52" y="170" type="line"/>
      <point x="77" y="170" type="line" smooth="yes"/>
      <point x="150" y="170"/>
      <point x="188" y="130"/>
      <point x="188" y="60" type="curve" smooth="yes"/>
      <point x="188" y="-53"/>
      <point x="112" y="-125"/>
      <point x="32" y="-125" type="curve" smooth="yes"/>
      <point x="-5" y="-125"/>
      <point x="-37" y="-118"/>
      <point x="-65" y="-100" type="curve"/>
      <point x="-94" y="-155" type="line"/>
      <point x="-60" y="-177"/>
      <point x="-15" y="-187"/>
    </contour>
  </outline>
</glyph>
<glyph name="dotaccent" format="2">
  <advance width="279"/>
  <unicode hex="02D9"/>
  <outline>
    <contour>
      <point x="297" y="625" type="curve" smooth="yes"/>
      <point x="324" y="625"/>
      <point x="349" y="649"/>
      <point x="349" y="680" type="curve" smooth="yes"/>
      <point x="349" y="704"/>
      <point x="331" y="722"/>
      <point x="306" y="722" type="curve" smooth="yes"/>
      <point x="276" y="722"/>
      <point x="254" y="695"/>
      <point x="254" y="666" type="curve" smooth="yes"/>
      <point x="254" y="642"/>
      <point x="272" y="625"/>
    </contour>
  </outline>
</glyph>
<glyph name="commaaccentcomb" format="2">
  <unicode hex="0326"/>
  <anchor x="141" y="0" name="_bottom"/>
  <anchor x="67" y="-188" name="bottom"/>
  <outline>
    <contour>
      <point x="44" y="-188" type="curve" smooth="yes"/>
      <point x="101" y="-188"/>
      <point x="155" y="-150"/>
      <point x="164" y="-57" type="curve"/>
      <point x="103" y="-57" type="line"/>
      <point x="97" y="-104"/>
      <point x="82" y="-142"/>
      <point x="31" y="-142" type="curve" smooth="yes"/>
      <point x="28" y="-142"/>
      <point x="25" y="-142"/>
      <point x="21" y="-141" type="curve"/>
      <point x="13" y="-185" type="line"/>
      <point x="19" y="-186"/>
      <point x="33" y="-188"/>
    </contour>
  </outline>
</glyph>
<glyph name="Delta" format="2">
  <advance width="477"/>
  <unicode hex="0394"/>
  <outline>
    <contour>
      <point x="-39" y="0" type="curve"/>
      <point x="393" y="0" type="line"/>
      <point x="404" y="235"/>
      <point x="394" y="469"/>
      <point x="374" y="693" type="curve"/>
      <point x="298" y="693" type="line"/>
      <point x="181" y="491"/>
      <point x="51" y="234"/>
    </contour>
    <contour>
      <point x="55" y="60" type="line"/>
      <point x="117" y="220"/>
      <point x="216" y="425"/>
      <point x="316" y="608" type="curve"/>
      <point x="329" y="403"/>
      <point x="330" y="218"/>
      <point x="323" y="60" type="curve"/>
    </contour>
  </outline>
</glyph>
<glyph name="Theta" format="2">
  <advance width="584"/>
  <unicode hex="0398"/>
  <outline>
    <contour>
      <point x="239" y="-10" type="curve" smooth="yes"/>
      <point x="419" y="-10"/>
      <point x="556" y="230"/>
      <point x="556" y="488" type="curve" smooth="yes"/>
      <point x="556" y="626"/>
      <point x="501" y="704"/>
      <point x="387" y="704" type="curve" smooth="yes"/>
      <point x="207" y="704"/>
      <point x="70" y="467"/>
      <point x="70" y="209" type="curve" smooth="yes"/>
      <point x="70" y="69"/>
      <point x="125" y="-10"/>
    </contour>
    <contour>
      <point x="247" y="52" type="curve" smooth="yes"/>
      <point x="172" y="52"/>
      <point x="144" y="104"/>
      <point x="144" y="212" type="curve" smooth="yes"/>
      <point x="144" y="408"/>
      <point x="246" y="642"/>
      <point x="379" y="642" type="curve" smooth="yes"/>
      <point x="449" y="642"/>
      <point x="482" y="590"/>
      <point x="482" y="485" type="curve" smooth="yes"/>
      <point x="482" y="286"/>
      <point x="378" y="52"/>
    </contour>
    <contour>
      <point x="211" y="316" type="line"/>
      <point x="402" y="316" type="line"/>
      <point x="417" y="380" type="line"/>
      <point x="227" y="380" type="line"/>
    </contour>
  </outline>
</glyph>
<glyph name="beta" format="2">
  <advance width="479"/>
  <unicode hex="03B2"/>
  <outline>
    <contour>
      <point x="-28" y="-185" type="line"/>
      <point x="41" y="-185" type="line"/>
      <point x="87" y="11" type="line"/>
      <point x="115" y="-2"/>
      <point x="151" y="-9"/>
      <point x="189" y="-9" type="curve" smooth="yes"/>
      <point x="327" y="-9"/>
      <point x="433" y="117"/>
      <point x="433" y="284" type="curve" smooth="yes"/>
      <point x="433" y="349"/>
      <point x="409" y="405"/>
      <point x="352" y="429" type="curve"/>
      <point x="435" y="472"/>
      <point x="486" y="552"/>
      <point x="486" y="647" type="curve" smooth="yes"/>
      <point x="486" y="729"/>
      <point x="434" y="777"/>
      <point x="357" y="777" type="curve" smooth="yes"/>
      <point x="247" y="777"/>
      <point x="182" y="697"/>
      <point x="154" y="576" type="curve" smooth="yes"/>
    </contour>
    <contour>
      <point x="196" y="52" type="curve" smooth="yes"/>
      <point x="160" y="52"/>
      <point x="126" y="60"/>
      <point x="103" y="73" type="curve"/>
      <point x="223" y="574" type="line" smooth="yes"/>
      <point x="246" y="668"/>
      <point x="283" y="717"/>
      <point x="347" y="717" type="curve" smooth="yes"/>
      <point x="392" y="717"/>
      <point x="416" y="687"/>
      <point x="416" y="638" type="curve" smooth="yes"/>
      <point x="416" y="536"/>
      <point x="343" y="452"/>
      <point x="274" y="452" type="curve" smooth="yes"/>
      <point x="265" y="452" type="line"/>
      <point x="252" y="395" type="line"/>
      <point x="258" y="395" type="line" smooth="yes"/>
      <point x="330" y="395"/>
      <point x="362" y="345"/>
      <point x="362" y="273" type="curve" smooth="yes"/>
      <point x="362" y="133"/>
      <point x="276" y="52"/>
    </contour>
  </outline>
</glyph>
<glyph name="gamma" format="2">
  <advance width="369"/>
  <unicode hex="03B3"/>
  <outline>
    <contour>
      <point x="43" y="-185" type="curve"/>
      <point x="108" y="-185" type="line"/>
      <point x="117" y="-131"/>
      <point x="126" y="-73"/>
      <point x="133" y="2" type="curve"/>
      <point x="275" y="198"/>
      <point x="352" y="356"/>
      <point x="419" y="522" type="curve"/>
      <point x="348" y="522" type="line"/>
      <point x="291" y="377"/>
      <point x="225" y="239"/>
      <point x="140" y="113" type="curve"/>
      <point x="150" y="266"/>
      <point x="150" y="405"/>
      <point x="145" y="522" type="curve"/>
      <point x="74" y="522" type="line"/>
      <point x="82" y="384"/>
      <point x="84" y="241"/>
      <point x="74" y="98" type="curve" smooth="yes"/>
      <point x="68" y="3"/>
      <point x="58" y="-92"/>
    </contour>
  </outline>
</glyph>
<glyph name="zeta" format="2">
  <advance width="358"/>
  <unicode hex="03B6"/>
  <outline>
    <contour>
      <point x="203" y="-183" type="line"/>
      <point x="245" y="-137"/>
      <point x="284" y="-88"/>
      <point x="284" y="-25" type="curve" smooth="yes"/>
      <point x="284" y="20"/>
      <point x="257" y="44"/>
      <point x="198" y="70" type="curve" smooth="yes"/>
      <point x="135" y="99"/>
      <point x="105" y="122"/>
      <point x="105" y="177" type="curve" smooth="yes"/>
      <point x="105" y="325"/>
      <point x="269" y="558"/>
      <point x="450" y="716" type="curve"/>
      <point x="462" y="769" type="line"/>
      <point x="194" y="769" type="line"/>
      <point x="179" y="709" type="line"/>
      <point x="365" y="709" type="line"/>
      <point x="216" y="572"/>
      <point x="34" y="343"/>
      <point x="34" y="160" type="curve" smooth="yes"/>
      <point x="34" y="86"/>
      <point x="69" y="52"/>
      <point x="142" y="21" type="curve" smooth="yes"/>
      <point x="194" y="-2"/>
      <point x="211" y="-17"/>
      <point x="211" y="-45" type="curve" smooth="yes"/>
      <point x="211" y="-85"/>
      <point x="183" y="-123"/>
      <point x="148" y="-161" type="curve"/>
    </contour>
  </outline>
</glyph>
<glyph name="eta" format="2">
  <advance width="465"/>
  <unicode hex="03B7"/>
  <anchor x="52" y="0" name="bottom"/>
  <anchor x="293" y="522" name="top"/>
  <outline>
    <contour>
      <point x="215" y="-185" type="line"/>
      <point x="284" y="-185" type="line"/>
      <point x="404" y="317" type="line" smooth="yes"/>
      <point x="412" y="350"/>
      <point x="416" y="380"/>
      <point x="416" y="406" type="curve" smooth="yes"/>
      <point x="416" y="492"/>
      <point x="371" y="532"/>
      <point x="276" y="532" type="curve" smooth="yes"/>
      <point x="233" y="532"/>
      <point x="182" y="522"/>
      <point x="137" y="507" type="curve"/>
      <point x="15" y="0" type="line"/>
      <point x="84" y="0" type="line"/>
      <point x="194" y="462" type="line"/>
      <point x="217" y="469"/>
      <point x="243" y="474"/>
      <point x="265" y="474" type="curve" smooth="yes"/>
      <point x="321" y="474"/>
      <point x="346" y="449"/>
      <point x="346" y="392" type="curve" smooth="yes"/>
      <point x="346" y="370"/>
      <point x="342" y="343"/>
      <point x="334" y="310" type="curve" smooth="yes"/>
    </contour>
  </outline>
</glyph>
<glyph name="theta" format="2">
  <advance width="497"/>
  <unicode hex="03B8"/>
  <outline>
    <contour>
      <point x="196" y="-10" type="curve" smooth="yes"/>
      <point x="361" y="-10"/>
      <point x="485" y="259"/>
      <point x="485" y="595" type="curve" smooth="yes"/>
      <point x="485" y="711"/>
      <point x="440" y="777"/>
      <point x="359" y="777" type="curve" smooth="yes"/>
      <point x="195" y="777"/>
      <point x="71" y="510"/>
      <point x="71" y="178" type="curve" smooth="yes"/>
      <point x="71" y="56"/>
      <point x="115" y="-10"/>
    </contour>
    <contour>
      <point x="211" y="51" type="curve" smooth="yes"/>
      <point x="160" y="51"/>
      <point x="140" y="91"/>
      <point x="140" y="179" type="curve" smooth="yes"/>
      <point x="140" y="240"/>
      <point x="145" y="299"/>
      <point x="153" y="355" type="curve"/>
      <point x="393" y="355" type="line"/>
      <point x="363" y="181"/>
      <point x="290" y="51"/>
    </contour>
    <contour>
      <point x="163" y="415" type="line"/>
      <point x="194" y="587"/>
      <point x="266" y="716"/>
      <point x="345" y="716" type="curve" smooth="yes"/>
      <point x="393" y="716"/>
      <point x="415" y="676"/>
      <point x="415" y="591" type="curve" smooth="yes"/>
      <point x="415" y="531"/>
      <point x="411" y="472"/>
      <point x="403" y="415" type="curve"/>
    </contour>
  </outline>
</glyph>
<glyph name="kappa" format="2">
  <advance width="411"/>
  <unicode hex="03BA"/>
  <outline>
    <contour>
      <point x="14" y="0" type="line"/>
      <point x="83" y="0" type="line"/>
      <point x="144" y="254" type="line"/>
      <point x="187" y="201"/>
      <point x="233" y="115"/>
      <point x="267" y="0" type="curve"/>
      <point x="338" y="0" type="line"/>
      <point x="317" y="84"/>
      <point x="272" y="194"/>
      <point x="209" y="278" type="curve"/>
      <point x="278" y="343"/>
      <point x="389" y="461"/>
      <point x="426" y="522" type="curve"/>
      <point x="352" y="522" type="line"/>
      <point x="321" y="472"/>
      <point x="226" y="365"/>
      <point x="154" y="299" type="curve"/>
      <point x="209" y="522" type="line"/>
      <point x="140" y="522" type="line"/>
    </contour>
  </outline>
</glyph>
<glyph name="sigmafinal" format="2">
  <advance width="351"/>
  <unicode hex="03C2"/>
  <outline>
    <contour>
      <point x="185" y="-183" type="line"/>
      <point x="227" y="-138"/>
      <point x="265" y="-89"/>
      <point x="265" y="-26" type="curve" smooth="yes"/>
      <point x="265" y="15"/>
      <point x="244" y="37"/>
      <point x="190" y="64" type="curve" smooth="yes"/>
      <point x="135" y="91"/>
      <point x="106" y="121"/>
      <point x="106" y="187" type="curve" smooth="yes"/>
      <point x="106" y="335"/>
      <point x="168" y="474"/>
      <point x="277" y="474" type="curve" smooth="yes"/>
      <point x="304" y="474"/>
      <point x="329" y="469"/>
      <point x="350" y="456" type="curve"/>
      <point x="378" y="513" type="line"/>
      <point x="352" y="527"/>
      <point x="319" y="535"/>
      <point x="287" y="535" type="curve" smooth="yes"/>
      <point x="131" y="535"/>
      <point x="35" y="376"/>
      <point x="35" y="182" type="curve" smooth="yes"/>
      <point x="35" y="99"/>
      <point x="65" y="56"/>
      <point x="125" y="26" type="curve" smooth="yes"/>
      <point x="176" y="-1"/>
      <point x="193" y="-16"/>
      <point x="193" y="-45" type="curve" smooth="yes"/>
      <point x="193" y="-85"/>
      <point x="164" y="-123"/>
      <point x="130" y="-161" type="curve"/>
    </contour>
  </outline>
</glyph>
<glyph name="tau" format="2">
  <advance width="322"/>
  <unicode hex="03C4"/>
  <outline>
    <contour>
      <point x="163" y="-8" type="curve" smooth="yes"/>
      <point x="189" y="-8"/>
      <point x="214" y="-4"/>
      <point x="234" y="3" type="curve"/>
      <point x="239" y="59" type="line"/>
      <point x="221" y="54"/>
      <point x="204" y="52"/>
      <point x="190" y="52" type="curve" smooth="yes"/>
      <point x="160" y="52"/>
      <point x="143" y="67"/>
      <point x="143" y="102" type="curve" smooth="yes"/>
      <point x="143" y="113"/>
      <point x="144" y="126"/>
      <point x="148" y="141" type="curve" smooth="yes"/>
      <point x="225" y="462" type="line"/>
      <point x="349" y="462" type="line"/>
      <point x="363" y="522" type="line"/>
      <point x="78" y="522" type="line"/>
      <point x="63" y="462" type="line"/>
      <point x="157" y="462" type="line"/>
      <point x="79" y="144" type="line" smooth="yes"/>
      <point x="74" y="122"/>
      <point x="72" y="104"/>
      <point x="72" y="86" type="curve" smooth="yes"/>
      <point x="72" y="22"/>
      <point x="109" y="-8"/>
    </contour>
  </outline>
</glyph>
<glyph name="phi" format="2">
  <advance width="544"/>
  <unicode hex="03C6"/>
  <outline>
    <contour>
      <point x="161" y="-185" type="line"/>
      <point x="227" y="-185" type="line"/>
      <point x="269" y="-10" type="line"/>
      <point x="435" y="3"/>
      <point x="562" y="153"/>
      <point x="562" y="344" type="curve" smooth="yes"/>
      <point x="562" y="469"/>
      <point x="497" y="535"/>
      <point x="366" y="535" type="curve" smooth="yes"/>
      <point x="177" y="535"/>
      <point x="40" y="384"/>
      <point x="40" y="179" type="curve" smooth="yes"/>
      <point x="40" y="65"/>
      <point x="96" y="0"/>
      <point x="203" y="-9" type="curve"/>
    </contour>
    <contour>
      <point x="217" y="53" type="line"/>
      <point x="144" y="58"/>
      <point x="111" y="99"/>
      <point x="111" y="187" type="curve" smooth="yes"/>
      <point x="111" y="333"/>
      <point x="203" y="457"/>
      <point x="318" y="471" type="curve"/>
    </contour>
    <contour>
      <point x="284" y="53" type="curve"/>
      <point x="385" y="471" type="line"/>
      <point x="459" y="465"/>
      <point x="492" y="424"/>
      <point x="492" y="337" type="curve" smooth="yes"/>
      <point x="492" y="191"/>
      <point x="400" y="67"/>
    </contour>
  </outline>
</glyph>
<glyph name="psi" format="2">
  <advance width="585"/>
  <unicode hex="03C8"/>
  <outline>
    <contour>
      <point x="151" y="-185" type="line"/>
      <point x="220" y="-185" type="line"/>
      <point x="262" y="-10" type="line"/>
      <point x="406" y="-5"/>
      <point x="472" y="71"/>
      <point x="503" y="204" type="curve" smooth="yes"/>
      <point x="580" y="522" type="line"/>
      <point x="511" y="522" type="line"/>
      <point x="435" y="206" type="line" smooth="yes"/>
      <point x="410" y="103"/>
      <point x="371" y="56"/>
      <point x="277" y="52" type="curve"/>
      <point x="389" y="522" type="line"/>
      <point x="320" y="522" type="line"/>
      <point x="208" y="52" type="line"/>
      <point x="147" y="58"/>
      <point x="115" y="80"/>
      <point x="115" y="140" type="curve" smooth="yes"/>
      <point x="115" y="158"/>
      <point x="118" y="180"/>
      <point x="123" y="206" type="curve" smooth="yes"/>
      <point x="200" y="522" type="line"/>
      <point x="131" y="522" type="line"/>
      <point x="54" y="204" type="line" smooth="yes"/>
      <point x="48" y="179"/>
      <point x="45" y="154"/>
      <point x="45" y="134" type="curve" smooth="yes"/>
      <point x="45" y="46"/>
      <point x="97" y="-4"/>
      <point x="193" y="-10" type="curve"/>
    </contour>
  </outline>
</glyph>
<glyph name="omega" format="2">
  <advance width="655"/>
  <unicode hex="03C9"/>
  <anchor x="273" y="0" name="bottom"/>
  <anchor x="369" y="522" name="top"/>
  <outline>
    <contour>
      <point x="138" y="-9" type="curve" smooth="yes"/>
      <point x="198" y="-9"/>
      <point x="250" y="26"/>
      <point x="286" y="90" type="curve"/>
      <point x="294" y="27"/>
      <point x="336" y="-9"/>
      <point x="398" y="-9" type="curve" smooth="yes"/>
      <point x="525" y="-9"/>
      <point x="608" y="141"/>
      <point x="608" y="373" type="curve" smooth="yes"/>
      <point x="608" y="421"/>
      <point x="599" y="480"/>
      <point x="582" y="534" type="curve"/>
      <point x="518" y="512" type="line"/>
      <point x="531" y="468"/>
      <point x="539" y="417"/>
      <point x="539" y="371" type="curve" smooth="yes"/>
      <point x="539" y="182"/>
      <point x="484" y="53"/>
      <point x="401" y="53" type="curve" smooth="yes"/>
      <point x="358" y="53"/>
      <point x="336" y="81"/>
      <point x="336" y="133" type="curve" smooth="yes"/>
      <point x="336" y="154"/>
      <point x="340" y="178"/>
      <point x="346" y="205" type="curve" smooth="yes"/>
      <point x="396" y="417" type="line"/>
      <point x="326" y="417" type="line"/>
      <point x="276" y="205" type="line" smooth="yes"/>
      <point x="252" y="105"/>
      <point x="212" y="53"/>
      <point x="160" y="53" type="curve" smooth="yes"/>
      <point x="123" y="53"/>
      <point x="102" y="85"/>
      <point x="102" y="141" type="curve" smooth="yes"/>
      <point x="102" y="257"/>
      <point x="159" y="405"/>
      <point x="244" y="512" type="curve"/>
      <point x="190" y="535" type="line"/>
      <point x="96" y="423"/>
      <point x="34" y="265"/>
      <point x="34" y="134" type="curve" smooth="yes"/>
      <point x="34" y="43"/>
      <point x="73" y="-9"/>
    </contour>
  </outline>
</glyph>
<glyph name="Dje-cy" format="2">
  <advance width="580"/>
  <unicode hex="0402"/>
  <outline>
    <contour>
      <point x="325" y="-2" type="curve" smooth="yes"/>
      <point x="449" y="-2"/>
      <point x="535" y="132"/>
      <point x="535" y="270" type="curve" smooth="yes"/>
      <point x="535" y="373"/>
      <point x="480" y="432"/>
      <point x="378" y="432" type="curve" smooth="yes"/>
      <point x="344" y="432"/>
      <point x="309" y="425"/>
      <point x="281" y="414" type="curve"/>
      <point x="333" y="631" type="line"/>
      <point x="489" y="631" type="line"/>
      <point x="504" y="693" type="line"/>
      <point x="126" y="693" type="line"/>
      <point x="111" y="631" type="line"/>
      <point x="261" y="631" type="line"/>
      <point x="110" y="0" type="line"/>
      <point x="181" y="0" type="line"/>
      <point x="265" y="351" type="line"/>
      <point x="297" y="363"/>
      <point x="329" y="370"/>
      <point x="363" y="370" type="curve" smooth="yes"/>
      <point x="428" y="370"/>
      <point x="462" y="331"/>
      <point x="462" y="258" type="curve" smooth="yes"/>
      <point x="462" y="156"/>
      <point x="400" y="58"/>
      <point x="327" y="58" type="curve" smooth="yes"/>
      <point x="314" y="58"/>
      <point x="306" y="58"/>
      <point x="295" y="60" type="curve"/>
      <point x="278" y="2" type="line"/>
      <point x="292" y="-1"/>
      <point x="309" y="-2"/>
    </contour>
  </outline>
</glyph>
<glyph name="E-cy" format="2">
  <advance width="477"/>
  <unicode hex="0404"/>
  <outline>
    <contour>
      <point x="250" y="-10" type="curve" smooth="yes"/>
      <point x="305" y="-10"/>
      <point x="353" y="2"/>
      <point x="399" y="31" type="curve"/>
      <point x="392" y="94" type="line"/>
      <point x="352" y="66"/>
      <point x="310" y="52"/>
      <point x="270" y="52" type="curve" smooth="yes"/>
      <point x="190" y="52"/>
      <point x="145" y="100"/>
      <point x="145" y="206" type="curve" smooth="yes"/>
      <point x="145" y="248"/>
      <point x="149" y="290"/>
      <point x="156" y="329" type="curve"/>
      <point x="368" y="329" type="line"/>
      <point x="383" y="390" type="line"/>
      <point x="169" y="390" type="line"/>
      <point x="211" y="541"/>
      <point x="303" y="642"/>
      <point x="409" y="642" type="curve" smooth="yes"/>
      <point x="440" y="642"/>
      <point x="474" y="635"/>
      <point x="500" y="621" type="curve"/>
      <point x="525" y="682" type="line"/>
      <point x="497" y="696"/>
      <point x="457" y="704"/>
      <point x="412" y="704" type="curve" smooth="yes"/>
      <point x="214" y="704"/>
      <point x="70" y="480"/>
      <point x="70" y="206" type="curve" smooth="yes"/>
      <point x="70" y="68"/>
      <point x="131" y="-10"/>
    </contour>
  </outline>
</glyph>
<glyph name="Nje-cy" format="2">
  <advance width="788"/>
  <unicode hex="040A"/>
  <outline>
    <contour>
      <point x="484" y="-7" type="curve" smooth="yes"/>
      <point x="624" y="-7"/>
      <point x="743" y="90"/>
      <point x="743" y="254" type="curve" smooth="yes"/>
      <point x="743" y="359"/>
      <point x="680" y="416"/>
      <point x="565" y="416" type="curve"/>
      <point x="562" y="416"/>
      <point x="509" y="416"/>
      <point x="506" y="416" type="curve"/>
      <point x="572" y="693" type="line"/>
      <point x="500" y="693" type="line"/>
      <point x="431" y="406" type="line"/>
      <point x="189" y="406" type="line"/>
      <point x="258" y="693" type="line"/>
      <point x="186" y="693" type="line"/>
      <point x="20" y="0" type="line"/>
      <point x="92" y="0" type="line"/>
      <point x="174" y="343" type="line"/>
      <point x="417" y="343" type="line"/>
      <point x="335" y="7" type="line"/>
      <point x="384" y="-3"/>
      <point x="437" y="-7"/>
    </contour>
    <contour>
      <point x="494" y="56" type="curve" smooth="yes"/>
      <point x="470" y="56"/>
      <point x="442" y="58"/>
      <point x="420" y="62" type="curve"/>
      <point x="490" y="354" type="line"/>
      <point x="494" y="354"/>
      <point x="549" y="354"/>
      <point x="553" y="354" type="curve" smooth="yes"/>
      <point x="632" y="354"/>
      <point x="668" y="319"/>
      <point x="668" y="254" type="curve" smooth="yes"/>
      <point x="668" y="133"/>
      <point x="594" y="56"/>
    </contour>
  </outline>
</glyph>
<glyph name="De-cy" format="2">
  <advance width="555"/>
  <unicode hex="0414"/>
  <outline>
    <contour>
      <point x="-90" y="-185" type="line"/>
      <point x="-20" y="-185" type="line"/>
      <point x="24" y="0" type="line"/>
      <point x="381" y="0" type="line"/>
      <point x="337" y="-185" type="line"/>
      <point x="406" y="-185" type="line"/>
      <point x="466" y="62" type="line"/>
      <point x="410" y="62" type="line"/>
      <point x="561" y="693" type="line"/>
      <point x="260" y="693" type="line"/>
      <point x="256" y="676" type="line" smooth="yes"/>
      <point x="176" y="326"/>
      <point x="118" y="163"/>
      <point x="13" y="62" type="curve"/>
      <point x="-30" y="62" type="line"/>
    </contour>
    <contour>
      <point x="94" y="62" type="line"/>
      <point x="189" y="161"/>
      <point x="242" y="327"/>
      <point x="310" y="617" type="curve" smooth="yes"/>
      <point x="313" y="631" type="line"/>
      <point x="475" y="631" type="line"/>
      <point x="338" y="62" type="line"/>
    </contour>
  </outline>
</glyph>
<glyph name="Zhe-cy" format="2">
  <advance width="644"/>
  <unicode hex="0416"/>
  <anchor x="498" y="0" name="bottomright"/>
  <anchor x="411" y="677" name="top"/>
  <outline>
    <contour>
      <point x="-50" y="0" type="curve"/>
      <point x="31" y="0" type="line"/>
      <point x="103" y="115"/>
      <point x="203" y="245"/>
      <point x="300" y="331" type="curve"/>
      <point x="221" y="0" type="line"/>
      <point x="293" y="0" type="line"/>
      <point x="372" y="330" type="line"/>
      <point x="433" y="242"/>
      <point x="474" y="115"/>
      <point x="491" y="0" type="curve"/>
      <point x="565" y="0" type="line"/>
      <point x="546" y="116"/>
      <point x="502" y="251"/>
      <point x="439" y="357" type="curve"/>
      <point x="541" y="473"/>
      <point x="626" y="575"/>
      <point x="713" y="693" type="curve"/>
      <point x="638" y="693" type="line"/>
      <point x="564" y="592"/>
      <point x="480" y="489"/>
      <point x="384" y="380" type="curve"/>
      <point x="459" y="693" type="line"/>
      <point x="387" y="693" type="line"/>
      <point x="312" y="379" type="line"/>
      <point x="267" y="491"/>
      <point x="231" y="590"/>
      <point x="203" y="693" type="curve"/>
      <point x="135" y="693" type="line"/>
      <point x="166" y="578"/>
      <point x="202" y="482"/>
      <point x="249" y="368" type="curve"/>
      <point x="134" y="261"/>
      <point x="25" y="120"/>
    </contour>
  </outline>
</glyph>
<glyph name="Shcha-cy" format="2">
  <advance width="767"/>
  <unicode hex="0429"/>
  <outline>
    <contour>
      <point x="549" y="-185" type="line"/>
      <point x="619" y="-185" type="line"/>
      <point x="678" y="62" type="line"/>
      <point x="621" y="62" type="line"/>
      <point x="773" y="693" type="line"/>
      <point x="701" y="693" type="line"/>
      <point x="549" y="62" type="line"/>
      <point x="364" y="62" type="line"/>
      <point x="515" y="693" type="line"/>
      <point x="443" y="693" type="line"/>
      <point x="292" y="62" type="line"/>
      <point x="106" y="62" type="line"/>
      <point x="258" y="693" type="line"/>
      <point x="186" y="693" type="line"/>
      <point x="20" y="0" type="line"/>
      <point x="593" y="0" type="line"/>
    </contour>
  </outline>
</glyph>
<glyph name="Ya-cy" format="2">
  <advance width="492"/>
  <unicode hex="042F"/>
  <outline>
    <contour>
      <point x="-35" y="0" type="curve"/>
      <point x="41" y="0" type="line"/>
      <point x="94" y="89"/>
      <point x="160" y="185"/>
      <point x="234" y="279" type="curve"/>
      <point x="252" y="275"/>
      <point x="267" y="274"/>
      <point x="286" y="274" type="curve" smooth="yes"/>
      <point x="341" y="274" type="line"/>
      <point x="275" y="0" type="line"/>
      <point x="347" y="0" type="line"/>
      <point x="511" y="686" type="line"/>
      <point x="473" y="694"/>
      <point x="430" y="700"/>
      <point x="383" y="700" type="curve" smooth="yes"/>
      <point x="216" y="700"/>
      <point x="108" y="600"/>
      <point x="108" y="433" type="curve" smooth="yes"/>
      <point x="108" y="378"/>
      <point x="128" y="330"/>
      <point x="173" y="301" type="curve"/>
      <point x="103" y="213"/>
      <point x="34" y="112"/>
    </contour>
    <contour>
      <point x="298" y="335" type="line" smooth="yes"/>
      <point x="216" y="335"/>
      <point x="182" y="374"/>
      <point x="182" y="438" type="curve" smooth="yes"/>
      <point x="182" y="548"/>
      <point x="245" y="637"/>
      <point x="365" y="637" type="curve" smooth="yes"/>
      <point x="386" y="637"/>
      <point x="410" y="635"/>
      <point x="428" y="632" type="curve"/>
      <point x="356" y="335" type="line"/>
    </contour>
  </outline>
</glyph>
<glyph name="ve-cy" format="2">
  <advance width="443"/>
  <unicode hex="0432"/>
  <outline>
    <contour>
      <point x="155" y="-7" type="curve" smooth="yes"/>
      <point x="299" y="-7"/>
      <point x="373" y="73"/>
      <point x="373" y="172" type="curve" smooth="yes"/>
      <point x="373" y="222"/>
      <point x="347" y="254"/>
      <point x="299" y="272" type="curve"/>
      <point x="374" y="303"/>
      <point x="410" y="355"/>
      <point x="410" y="422" type="curve" smooth="yes"/>
      <point x="410" y="489"/>
      <point x="367" y="534"/>
      <point x="287" y="534" type="curve" smooth="yes"/>
      <point x="191" y="534"/>
      <point x="125" y="478"/>
      <point x="95" y="351" type="curve" smooth="yes"/>
      <point x="13" y="11" type="line"/>
      <point x="49" y="1"/>
      <point x="106" y="-7"/>
    </contour>
    <contour>
      <point x="167" y="51" type="curve" smooth="yes"/>
      <point x="146" y="51"/>
      <point x="119" y="55"/>
      <point x="94" y="60" type="curve"/>
      <point x="139" y="246" type="line"/>
      <point x="204" y="246" type="line" smooth="yes"/>
      <point x="268" y="246"/>
      <point x="306" y="218"/>
      <point x="306" y="169" type="curve" smooth="yes"/>
      <point x="306" y="95"/>
      <point x="253" y="51"/>
    </contour>
    <contour>
      <point x="152" y="300" type="line"/>
      <point x="162" y="346" type="line" smooth="yes"/>
      <point x="183" y="441"/>
      <point x="220" y="476"/>
      <point x="278" y="476" type="curve" smooth="yes"/>
      <point x="320" y="476"/>
      <point x="341" y="452"/>
      <point x="341" y="411" type="curve" smooth="yes"/>
      <point x="341" y="343"/>
      <point x="291" y="300"/>
      <point x="219" y="300" type="curve" smooth="yes"/>
    </contour>
  </outline>
</glyph>
<glyph name="de-cy" format="2">
  <advance width="457"/>
  <unicode hex="0434"/>
  <outline>
    <contour>
      <point x="180" y="-10" type="curve" smooth="yes"/>
      <point x="332" y="-10"/>
      <point x="431" y="203"/>
      <point x="431" y="483" type="curve" smooth="yes"/>
      <point x="431" y="688"/>
      <point x="369" y="776"/>
      <point x="249" y="776" type="curve" smooth="yes"/>
      <point x="220" y="776"/>
      <point x="186" y="770"/>
      <point x="158" y="761" type="curve"/>
      <point x="169" y="702" type="line"/>
      <point x="183" y="709"/>
      <point x="208" y="716"/>
      <point x="235" y="716" type="curve" smooth="yes"/>
      <point x="319" y="716"/>
      <point x="353" y="639"/>
      <point x="359" y="498" type="curve"/>
      <point x="340" y="511"/>
      <point x="316" y="519"/>
      <point x="290" y="519" type="curve" smooth="yes"/>
      <point x="152" y="519"/>
      <point x="51" y="360"/>
      <point x="51" y="162" type="curve" smooth="yes"/>
      <point x="51" y="54"/>
      <point x="99" y="-10"/>
    </contour>
    <contour>
      <point x="190" y="49" type="curve" smooth="yes"/>
      <point x="145" y="49"/>
      <point x="124" y="84"/>
      <point x="124" y="154" type="curve" smooth="yes"/>
      <point x="124" y="315"/>
      <point x="190" y="460"/>
      <point x="287" y="460" type="curve" smooth="yes"/>
      <point x="315" y="460"/>
      <point x="338" y="450"/>
      <point x="359" y="428" type="curve"/>
      <point x="352" y="214"/>
      <point x="275" y="49"/>
    </contour>
  </outline>
</glyph>
<glyph name="zhe-cy" format="2">
  <advance width="666"/>
  <unicode hex="0436"/>
  <anchor x="520" y="0" name="bottomright"/>
  <anchor x="396" y="522" name="top"/>
  <outline>
    <contour>
      <point x="-5" y="-11" type="curve" smooth="yes"/>
      <point x="97" y="-11"/>
      <point x="185" y="93"/>
      <point x="218" y="241" type="curve"/>
      <point x="292" y="241" type="line"/>
      <point x="235" y="0" type="line"/>
      <point x="304" y="0" type="line"/>
      <point x="362" y="241" type="line"/>
      <point x="439" y="241" type="line"/>
      <point x="435" y="212"/>
      <point x="432" y="183"/>
      <point x="432" y="151" type="curve" smooth="yes"/>
      <point x="432" y="44"/>
      <point x="466" y="-11"/>
      <point x="539" y="-11" type="curve" smooth="yes"/>
      <point x="561" y="-11"/>
      <point x="582" y="-9"/>
      <point x="597" y="-3" type="curve"/>
      <point x="596" y="54" type="line"/>
      <point x="587" y="50"/>
      <point x="575" y="49"/>
      <point x="564" y="49" type="curve" smooth="yes"/>
      <point x="517" y="49"/>
      <point x="499" y="81"/>
      <point x="499" y="161" type="curve" smooth="yes"/>
      <point x="499" y="327"/>
      <point x="576" y="474"/>
      <point x="664" y="474" type="curve" smooth="yes"/>
      <point x="673" y="474"/>
      <point x="682" y="473"/>
      <point x="689" y="471" type="curve"/>
      <point x="709" y="529" type="line"/>
      <point x="699" y="533"/>
      <point x="686" y="535"/>
      <point x="672" y="535" type="curve" smooth="yes"/>
      <point x="572" y="535"/>
      <point x="487" y="437"/>
      <point x="451" y="297" type="curve"/>
      <point x="375" y="297" type="line"/>
      <point x="429" y="522" type="line"/>
      <point x="360" y="522" type="line"/>
      <point x="306" y="297" type="line"/>
      <point x="229" y="297" type="line"/>
      <point x="232" y="320"/>
      <point x="234" y="347"/>
      <point x="234" y="372" type="curve" smooth="yes"/>
      <point x="234" y="480"/>
      <point x="201" y="535"/>
      <point x="127" y="535" type="curve" smooth="yes"/>
      <point x="106" y="535"/>
      <point x="86" y="532"/>
      <point x="70" y="527" type="curve"/>
      <point x="71" y="470" type="line"/>
      <point x="80" y="473"/>
      <point x="92" y="474"/>
      <point x="103" y="474" type="curve" smooth="yes"/>
      <point x="150" y="474"/>
      <point x="167" y="443"/>
      <point x="167" y="363" type="curve" smooth="yes"/>
      <point x="167" y="196"/>
      <point x="92" y="49"/>
      <point x="3" y="49" type="curve" smooth="yes"/>
      <point x="-5" y="49"/>
      <point x="-16" y="50"/>
      <point x="-22" y="53" type="curve"/>
      <point x="-42" y="-5" type="line"/>
      <point x="-32" y="-10"/>
      <point x="-19" y="-11"/>
    </contour>
  </outline>
</glyph>
<glyph name="ze-cy" format="2">
  <advance width="373"/>
  <unicode hex="0437"/>
  <anchor x="91" y="0" name="bottom"/>
  <anchor x="217" y="522" name="top"/>
  <outline>
    <contour>
      <point x="103" y="-10" type="curve" smooth="yes"/>
      <point x="215" y="-10"/>
      <point x="303" y="49"/>
      <point x="303" y="163" type="curve" smooth="yes"/>
      <point x="303" y="210"/>
      <point x="280" y="247"/>
      <point x="230" y="272" type="curve"/>
      <point x="319" y="306"/>
      <point x="345" y="371"/>
      <point x="345" y="424" type="curve" smooth="yes"/>
      <point x="345" y="497"/>
      <point x="300" y="535"/>
      <point x="224" y="535" type="curve" smooth="yes"/>
      <point x="178" y="535"/>
      <point x="134" y="527"/>
      <point x="95" y="511" type="curve"/>
      <point x="98" y="456" type="line"/>
      <point x="133" y="469"/>
      <point x="166" y="475"/>
      <point x="204" y="475" type="curve" smooth="yes"/>
      <point x="245" y="475"/>
      <point x="275" y="455"/>
      <point x="275" y="410" type="curve" smooth="yes"/>
      <point x="275" y="347"/>
      <point x="229" y="301"/>
      <point x="144" y="301" type="curve" smooth="yes"/>
      <point x="96" y="301" type="line"/>
      <point x="83" y="244" type="line"/>
      <point x="134" y="244" type="line" smooth="yes"/>
      <point x="196" y="244"/>
      <point x="233" y="213"/>
      <point x="233" y="161" type="curve" smooth="yes"/>
      <point x="233" y="87"/>
      <point x="181" y="50"/>
      <point x="108" y="50" type="curve" smooth="yes"/>
      <point x="67" y="50"/>
      <point x="27" y="57"/>
      <point x="-1" y="71" type="curve"/>
      <point x="-24" y="15" type="line"/>
      <point x="8" y="-2"/>
      <point x="53" y="-10"/>
    </contour>
  </outline>
</glyph>
<glyph name="en-cy" format="2">
  <advance width="482"/>
  <unicode hex="043D"/>
  <outline>
    <contour>
      <point x="15" y="0" type="line"/>
      <point x="84" y="0" type="line"/>
      <point x="142" y="241" type="line"/>
      <point x="329" y="241" type="line"/>
      <point x="272" y="0" type="line"/>
      <point x="341" y="0" type="line"/>
      <point x="466" y="522" type="line"/>
      <point x="397" y="522" type="line"/>
      <point x="344" y="301" type="line"/>
      <point x="156" y="301" type="line"/>
      <point x="209" y="522" type="line"/>
      <point x="140" y="522" type="line"/>
    </contour>
  </outline>
</glyph>
<glyph name="ef-cy" format="2">
  <advance width="602"/>
  <unicode hex="0444"/>
  <outline>
    <contour>
      <point x="160" y="-185" type="line"/>
      <point x="227" y="-185" type="line"/>
      <point x="269" y="-10" type="line"/>
      <point x="435" y="3"/>
      <point x="561" y="153"/>
      <point x="561" y="344" type="curve" smooth="yes"/>
      <point x="561" y="458"/>
      <point x="506" y="523"/>
      <point x="399" y="533" type="curve"/>
      <point x="457" y="776" type="line"/>
      <point x="388" y="764" type="line"/>
      <point x="332" y="533" type="line"/>
      <point x="167" y="521"/>
      <point x="40" y="371"/>
      <point x="40" y="179" type="curve" smooth="yes"/>
      <point x="40" y="65"/>
      <point x="96" y="0"/>
      <point x="202" y="-9" type="curve"/>
    </contour>
    <contour>
      <point x="217" y="53" type="line"/>
      <point x="143" y="58"/>
      <point x="110" y="99"/>
      <point x="110" y="187" type="curve" smooth="yes"/>
      <point x="110" y="333"/>
      <point x="202" y="457"/>
      <point x="317" y="471" type="curve"/>
    </contour>
    <contour>
      <point x="283" y="53" type="curve"/>
      <point x="384" y="471" type="line"/>
      <point x="458" y="465"/>
      <point x="491" y="424"/>
      <point x="491" y="337" type="curve" smooth="yes"/>
      <point x="491" y="191"/>
      <point x="399" y="67"/>
    </contour>
  </outline>
</glyph>
<glyph name="sha-cy" format="2">
  <advance width="678"/>
  <unicode hex="0448"/>
  <outline>
    <contour>
      <point x="164" y="-10" type="curve" smooth="yes"/>
      <point x="205" y="-10"/>
      <point x="255" y="7"/>
      <point x="294" y="38" type="curve"/>
      <point x="313" y="8"/>
      <point x="344" y="-10"/>
      <point x="395" y="-10" type="curve" smooth="yes"/>
      <point x="439" y="-10"/>
      <point x="474" y="11"/>
      <point x="501" y="37" type="curve"/>
      <point x="503" y="21"/>
      <point x="508" y="9"/>
      <point x="513" y="-7" type="curve"/>
      <point x="577" y="4" type="line"/>
      <point x="570" y="31"/>
      <point x="563" y="57"/>
      <point x="563" y="90" type="curve" smooth="yes"/>
      <point x="563" y="115"/>
      <point x="567" y="147"/>
      <point x="577" y="184" type="curve" smooth="yes"/>
      <point x="657" y="522" type="line"/>
      <point x="589" y="522" type="line"/>
      <point x="510" y="201" type="line" smooth="yes"/>
      <point x="500" y="156"/>
      <point x="495" y="123"/>
      <point x="493" y="96" type="curve"/>
      <point x="471" y="68"/>
      <point x="441" y="48"/>
      <point x="411" y="48" type="curve" smooth="yes"/>
      <point x="361" y="48"/>
      <point x="340" y="73"/>
      <point x="340" y="122" type="curve" smooth="yes"/>
      <point x="340" y="141"/>
      <point x="343" y="164"/>
      <point x="350" y="191" type="curve" smooth="yes"/>
      <point x="429" y="522" type="line"/>
      <point x="360" y="522" type="line"/>
      <point x="279" y="184" type="line" smooth="yes"/>
      <point x="273" y="160"/>
      <point x="270" y="138"/>
      <point x="270" y="118" type="curve" smooth="yes"/>
      <point x="270" y="108"/>
      <point x="271" y="98"/>
      <point x="272" y="91" type="curve"/>
      <point x="244" y="64"/>
      <point x="213" y="48"/>
      <point x="179" y="48" type="curve" smooth="yes"/>
      <point x="137" y="48"/>
      <point x="113" y="73"/>
      <point x="113" y="126" type="curve" smooth="yes"/>
      <point x="113" y="148"/>
      <point x="117" y="174"/>
      <point x="125" y="205" type="curve" smooth="yes"/>
      <point x="201" y="522" type="line"/>
      <point x="131" y="522" type="line"/>
      <point x="54" y="198" type="line" smooth="yes"/>
      <point x="46" y="165"/>
      <point x="42" y="138"/>
      <point x="42" y="114" type="curve" smooth="yes"/>
      <point x="42" y="29"/>
      <point x="86" y="-10"/>
    </contour>
  </outline>
</glyph>
<glyph name="dje-cy" format="2">
  <advance width="465"/>
  <unicode hex="0452"/>
  <outline>
    <contour>
      <point x="164" y="-168" type="line"/>
      <point x="177" y="-160"/>
      <point x="189" y="-153"/>
      <point x="202" y="-144" type="curve" smooth="yes"/>
      <point x="305" y="-80"/>
      <point x="336" y="22"/>
      <point x="385" y="233" type="curve" smooth="yes"/>
      <point x="388" y="250"/>
      <point x="392" y="270"/>
      <point x="392" y="284" type="curve" smooth="yes"/>
      <point x="404" y="389"/>
      <point x="357" y="441"/>
      <point x="263" y="441" type="curve" smooth="yes"/>
      <point x="239" y="441"/>
      <point x="208" y="437"/>
      <point x="182" y="428" type="curve"/>
      <point x="216" y="571" type="line"/>
      <point x="328" y="571" type="line"/>
      <point x="341" y="622" type="line"/>
      <point x="229" y="622" type="line"/>
      <point x="265" y="776" type="line"/>
      <point x="194" y="764" type="line"/>
      <point x="160" y="622" type="line"/>
      <point x="99" y="622" type="line"/>
      <point x="87" y="571" type="line"/>
      <point x="147" y="571" type="line"/>
      <point x="10" y="0" type="line"/>
      <point x="79" y="0" type="line"/>
      <point x="168" y="370" type="line"/>
      <point x="188" y="377"/>
      <point x="220" y="382"/>
      <point x="243" y="382" type="curve" smooth="yes"/>
      <point x="302" y="382"/>
      <point x="329" y="353"/>
      <point x="321" y="279" type="curve" smooth="yes"/>
      <point x="321" y="265"/>
      <point x="317" y="243"/>
      <point x="313" y="225" type="curve" smooth="yes"/>
      <point x="273" y="57"/>
      <point x="254" y="-40"/>
      <point x="170" y="-96" type="curve" smooth="yes"/>
      <point x="159" y="-104"/>
      <point x="147" y="-111"/>
      <point x="136" y="-120" type="curve"/>
    </contour>
  </outline>
</glyph>
<glyph name="nje-cy" format="2">
  <advance width="673"/>
  <unicode hex="045A"/>
  <outline>
    <contour>
      <point x="410" y="-10" type="curve" smooth="yes"/>
      <point x="541" y="-10"/>
      <point x="623" y="64"/>
      <point x="623" y="188" type="curve" smooth="yes"/>
      <point x="623" y="265"/>
      <point x="574" y="313"/>
      <point x="488" y="313" type="curve" smooth="yes"/>
      <point x="480" y="313"/>
      <point x="420" y="313"/>
      <point x="416" y="313" type="curve"/>
      <point x="466" y="522" type="line"/>
      <point x="397" y="522" type="line"/>
      <point x="346" y="308" type="line"/>
      <point x="158" y="308" type="line"/>
      <point x="209" y="522" type="line"/>
      <point x="140" y="522" type="line"/>
      <point x="15" y="0" type="line"/>
      <point x="84" y="0" type="line"/>
      <point x="144" y="247" type="line"/>
      <point x="331" y="247" type="line"/>
      <point x="274" y="10" type="line"/>
      <point x="310" y="-2"/>
      <point x="365" y="-10"/>
    </contour>
    <contour>
      <point x="425" y="50" type="curve" smooth="yes"/>
      <point x="401" y="50"/>
      <point x="373" y="53"/>
      <point x="355" y="57" type="curve"/>
      <point x="402" y="253" type="line"/>
      <point x="405" y="253"/>
      <point x="464" y="253"/>
      <point x="468" y="253" type="curve" smooth="yes"/>
      <point x="528" y="253"/>
      <point x="552" y="224"/>
      <point x="552" y="178" type="curve" smooth="yes"/>
      <point x="552" y="97"/>
      <point x="503" y="50"/>
    </contour>
  </outline>
</glyph>
<glyph name="Yat-cy" format="2">
  <advance width="498"/>
  <unicode hex="0462"/>
  <outline>
    <contour>
      <point x="185" y="-5" type="curve" smooth="yes"/>
      <point x="352" y="-5"/>
      <point x="454" y="102"/>
      <point x="454" y="255" type="curve" smooth="yes"/>
      <point x="454" y="382"/>
      <point x="378" y="427"/>
      <point x="264" y="427" type="curve" smooth="yes"/>
      <point x="262" y="427"/>
      <point x="213" y="427"/>
      <point x="209" y="427" type="curve"/>
      <point x="254" y="615" type="line"/>
      <point x="383" y="615" type="line"/>
      <point x="396" y="672" type="line"/>
      <point x="268" y="672" type="line"/>
      <point x="284" y="741" type="line"/>
      <point x="212" y="741" type="line"/>
      <point x="197" y="672" type="line"/>
      <point x="85" y="672" type="line"/>
      <point x="72" y="615" type="line"/>
      <point x="183" y="615" type="line"/>
      <point x="37" y="14" type="line"/>
      <point x="77" y="3"/>
      <point x="135" y="-5"/>
    </contour>
    <contour>
      <point x="193" y="59" type="curve" smooth="yes"/>
      <point x="172" y="59"/>
      <point x="146" y="61"/>
      <point x="123" y="67" type="curve"/>
      <point x="194" y="364" type="line"/>
      <point x="198" y="364"/>
      <point x="250" y="364"/>
      <point x="254" y="364" type="curve" smooth="yes"/>
      <point x="343" y="364"/>
      <point x="378" y="334"/>
      <point x="378" y="252" type="curve" smooth="yes"/>
      <point x="378" y="141"/>
      <point x="315" y="59"/>
    </contour>
  </outline>
</glyph>
<glyph name="yat-cy" format="2">
  <advance width="663"/>
  <unicode hex="0463"/>
  <outline>
    <contour>
      <point x="403" y="-10" type="curve" smooth="yes"/>
      <point x="541" y="-10"/>
      <point x="617" y="80"/>
      <point x="617" y="205" type="curve" smooth="yes"/>
      <point x="617" y="284"/>
      <point x="572" y="332"/>
      <point x="490" y="332" type="curve" smooth="yes"/>
      <point x="459" y="332"/>
      <point x="428" y="324"/>
      <point x="403" y="315" type="curve"/>
      <point x="413" y="357"/>
      <point x="415" y="382"/>
      <point x="415" y="405" type="curve" smooth="yes"/>
      <point x="415" y="491"/>
      <point x="370" y="532"/>
      <point x="275" y="532" type="curve" smooth="yes"/>
      <point x="232" y="532"/>
      <point x="181" y="522"/>
      <point x="136" y="507" type="curve"/>
      <point x="14" y="0" type="line"/>
      <point x="83" y="0" type="line"/>
      <point x="193" y="462" type="line"/>
      <point x="216" y="469"/>
      <point x="242" y="474"/>
      <point x="264" y="474" type="curve" smooth="yes"/>
      <point x="320" y="474"/>
      <point x="345" y="449"/>
      <point x="345" y="392" type="curve" smooth="yes"/>
      <point x="345" y="370"/>
      <point x="341" y="344"/>
      <point x="334" y="311" type="curve" smooth="yes"/>
      <point x="261" y="12" type="line"/>
      <point x="297" y="-2"/>
      <point x="356" y="-10"/>
    </contour>
    <contour>
      <point x="415" y="50" type="curve" smooth="yes"/>
      <point x="391" y="50"/>
      <point x="362" y="53"/>
      <point x="342" y="60" type="curve"/>
      <point x="389" y="254" type="line"/>
      <point x="411" y="263"/>
      <point x="438" y="271"/>
      <point x="469" y="271" type="curve" smooth="yes"/>
      <point x="524" y="271"/>
      <point x="547" y="243"/>
      <point x="547" y="195" type="curve" smooth="yes"/>
      <point x="547" y="112"/>
      <point x="501" y="50"/>
    </contour>
  </outline>
</glyph>
<glyph name="Fita-cy" format="2">
  <advance width="584"/>
  <unicode hex="0472"/>
  <outline>
    <contour>
      <point x="239" y="-10" type="curve" smooth="yes"/>
      <point x="419" y="-10"/>
      <point x="556" y="230"/>
      <point x="556" y="488" type="curve" smooth="yes"/>
      <point x="556" y="626"/>
      <point x="501" y="704"/>
      <point x="387" y="704" type="curve" smooth="yes"/>
      <point x="207" y="704"/>
      <point x="70" y="467"/>
      <point x="70" y="209" type="curve" smooth="yes"/>
      <point x="70" y="69"/>
      <point x="125" y="-10"/>
    </contour>
    <contour>
      <point x="247" y="52" type="curve" smooth="yes"/>
      <point x="172" y="52"/>
      <point x="144" y="104"/>
      <point x="144" y="212" type="curve" smooth="yes"/>
      <point x="144" y="242"/>
      <point x="147" y="275"/>
      <point x="152" y="307" type="curve"/>
      <point x="174" y="329"/>
      <point x="204" y="342"/>
      <point x="232" y="342" type="curve" smooth="yes"/>
      <point x="288" y="342"/>
      <point x="306" y="283"/>
      <point x="374" y="283" type="curve" smooth="yes"/>
      <point x="405" y="283"/>
      <point x="432" y="293"/>
      <point x="458" y="315" type="curve"/>
      <point x="423" y="168"/>
      <point x="340" y="52"/>
    </contour>
    <contour>
      <point x="390" y="342" type="curve" smooth="yes"/>
      <point x="336" y="342"/>
      <point x="318" y="401"/>
      <point x="249" y="401" type="curve" smooth="yes"/>
      <point x="217" y="401"/>
      <point x="190" y="390"/>
      <point x="163" y="369" type="curve"/>
      <point x="197" y="521"/>
      <point x="281" y="642"/>
      <point x="379" y="642" type="curve" smooth="yes"/>
      <point x="449" y="642"/>
      <point x="482" y="590"/>
      <point x="482" y="485" type="curve" smooth="yes"/>
      <point x="482" y="452"/>
      <point x="479" y="415"/>
      <point x="473" y="378" type="curve"/>
      <point x="447" y="355"/>
      <point x="419" y="342"/>
    </contour>
  </outline>
</glyph>
<glyph name="Izhitsa-cy" format="2">
  <advance width="536"/>
  <unicode hex="0474"/>
  <outline>
    <contour>
      <point x="136" y="0" type="curve"/>
      <point x="212" y="0" type="line"/>
      <point x="315" y="184"/>
      <point x="407" y="385"/>
      <point x="490" y="568" type="curve" smooth="yes"/>
      <point x="513" y="620"/>
      <point x="538" y="637"/>
      <point x="559" y="637" type="curve" smooth="yes"/>
      <point x="576" y="637"/>
      <point x="589" y="631"/>
      <point x="600" y="619" type="curve"/>
      <point x="636" y="670" type="line"/>
      <point x="617" y="691"/>
      <point x="592" y="701"/>
      <point x="562" y="701" type="curve" smooth="yes"/>
      <point x="521" y="701"/>
      <point x="473" y="685"/>
      <point x="439" y="613" type="curve" smooth="yes"/>
      <point x="374" y="469"/>
      <point x="295" y="280"/>
      <point x="195" y="85" type="curve"/>
      <point x="181" y="328"/>
      <point x="185" y="527"/>
      <point x="197" y="693" type="curve"/>
      <point x="124" y="693" type="line"/>
      <point x="110" y="458"/>
      <point x="117" y="231"/>
    </contour>
  </outline>
</glyph>
<glyph name="izhitsa-cy" format="2">
  <advance width="449"/>
  <unicode hex="0475"/>
  <outline>
    <contour>
      <point x="93" y="0" type="curve"/>
      <point x="165" y="0" type="line"/>
      <point x="234" y="107"/>
      <point x="309" y="257"/>
      <point x="372" y="406" type="curve" smooth="yes"/>
      <point x="393" y="455"/>
      <point x="409" y="473"/>
      <point x="435" y="473" type="curve" smooth="yes"/>
      <point x="450" y="473"/>
      <point x="461" y="468"/>
      <point x="470" y="461" type="curve"/>
      <point x="498" y="511" type="line"/>
      <point x="484" y="523"/>
      <point x="460" y="529"/>
      <point x="437" y="529" type="curve" smooth="yes"/>
      <point x="385" y="529"/>
      <point x="350" y="507"/>
      <point x="315" y="424" type="curve" smooth="yes"/>
      <point x="268" y="313"/>
      <point x="215" y="187"/>
      <point x="146" y="69" type="curve"/>
      <point x="133" y="226"/>
      <point x="132" y="385"/>
      <point x="144" y="522" type="curve"/>
      <point x="77" y="522" type="line"/>
      <point x="62" y="336"/>
      <point x="72" y="149"/>
    </contour>
  </outline>
</glyph>
